<svg width="357" height="398" viewBox="0 0 357 398" fill="none" xmlns="http://www.w3.org/2000/svg">
  <path d="M159.165 173.84C207.169 173.84 246.085 134.924 246.085 86.9198C246.085 38.9153 207.169 0 159.165 0C111.16 0 72.245 38.9153 72.245 86.9198C72.245 134.924 111.16 173.84 159.165 173.84Z" fill="#FFBA49" fillOpacity="0.6"/>
  <path opacity="0.2" fillRule="evenodd" clipRule="evenodd" d="M170.032 233.151C170.957 232.689 172.191 233.225 171.676 234.447C171.125 235.755 169.087 235.772 167.937 235.746C168.052 235.74 168.423 234.54 168.55 234.358C168.924 233.823 169.463 233.436 170.032 233.151ZM159.379 256.994C159.052 257.275 159.352 257.02 159.379 256.994V256.994ZM171.108 239.226C171.661 239.648 171.687 240.394 171.235 240.898C170.696 241.499 169.713 241.478 168.979 241.42C168.647 241.393 166.875 241.253 167.295 240.963C167.263 240.975 167.195 241.005 167.123 241.045C167.084 241.187 167.043 241.328 167.001 241.469C167.011 241.475 167.02 241.481 167.031 241.487C167.019 241.482 167.011 241.476 167 241.471C166.573 242.876 165.966 244.214 165.171 245.466C165.468 245.35 165.776 245.261 166.088 245.221C167.013 245.104 168.957 245.82 167.923 247.049C166.93 248.227 165.387 246.965 164.262 246.791C163.169 248.312 161.965 249.769 160.703 251.178C160.78 251.202 160.848 251.253 160.887 251.331C161.393 251.075 161.92 250.708 162.389 250.608C163.065 250.465 164.45 250.378 164.961 250.981C165.589 251.723 164.915 252.326 164.173 252.469C163.096 252.676 161.688 252.152 160.652 251.798C160.534 251.819 160.404 251.784 160.327 251.69C160.304 251.682 160.281 251.675 160.259 251.668C158.981 253.07 157.654 254.426 156.335 255.752C156.349 255.751 156.363 255.75 156.378 255.749C156.722 255.524 157.091 255.339 157.491 255.243C158.416 255.017 159.504 255.015 160.254 255.683C161.001 256.347 161.265 257.51 160.492 258.257C158.943 259.752 156.664 256.346 155.883 256.204C154.543 257.538 153.125 258.783 151.686 260.004C151.85 259.955 152.017 259.918 152.19 259.902C153.601 259.766 156.912 261.49 155.18 263.189C153.67 264.669 151.925 261.822 150.71 260.827C149.353 261.965 147.99 263.095 146.664 264.269C147.387 264.077 148.085 264.049 148.86 264.282C149.661 264.524 150.954 265.127 150.447 266.207C149.931 267.305 148.378 266.806 147.569 266.458C147.128 266.268 146.244 265.627 145.467 265.357C143.352 267.35 141.52 269.544 140.132 272.129C139.266 273.743 138.608 275.467 138.145 277.239C137.85 278.37 137.267 280.269 137.383 281.741C136.83 278.795 137.835 275.256 138.917 272.623C139.911 270.201 141.399 268.074 143.142 266.16C142.706 264.848 139.028 262.958 141.228 261.739C142.396 261.094 143.592 262.162 143.846 263.294C144.021 264.072 143.754 265.05 143.47 265.806C144.018 265.222 144.588 264.657 145.175 264.111C145.987 263.357 146.817 262.624 147.656 261.9C146.275 260.606 144.969 256.904 146.822 256.297C149.559 255.404 148.239 260.455 148.047 261.402C147.993 261.405 147.951 261.389 147.92 261.354C147.935 261.441 147.953 261.533 147.975 261.627C149.58 260.249 151.21 258.898 152.785 257.488C152.644 257.383 152.418 256.983 152.241 256.771C151.841 256.291 151.459 255.79 151.179 255.229C150.738 254.342 150.312 252.927 151.484 252.405C152.758 251.836 153.363 253.436 153.371 254.39C153.377 255.051 153.196 255.678 153.102 256.325C153.073 256.527 153.185 257.437 152.91 257.045C152.923 257.19 152.925 257.294 152.918 257.368C153.201 257.114 153.482 256.857 153.761 256.597C153.748 256.565 153.738 256.529 153.736 256.488C153.721 256.203 154.008 256.093 154.21 256.177C154.578 255.828 154.942 255.474 155.3 255.114C156.059 254.35 156.829 253.565 157.593 252.763C157.427 252.621 157.494 252.424 157.339 252.273C157.184 252.123 156.879 252.04 156.697 251.9C156.24 251.548 155.86 251.036 155.586 250.532C155.133 249.698 154.548 247.95 155.873 247.552C157.237 247.141 157.929 248.824 158.017 249.876C158.034 250.08 157.88 251.917 157.762 252.584C159.177 251.094 160.568 249.547 161.828 247.974C161.446 247.97 160.364 247.19 160.145 246.977C159.611 246.458 158.763 245.31 159.699 244.702C160.532 244.162 161.558 244.942 161.914 245.701C161.973 245.826 162.178 246.988 162.194 247.51C162.716 246.843 163.214 246.172 163.677 245.498C163.985 245.051 164.274 244.591 164.544 244.122C164.479 244.085 164.418 244.021 164.36 243.942C162.972 243.707 161.202 241.546 162.834 240.793C163.611 240.435 164.453 241.173 164.833 241.777C164.911 241.901 165.037 242.523 165.139 243.013C165.916 241.459 166.51 239.813 166.962 238.126C166.842 238.096 166.739 238.004 166.726 237.846C166.052 237.463 165.52 237.144 165.049 236.406C164.757 235.948 164.231 234.902 165.09 234.647C166.209 234.316 166.91 236.02 167.001 236.859C167.012 236.956 167.011 237.24 167.007 237.499C167.046 237.494 167.085 237.495 167.124 237.501C167.381 236.457 167.587 235.399 167.75 234.339C167.14 234.143 167.036 230.945 167.443 230.49C168.351 229.47 168.991 230.942 168.943 231.721C168.885 232.639 168.468 233.474 167.971 234.215C167.918 234.294 167.933 234.29 167.919 234.18C167.911 234.234 167.893 234.274 167.866 234.303C167.892 234.786 167.941 235.281 167.917 235.708C167.848 236.933 167.704 238.164 167.496 239.373C167.446 239.667 167.388 239.958 167.323 240.247C167.813 239.83 168.475 239.459 168.734 239.344C169.406 239.043 170.441 238.718 171.108 239.226ZM137.273 281.625C137.305 282.018 137.402 282.377 137.591 282.671C137.452 282.335 137.348 281.985 137.273 281.625Z" fill="#C1DEE2"/>
  <g opacity="0.5">
    <path opacity="0.5" fillRule="evenodd" clipRule="evenodd" d="M161.602 273.239C162.709 271.649 164.764 267.609 166.323 267.04C167.327 266.674 167.034 270.461 167.046 271.183C167.095 273.977 166.825 276.754 166.491 279.524C165.891 284.521 163.927 288.97 161.233 293.223C159.847 295.411 158.221 297.626 155.969 298.991C154.932 299.62 153.685 299.725 152.661 300.267C151.469 300.898 152.118 300.388 151.581 301.639C150.835 303.377 150.596 305.619 150.251 307.473C148.666 315.986 144.828 360.983 145.494 369.641C145.553 370.409 144.491 370.592 144.438 369.656C144.156 364.688 146.595 330.287 147.825 319.037C149.055 307.786 150.3 297.847 151.549 293.955C153.063 289.233 155.799 283.555 158.075 279.151C159.133 277.105 160.286 275.13 161.602 273.239Z" fill="#69A1AC"/>
    <path opacity="0.5" fillRule="evenodd" clipRule="evenodd" d="M169.821 328.417C172.703 326.285 175.822 330.308 173.214 332.439C171.773 333.618 170.266 333.199 169.417 332.217C168.867 332.893 168.351 333.6 167.856 334.198C166.347 336.018 164.921 337.881 163.558 339.788C160.726 343.75 158.299 347.936 155.762 352.045C153.258 356.101 150.774 360.177 148.505 364.335C146.582 367.858 144.02 372.003 143.361 375.865C144.36 367.674 148.15 359.801 152.663 352.579C157.139 345.417 162.276 337.596 169.206 331.944C168.501 330.899 168.481 329.407 169.821 328.417Z" fill="#C1DEE2"/>
    <path opacity="0.5" fillRule="evenodd" clipRule="evenodd" d="M115.143 308.44C116.756 308.757 119.39 312.432 120.72 313.833C122.299 315.497 123.732 317.27 125.083 319.128C127.991 323.128 130.592 327.381 132.804 331.815C136.409 339.045 139.297 346.466 141.394 354.339C142.677 359.158 143.508 364.153 144 369.113C144.093 370.048 145.067 377.26 143.664 377.454C142.402 377.629 142.792 371.978 142.731 371.209C142.043 362.537 139.982 354.099 137.116 345.925C136.491 344.144 135.911 341.964 134.913 340.361C134.194 339.207 134.908 339.609 133.644 339.173C132.559 338.797 131.323 338.889 130.211 338.43C127.797 337.432 125.865 335.496 124.17 333.549C120.878 329.764 118.269 325.669 116.909 320.819C116.154 318.13 115.461 315.425 115.076 312.653C114.976 311.937 114.105 308.235 115.143 308.44Z" fill="#69A1AC"/>
    <path opacity="0.5" fillRule="evenodd" clipRule="evenodd" d="M121.506 247.294C127.58 257.907 132.571 269.564 135.794 281.372C137.747 288.526 139.112 295.867 140.469 303.155C142.57 314.44 144.557 325.724 145.122 337.209C145.691 348.76 146.815 362.084 143.061 373.21C144.936 361.914 143.151 349.89 142.835 338.524C142.684 333.098 142.246 327.725 141.672 322.331C141.114 317.098 140.204 311.89 139.356 306.699C138.943 304.17 138.509 301.646 138.068 299.122C137.936 298.37 137.88 296.136 137.406 295.621C136.929 295.104 134.495 294.893 133.731 294.513C132.192 293.748 130.745 292.661 129.464 291.513C127.008 289.312 124.872 286.436 123.186 283.601C119.285 277.041 117.725 269.036 117.804 261.439C117.819 259.964 120.173 244.08 119.228 243.861C119.285 243.794 119.339 243.725 119.389 243.652C120.105 244.86 120.808 246.076 121.506 247.294Z" fill="#89C5CC"/>
    <path opacity="0.5" fillRule="evenodd" clipRule="evenodd" d="M187.063 285.569C187.157 285.433 187.767 284.486 187.459 284.547C188.085 284.423 186.599 285.591 188.157 284.875C187.418 285.579 187.845 286.493 187.854 287.441C187.871 288.979 187.615 290.505 187.328 292.01C186.873 294.389 186.196 296.703 185.214 298.916C183.072 303.739 179.436 308.382 175.119 311.397C172.987 312.886 170.899 313.393 168.468 314.078C166.933 314.511 166.811 315.311 165.996 316.812C164.299 319.939 162.633 323.054 161.137 326.286C159.35 330.145 157.616 334.008 155.98 337.935C150.468 351.163 145.982 364.868 143.626 379.051C143.568 370.693 145.487 362.085 147.908 354.119C149.671 348.314 151.967 342.719 154.415 337.181C155.009 335.839 155.908 334.113 156.16 332.632C156.336 331.594 155.797 330.596 155.55 329.502C154.587 325.245 154.656 320.475 155.501 316.194C156.434 311.474 159.129 309.283 163.69 308.615C165.357 308.37 167.477 308.46 169.006 307.743C170.672 306.963 171.36 304.399 172.307 302.752C174.852 298.33 177.875 294.089 181.347 290.364C182.308 289.332 183.342 288.38 184.439 287.498C185.131 286.941 186.592 286.255 187.063 285.569Z" fill="#89C5CC"/>
    <path opacity="0.5" fillRule="evenodd" clipRule="evenodd" d="M135.928 370.024H152.112C152.839 370.024 153.429 370.619 153.429 371.352C153.429 371.417 153.425 371.481 153.415 371.546L152.164 380.091C151.783 382.696 149.564 384.626 146.951 384.626H141.089C138.475 384.626 136.257 382.696 135.875 380.091L134.624 371.546C134.518 370.82 135.016 370.146 135.736 370.039C135.799 370.029 135.864 370.024 135.928 370.024Z" fill="#C1DEE2"/>
  </g>
  <path fillRule="evenodd" clipRule="evenodd" d="M61.8424 129.38C58.5627 124.645 56.6253 119.728 57.7608 115.626C61.0325 103.809 85.1135 116.968 88.8576 125.23C92.6017 133.492 89.4289 149.055 83.0787 147.542C80.5463 146.939 75.4868 143.621 70.5261 139.099L71.1379 157.111L51.3767 148.697L61.8424 129.38Z" fill="#D4A181"/>
  <path fillRule="evenodd" clipRule="evenodd" d="M71.8607 131.225C69.0988 133.618 65.6719 134.941 62.7174 133.889C57.1057 131.891 54.2556 124.703 55.4813 118.503C55.5244 118.286 55.5728 118.071 55.6263 117.86C49.0712 118.878 43.2761 123.42 35.4216 120.623C24.7354 116.819 23.7666 98.7413 38.6966 104.057C48.8501 107.672 53.6197 110.588 57.5913 113.804C58.8039 112.266 60.4041 111.181 62.2005 110.664C62.6465 110.47 63.2926 110.363 64.1035 110.339C64.6023 110.309 65.11 110.321 65.6232 110.377C68.3639 110.568 72.2261 111.39 76.4483 112.772C77.2367 113.03 78.0081 113.299 78.758 113.574C79.3715 110.536 83.0704 109.217 87.0308 110.627C90.9988 112.04 93.7267 115.658 93.1238 118.708C92.5407 121.657 89.056 122.995 85.2383 121.802C82.9704 121.545 80.1124 120.931 76.9943 119.991C77.1227 120.964 77.091 122.006 76.8712 123.118C76.6771 124.1 76.3302 125.091 75.8615 126.056C75.3129 125.206 74.4967 124.488 73.5881 124.164C71.0465 123.259 68.9596 124.237 68.6223 125.943C68.1942 128.108 69.511 130.254 71.8607 131.225Z" fill="#8F490F"/>
  <path fillRule="evenodd" clipRule="evenodd" d="M30.727 217.565L56.3077 305.714L68.3397 371.898H80.4161L68.3612 217.565H30.727Z" fill="#BA8B72"/>
  <path fillRule="evenodd" clipRule="evenodd" d="M19.2308 217.565C21.0158 263.358 20.3118 288.335 19.9123 292.495C19.5128 296.656 17.2449 324.52 1.79047 373.295H14.351C34.8178 326.504 41.9626 298.639 44.31 292.495C46.6574 286.351 53.5903 261.374 63.712 217.565H19.2308Z" fill="#D4A181"/>
  <path fillRule="evenodd" clipRule="evenodd" d="M30.1777 217.565C36.8316 247.897 48.3401 296.315 64.7031 362.819H82.3663C83.6709 294.559 78.1211 249.633 68.5102 217.565H30.1777Z" fill="#74DCCA"/>
  <path fillRule="evenodd" clipRule="evenodd" d="M19.1413 217.565C20.8895 263.358 16.3591 308.473 2.32574 363.532H21.1713C41.6758 317.44 56.372 272.548 66.4159 217.565H19.1413Z" fill="#81F4E1"/>
  <path fillRule="evenodd" clipRule="evenodd" d="M0 382.373L0.693048 371.199C4.75075 372.386 9.8331 371.921 15.9401 369.803C22.5066 374.454 30.773 377.63 40.7392 379.331C41.4996 379.461 42.0108 380.182 41.881 380.943C41.8726 380.992 41.8616 381.041 41.848 381.089L40.8898 384.468H15.9401H1.3861L0 382.373Z" fill="#191847"/>
  <path fillRule="evenodd" clipRule="evenodd" d="M65.644 382.373L66.337 371.199C70.3947 372.386 75.4771 371.921 81.5841 369.803C88.1506 374.454 96.417 377.63 106.383 379.331C107.144 379.461 107.655 380.182 107.525 380.943C107.517 380.992 107.506 381.041 107.492 381.089L106.534 384.468H81.5841H67.0301L65.644 382.373Z" fill="#191847"/>
  <path fillRule="evenodd" clipRule="evenodd" d="M79.048 174.74L105.47 170.175C110.117 167.248 114.598 165.204 118.913 164.042C120.2 163.947 122.396 164.262 120.029 166.647C117.662 169.032 115.325 171.657 116.251 172.827C117.178 173.996 119.899 173.417 120.955 175.233C121.659 176.444 117.079 176.862 107.213 176.487L87.3768 185.252L79.048 174.74ZM117.28 194.484L128.888 192.464C130.995 188.092 133.127 186.173 135.283 186.709C137.01 186.518 133.423 191.8 136.62 192.1C139.816 192.399 148.008 189.792 149.217 191.075C151.005 192.974 148.767 196.776 146.47 198.356C142.176 201.31 138.847 201.831 130.801 201.546C126.595 201.397 121.946 202.092 116.856 203.631L117.28 194.484Z" fill="#D4A181"/>
  <path fillRule="evenodd" clipRule="evenodd" d="M69.4682 172.87C77.7429 174.911 88.9307 176.343 101.396 173.434L105.045 182.768C96.1734 187.072 84.1425 189.397 74.1941 186.63C66.3542 184.448 63.2322 175.895 69.4682 172.87Z" fill="#65B4E6"/>
  <path fillRule="evenodd" clipRule="evenodd" d="M77.5288 193.027C86.7921 197.515 102.97 199.464 126.063 198.875C130.511 209.812 132.294 217.238 131.411 221.154C111.296 224.291 94.4489 223.585 80.891 220.213C80.5561 226.951 78.8511 232.993 74.9034 237.874C66.7878 247.911 28.5382 226.387 15.0026 224.994C9.25684 200.477 26.3908 195.715 28.0511 181.453C29.8693 165.835 47.8495 145.851 50.0864 146.449L70.4853 151.9C70.233 164.132 74.3797 178.794 77.5288 193.027Z" fill="#65B4E6"/>
  <path fillRule="evenodd" clipRule="evenodd" d="M301.774 183.954C304.968 180.205 307.129 175.611 306.768 170.463C305.728 155.631 285.08 158.894 281.064 166.38C277.048 173.866 277.525 192.855 282.716 194.193C284.786 194.726 289.196 193.419 293.684 190.714L290.867 210.644H307.501L301.774 183.954Z" fill="#B28B67"/>
  <path fillRule="evenodd" clipRule="evenodd" d="M314.02 165.526C314.558 164.993 314.851 164.233 315.104 163.512C315.367 162.762 315.623 162.005 315.798 161.225C316.147 159.666 316.151 157.873 315.039 156.663C314.147 155.692 312.808 155.257 311.573 155.162C310.75 155.099 309.905 155.214 309.117 155.473C308.334 155.731 307.659 156.243 306.901 156.562C306.872 154.882 306.584 153.124 305.732 151.689C304.912 150.309 303.604 149.535 302.115 149.33C300.586 149.12 299.077 149.477 297.709 150.217C297.366 150.402 297.027 150.597 296.702 150.816C296.43 151 296.147 151.222 295.828 151.297C295.473 151.38 295.296 151.175 295.065 150.915C294.794 150.611 294.489 150.343 294.166 150.105C292.737 149.055 290.862 148.623 289.206 149.253C288.443 149.543 287.702 150.036 287.184 150.714C286.723 151.319 286.394 152.279 285.757 152.701C285.487 152.88 285.296 152.643 285.05 152.468C284.681 152.204 284.328 151.914 283.954 151.658C283.429 151.298 282.86 151.028 282.251 150.888C281.36 150.681 280.128 150.73 279.873 151.897C279.777 152.336 279.851 152.805 279.881 153.247C279.924 153.854 279.968 154.46 280.021 155.066C280.061 155.526 280.111 155.971 280.198 156.423C280.245 156.663 280.39 157.112 280.286 157.354C280.157 157.655 279.562 157.484 279.307 157.494C278.804 157.515 278.3 157.603 277.835 157.818C277.475 157.984 277.096 158.229 276.944 158.642C276.851 158.896 276.875 159.156 276.919 159.417C276.972 159.73 276.912 159.896 276.872 160.212C276.197 159.88 273.858 159.141 273.564 160.351C273.466 160.754 273.689 161.209 273.859 161.549C274.158 162.144 274.549 162.689 274.949 163.208C275.784 164.292 276.781 165.227 277.853 166.026C276.597 166.584 276.269 168.232 277.357 169.213C277.837 169.647 278.483 169.743 279.089 169.716C279.31 169.705 279.63 169.62 279.805 169.659C279.898 169.68 279.999 169.759 280.129 169.768C280.984 169.827 281.949 169.621 282.785 169.431C284.274 169.093 285.684 168.387 286.836 167.313C287.131 167.037 287.375 166.878 287.773 166.882C288.121 166.886 288.463 166.981 288.811 166.99C289.732 167.014 290.562 166.564 291.417 166.264C291.47 167.419 291.799 168.691 292.271 169.731C292.657 170.578 293.461 170.701 294.252 170.776C296.781 171.014 299.319 170.748 301.85 170.752C299.399 171.306 296.867 171.534 294.438 172.186C293.339 172.481 294.178 173.221 294.647 173.734C295.421 174.579 295.995 175.625 296.394 176.728C297.593 175.165 299.712 174.135 301.59 174.616C303.664 175.146 305.125 177.951 303.799 179.968C303.029 181.139 301.638 181.591 300.48 182.094C301.383 183.033 301.602 184.419 302.145 185.587C302.413 186.163 302.789 186.814 303.389 187.014C303.61 187.089 303.87 187.095 304.045 187.276C304.262 187.5 304.314 187.75 304.59 187.942C305.694 188.71 307.419 188.651 308.398 187.649C309.283 186.743 309.053 185.309 308.314 184.39C309.49 183.9 311.634 183.269 311.167 181.436C313.716 181.267 319.907 177.131 316.485 174.109C318.363 173.048 320.089 170.454 318.882 168.167C317.953 166.406 315.793 165.619 314.02 165.526Z" fill="#191847"/>
  <path fillRule="evenodd" clipRule="evenodd" d="M337.565 297.28H284.021L277.005 383.222H356.71L337.565 297.28Z" fill="#C5CFD6"/>
  <path fillRule="evenodd" clipRule="evenodd" d="M337.565 297.28H321.097L311.241 383.222H356.71L337.565 297.28Z" fill="black" fillOpacity="0.1"/>
  <path fillRule="evenodd" clipRule="evenodd" d="M222.977 282.556C217.268 279.128 207.69 283.532 207.697 288.435C207.716 303.104 221.103 372.238 221.802 376.608C222.501 380.978 229.988 382.133 230.424 376.622C231.118 367.854 232.407 337.502 231.118 323.453C230.585 317.653 230.012 312.13 229.447 307.203C236.472 319.889 247.336 338.051 262.039 361.691L270.021 358.044C263.753 337.393 258.613 322.814 254.602 314.307C247.734 299.74 241.294 287.266 238.583 282.872C234.319 275.96 226.898 278.372 222.977 282.556Z" fill="#B28B67"/>
  <path fillRule="evenodd" clipRule="evenodd" d="M269.451 346.576L242.055 281.677C235.492 271.119 217.091 283.825 219.329 289.948C224.41 303.85 250.252 348.855 251.766 352.997L269.451 346.576Z" fill="#E5A742"/>
  <path fillRule="evenodd" clipRule="evenodd" d="M272.101 353.395C273.599 354.456 274.545 355.356 274.939 356.095C275.419 356.994 275.929 358.421 276.471 360.376C275.156 361.176 263.331 368.373 240.997 381.965C238.787 380.11 238.623 378.482 240.507 377.081C242.39 375.679 243.947 374.501 245.178 373.547L258.558 357.686C258.816 357.38 259.248 357.267 259.524 357.433C259.528 357.435 259.533 357.438 259.538 357.441L261.684 358.834C263.886 358.395 265.561 357.826 266.711 357.126C267.645 356.558 268.775 355.474 270.102 353.874L270.102 353.874C270.611 353.261 271.475 353.026 272.031 353.35C272.055 353.364 272.079 353.379 272.101 353.395Z" fill="#E4E4E4"/>
  <path fillRule="evenodd" clipRule="evenodd" d="M232.178 373.105C232.953 375.175 233.341 376.723 233.341 377.751C233.341 379.001 233.133 380.825 232.716 383.222C231.266 383.222 218.236 383.222 193.625 383.222C192.609 379.864 193.196 378.051 195.384 377.783C197.573 377.515 199.391 377.274 200.839 377.058L219.008 368.958C219.357 368.802 219.767 368.959 219.923 369.309C219.926 369.315 219.928 369.321 219.931 369.327L221.099 372.16C223.125 373.105 224.771 373.578 226.038 373.578C227.067 373.578 228.489 373.162 230.302 372.331L230.302 372.331C230.998 372.012 231.821 372.317 232.14 373.013C232.153 373.043 232.166 373.074 232.178 373.105Z" fill="#E4E4E4"/>
  <path fillRule="evenodd" clipRule="evenodd" d="M205.777 293.421C205.777 311.835 214.521 354.785 214.527 358.84L233.341 358.854C230.587 320.53 229.61 301.161 230.411 300.748C231.613 300.129 279.656 305.545 294.064 305.545C314.842 305.545 323.437 292.442 324.135 268.17H282.975C274.595 269.067 230.881 277.884 214.647 280.915C207.697 282.213 205.777 288.349 205.777 293.421Z" fill="#FFBA49"/>
  <path fillRule="evenodd" clipRule="evenodd" d="M276.563 224.992L252.506 211.816C248.506 207.065 244.564 203.376 240.681 200.747C239.495 200.252 237.42 199.952 239.36 203.396C241.301 206.84 243.187 210.549 242.198 211.61C241.21 212.671 238.745 211.189 237.565 212.952C236.779 214.127 240.99 215.984 250.199 218.522L267.679 234.527L276.563 224.992ZM238.885 236.108L228.318 230.303C226.836 224.661 225.063 221.823 223.001 221.787C221.417 221.05 224.176 228.179 221.173 227.561C218.17 226.943 210.84 221.492 209.577 222.599C207.709 224.236 209.375 229.264 211.338 231.765C215.007 236.439 218.044 238.038 225.552 240.131C229.477 241.226 233.721 243.42 238.284 246.713L238.885 236.108Z" fill="#997659"/>
  <path fillRule="evenodd" clipRule="evenodd" d="M288.279 222.056C279.852 221.967 268.616 220.188 256.627 212.577L251.918 223.077C260.188 231.285 271.817 238.028 281.984 237.742C289.997 237.517 294.092 227.825 288.279 222.056Z" fill="#457B9D"/>
  <path fillRule="evenodd" clipRule="evenodd" d="M276.933 238.895C267.987 241.126 252.986 238.495 231.93 231.003C226.707 241.808 224.292 249.511 224.686 254.113C242.75 263.548 258.232 267.755 270.987 268.033C270.582 275.601 271.503 282.803 274.597 289.383C280.959 302.911 318.212 290.382 330.738 292.848C338.582 267.374 323.415 257.022 323.403 240.722C323.39 222.872 309.057 195.396 306.948 195.396H287.718C286.657 209.029 281.316 224.053 276.933 238.895Z" fill="#457B9D"/>
</svg>
