<svg width="403" height="301" viewBox="0 0 403 301" fill="none" xmlns="http://www.w3.org/2000/svg">
    <path d="M402.92 263.832H-3.8147e-06V264.033H402.92V263.832Z" fill="#EBEBEB" />
    <path d="M362.547 276.798H335.858V276.999H362.547V276.798Z" fill="#EBEBEB" />
    <path d="M266.91 278.99H259.908V279.191H266.91V278.99Z" fill="#EBEBEB" />
    <path d="M335.052 269.32H319.588V269.521H335.052V269.32Z" fill="#EBEBEB" />
    <path d="M77.0785 270.674H42.2743V270.875H77.0785V270.674Z" fill="#EBEBEB" />
    <path d="M89.3596 270.674H84.2587V270.875H89.3596V270.674Z" fill="#EBEBEB" />
    <path d="M181.435 274.074H105.944V274.276H181.435V274.074Z" fill="#EBEBEB" />
    <path
        d="M190.984 227.891H35.3844C34.1655 227.889 32.9972 227.404 32.136 226.541C31.2748 225.678 30.7911 224.509 30.7911 223.29V4.56105C30.8018 3.34909 31.2901 2.19026 32.1501 1.33626C33.0102 0.482261 34.1724 0.00207616 35.3844 0H190.984C192.204 0 193.375 0.484783 194.238 1.3477C195.101 2.21062 195.585 3.38099 195.585 4.60134V223.29C195.585 224.51 195.101 225.681 194.238 226.544C193.375 227.407 192.204 227.891 190.984 227.891ZM35.3844 0.161169C34.2189 0.163303 33.1018 0.627802 32.2785 1.45271C31.4551 2.27762 30.9926 3.39553 30.9926 4.56105V223.29C30.9926 224.456 31.4551 225.574 32.2785 226.398C33.1018 227.223 34.2189 227.688 35.3844 227.69H190.984C192.15 227.688 193.268 227.224 194.093 226.399C194.918 225.574 195.382 224.456 195.384 223.29V4.56105C195.382 3.39478 194.918 2.27689 194.093 1.45222C193.268 0.62754 192.15 0.163299 190.984 0.161169H35.3844Z"
        fill="#EBEBEB" />
    <path
        d="M365.295 227.891H209.688C208.468 227.889 207.299 227.404 206.436 226.541C205.574 225.679 205.088 224.51 205.086 223.29V4.56105C205.099 3.34836 205.589 2.18953 206.45 1.33575C207.312 0.48198 208.475 0.00205351 209.688 0H365.295C366.506 0.00419399 367.666 0.485316 368.524 1.33909C369.383 2.19286 369.87 3.35048 369.88 4.56105V223.29C369.88 224.508 369.398 225.676 368.538 226.538C367.679 227.401 366.513 227.887 365.295 227.891ZM209.688 0.161169C208.521 0.163299 207.403 0.62754 206.579 1.45222C205.754 2.27689 205.29 3.39478 205.288 4.56105V223.29C205.29 224.456 205.754 225.574 206.579 226.399C207.403 227.224 208.521 227.688 209.688 227.69H365.295C366.462 227.688 367.579 227.224 368.404 226.399C369.229 225.574 369.693 224.456 369.695 223.29V4.56105C369.693 3.39478 369.229 2.27689 368.404 1.45222C367.579 0.62754 366.462 0.163299 365.295 0.161169H209.688Z"
        fill="#EBEBEB" />
    <path d="M119.64 267.14L119.64 133.049H75.4885V267.14H119.64Z" fill="#F0F0F0" />
    <path d="M117.215 176.266V136.965H77.9139V176.266H117.215Z" fill="#F5F5F5" />
    <path d="M117.215 219.096V179.795H77.9139V219.096H117.215Z" fill="#F5F5F5" />
    <path d="M117.215 261.926V222.626H77.9139V261.926H117.215Z" fill="#F5F5F5" />
    <path
        d="M106.263 136.449H88.8332C88.8278 136.985 88.9293 137.517 89.1319 138.013C89.3346 138.509 89.6341 138.96 90.0131 139.339C90.392 139.718 90.8428 140.017 91.339 140.22C91.8351 140.423 92.3667 140.524 92.9026 140.519H102.154C102.691 140.523 103.224 140.421 103.722 140.218C104.22 140.016 104.673 139.717 105.055 139.339C105.437 138.961 105.74 138.511 105.948 138.015C106.155 137.519 106.262 136.987 106.263 136.449Z"
        fill="#E6E6E6" />
    <path
        d="M106.263 179.279H88.8331C88.8331 180.359 89.2616 181.395 90.0245 182.16C90.7875 182.924 91.8225 183.355 92.9026 183.357H102.154C102.691 183.36 103.225 183.257 103.723 183.054C104.221 182.85 104.673 182.551 105.055 182.172C105.437 181.793 105.74 181.342 105.948 180.846C106.155 180.35 106.262 179.817 106.263 179.279Z"
        fill="#E6E6E6" />
    <path
        d="M106.263 222.11H88.8331C88.8331 223.19 89.2616 224.226 90.0245 224.99C90.7875 225.755 91.8225 226.185 92.9026 226.187H102.154C102.691 226.191 103.225 226.088 103.723 225.884C104.221 225.681 104.673 225.381 105.055 225.002C105.437 224.623 105.74 224.173 105.948 223.676C106.155 223.18 106.262 222.648 106.263 222.11Z"
        fill="#E6E6E6" />
    <path d="M141.688 267.14V133.049H119.632V267.14H141.688Z" fill="#F5F5F5" />
    <path d="M338.848 260.536H351.088V159.581H338.848V260.536Z" fill="#F0F0F0" />
    <path d="M231.856 263.832H349.396V260.536H231.856V263.832Z" fill="#F0F0F0" />
    <path d="M338.848 159.581H230.156V260.536H338.848V159.581Z" fill="#FAFAFA" />
    <path
        d="M251.422 218.576H317.549C320.672 218.576 323.666 217.336 325.874 215.128C328.082 212.92 329.323 209.925 329.323 206.803C329.323 203.68 328.082 200.686 325.874 198.478C323.666 196.27 320.672 195.029 317.549 195.029H251.422C248.3 195.029 245.305 196.27 243.097 198.478C240.889 200.686 239.649 203.68 239.649 206.803C239.649 209.925 240.889 212.92 243.097 215.128C245.305 217.336 248.3 218.576 251.422 218.576ZM317.565 195.819C319.008 195.819 320.436 196.103 321.769 196.655C323.101 197.207 324.312 198.016 325.332 199.036C326.352 200.056 327.161 201.267 327.713 202.599C328.265 203.932 328.549 205.36 328.549 206.803C328.549 208.245 328.265 209.673 327.713 211.006C327.161 212.338 326.352 213.549 325.332 214.569C324.312 215.589 323.101 216.398 321.769 216.95C320.436 217.502 319.008 217.786 317.565 217.786H251.422C248.509 217.786 245.715 216.629 243.655 214.569C241.596 212.509 240.438 209.716 240.438 206.803C240.438 203.89 241.596 201.096 243.655 199.036C245.715 196.976 248.509 195.819 251.422 195.819H317.565Z"
        fill="#F0F0F0" />
    <path
        d="M251.422 247.868H317.549C320.672 247.868 323.666 246.628 325.874 244.42C328.082 242.212 329.323 239.218 329.323 236.095C329.323 232.973 328.082 229.978 325.874 227.77C323.666 225.562 320.672 224.322 317.549 224.322H251.422C248.3 224.322 245.305 225.562 243.097 227.77C240.889 229.978 239.649 232.973 239.649 236.095C239.649 239.218 240.889 242.212 243.097 244.42C245.305 246.628 248.3 247.868 251.422 247.868ZM317.549 225.112C319.016 225.072 320.476 225.326 321.843 225.86C323.21 226.394 324.456 227.197 325.507 228.22C326.559 229.244 327.395 230.467 327.966 231.819C328.536 233.171 328.83 234.624 328.83 236.091C328.83 237.559 328.536 239.011 327.966 240.363C327.395 241.715 326.559 242.939 325.507 243.962C324.456 244.986 323.21 245.788 321.843 246.322C320.476 246.856 319.016 247.11 317.549 247.071H251.422C249.955 247.11 248.495 246.856 247.128 246.322C245.761 245.788 244.515 244.986 243.464 243.962C242.412 242.939 241.576 241.715 241.006 240.363C240.435 239.011 240.141 237.559 240.141 236.091C240.141 234.624 240.435 233.171 241.006 231.819C241.576 230.467 242.412 229.244 243.464 228.22C244.515 227.197 245.761 226.394 247.128 225.86C248.495 225.326 249.955 225.072 251.422 225.112H317.549Z"
        fill="#F0F0F0" />
    <path
        d="M274.525 204.264H294.478C295.129 204.262 295.753 204.002 296.214 203.542C296.674 203.081 296.934 202.458 296.936 201.806C296.934 201.155 296.674 200.531 296.214 200.071C295.753 199.61 295.129 199.351 294.478 199.349H274.525C273.874 199.351 273.25 199.61 272.79 200.071C272.329 200.531 272.07 201.155 272.068 201.806C272.07 202.458 272.329 203.081 272.79 203.542C273.25 204.002 273.874 204.262 274.525 204.264Z"
        fill="#EBEBEB" />
    <path
        d="M251.422 189.284H317.549C320.672 189.284 323.666 188.043 325.874 185.835C328.082 183.627 329.323 180.633 329.323 177.51C329.323 174.388 328.082 171.393 325.874 169.185C323.666 166.977 320.672 165.737 317.549 165.737H251.422C248.3 165.737 245.305 166.977 243.097 169.185C240.889 171.393 239.649 174.388 239.649 177.51C239.649 180.633 240.889 183.627 243.097 185.835C245.305 188.043 248.3 189.284 251.422 189.284ZM317.549 166.527C320.462 166.527 323.256 167.684 325.316 169.744C327.376 171.803 328.533 174.597 328.533 177.51C328.533 180.423 327.376 183.217 325.316 185.277C323.256 187.337 320.462 188.494 317.549 188.494H251.422C248.509 188.494 245.715 187.337 243.655 185.277C241.596 183.217 240.438 180.423 240.438 177.51C240.438 174.597 241.596 171.803 243.655 169.744C245.715 167.684 248.509 166.527 251.422 166.527H317.549Z"
        fill="#F0F0F0" />
    <path
        d="M274.525 174.972H294.478C295.129 174.97 295.753 174.71 296.214 174.25C296.674 173.789 296.934 173.165 296.936 172.514C296.925 171.869 296.662 171.255 296.202 170.802C295.742 170.35 295.123 170.097 294.478 170.097H274.525C273.881 170.097 273.261 170.35 272.802 170.802C272.342 171.255 272.078 171.869 272.068 172.514C272.07 173.165 272.329 173.789 272.79 174.25C273.25 174.71 273.874 174.97 274.525 174.972Z"
        fill="#EBEBEB" />
    <path
        d="M274.525 233.548H294.478C295.123 233.549 295.742 233.295 296.202 232.843C296.662 232.391 296.925 231.776 296.936 231.131C296.923 230.487 296.659 229.873 296.2 229.421C295.74 228.969 295.122 228.715 294.478 228.713H274.525C273.881 228.715 273.263 228.969 272.804 229.421C272.345 229.873 272.08 230.487 272.068 231.131C272.078 231.776 272.342 232.391 272.802 232.843C273.261 233.295 273.881 233.549 274.525 233.548Z"
        fill="#EBEBEB" />
    <path d="M227.916 159.581H338.839V154.447H227.916V159.581Z" fill="#F0F0F0" />
    <path d="M353.49 154.455H338.848V159.589H353.49V154.455Z" fill="#E6E6E6" />
    <path
        d="M259.48 73.6455C261.954 74.8865 268.659 73.5488 266.427 78.0857C265.141 80.4623 263.604 82.6938 261.842 84.742C259.343 87.8283 259.819 91.1887 262.768 92.3813C263.401 92.5982 263.96 92.9893 264.38 93.5095C265.742 95.4596 262.535 98.0705 260.955 100.021C259.376 101.971 258.747 103.889 259.908 105.339C261.197 106.951 263.872 106.347 266 106.83C271.109 107.998 265.855 115.05 266.395 118.668C266.765 121.15 268.812 121.843 271.512 122.189C273.744 122.479 276.717 122.681 276.838 124.961C276.951 126.944 274.372 129.184 273.695 131.263C273.374 132.158 273.253 133.112 273.339 134.058C273.425 135.005 273.717 135.921 274.195 136.743C274.649 137.435 275.241 138.027 275.934 138.479C276.628 138.931 277.408 139.234 278.224 139.37C280.755 139.902 284.582 139.37 284.768 142.206C284.848 143.48 283.962 144.624 284.574 145.784C284.914 146.274 285.355 146.684 285.869 146.986C286.382 147.288 286.955 147.474 287.548 147.533C289.971 147.903 292.44 147.859 294.849 147.404C297.822 146.856 302.214 144.237 300.602 141.715C300.325 141.353 299.978 141.05 299.582 140.823C299.187 140.596 298.75 140.45 298.298 140.393C297.589 140.248 295.51 140.474 295.244 139.99C294.978 139.507 295.695 137.645 295.719 136.976C295.793 135.119 295.5 133.265 294.857 131.521C294.036 129.24 292.727 127.167 291.021 125.445C290.312 124.728 289.192 124.204 289.047 123.164C288.902 122.125 289.554 120.981 290.28 119.941C291.416 118.329 293.181 116.814 293.817 115.106C294.817 112.414 292.391 111.56 290.143 110.948C288.112 110.392 285.437 109.683 286.113 107.217C286.613 105.436 288.861 103.993 289.53 102.237C290.441 99.9079 288.233 99.8192 286.661 99.0134C284.607 97.9335 284.091 95.9995 284.832 93.5578C286.065 89.5286 293.455 83.8314 289.667 81.2124C288.708 80.5435 287.814 80.3259 287.25 79.3186C286.686 78.3113 286.541 76.9011 285.735 75.9502C284.461 74.4111 281.826 74.1532 280.456 72.7269C277.628 69.7936 283.728 64.596 278.16 63.355C276.984 63.2036 275.871 62.7388 274.936 62.0092C274.429 61.5338 274.01 59.2371 273.438 59.076C270.883 58.3668 266.282 63.3227 264.831 64.8458C263.066 66.6831 256.547 72.1628 259.48 73.6455Z"
        fill="#E0E0E0" />
    <path
        d="M303.31 141.997C301.795 139.185 295.163 136.356 299.563 133.133C301.936 131.518 304.489 130.185 307.17 129.16C311.022 127.548 312.392 123.841 310.442 120.771C309.993 120.126 309.716 119.377 309.636 118.595C309.475 115.759 313.705 115.082 316.139 114.059C318.573 113.035 320.168 111.472 319.902 109.264C319.628 106.846 316.953 105.767 315.333 103.953C311.449 99.5857 319.862 95.629 321.321 91.5837C322.32 88.8116 320.918 86.8535 318.694 84.7986C316.88 83.1144 314.358 81.0675 315.47 78.65C316.437 76.5548 319.91 75.8618 321.619 74.1534C322.407 73.381 323.034 72.4596 323.463 71.4428C323.891 70.426 324.114 69.3341 324.117 68.2305C324.078 66.297 323.316 64.4481 321.981 63.049C320.031 60.9296 316.34 59.1165 317.718 56.0784C318.331 54.7246 319.725 54.1202 319.806 52.5327C319.781 51.8453 319.619 51.1698 319.33 50.5457C319.041 49.9216 318.63 49.3615 318.121 48.8984C316.234 47.0489 314.028 45.5556 311.61 44.4905C308.693 43.2011 303.415 43.1608 303.487 46.7468C303.578 47.8026 304.047 48.79 304.809 49.527C305.365 50.1233 307.315 51.1789 307.291 51.8397C307.267 52.5005 305.679 53.9591 305.252 54.6279C304.184 56.5286 303.456 58.6012 303.101 60.7523C302.602 63.604 302.648 66.5243 303.238 69.3587C303.471 70.5272 304.188 71.7762 303.753 72.9205C303.318 74.0648 302.142 74.8384 300.957 75.4267C299.096 76.3614 296.718 76.8369 295.244 78.1907C292.915 80.3262 294.599 82.7114 296.259 84.7341C297.758 86.5634 299.732 88.9486 297.806 91.0519C296.412 92.5669 293.648 92.6636 292.165 94.0254C290.118 95.8547 292.012 97.3133 292.971 99.1506C294.196 101.568 293.624 103.824 291.658 105.863C288.434 109.232 278.845 110.473 280.787 115.533C281.278 116.815 281.939 117.596 281.915 118.982C281.891 120.368 281.254 121.883 281.448 123.374C281.746 125.743 283.93 127.645 284.381 129.958C285.3 134.72 277.128 136.259 281.383 140.982C282.377 141.913 283.115 143.084 283.527 144.382C283.728 145.188 282.858 147.791 283.277 148.315C285.154 150.628 291.867 148.42 293.962 147.751C296.436 146.905 305.123 145.341 303.31 141.997Z"
        fill="#F5F5F5" />
    <path
        d="M320.297 135.655C320.297 135.655 319.491 154.455 288.724 154.455C257.957 154.455 257.152 135.655 257.152 135.655H320.297Z"
        fill="#F0F0F0" />
    <path
        d="M201.46 300.224C287.751 300.224 357.704 296.14 357.704 291.102C357.704 286.064 287.751 281.979 201.46 281.979C115.169 281.979 45.2157 286.064 45.2157 291.102C45.2157 296.14 115.169 300.224 201.46 300.224Z"
        fill="#F5F5F5" />
    <g opacity="0.2">
        <path opacity="0.2" d="M290.691 284.357L239.367 189.493L188.043 284.357H290.691Z" fill="#81F4E1" />
        <path opacity="0.2" d="M290.691 123.874L239.367 218.729L188.044 123.874H290.691Z" fill="#81F4E1" />
    </g>
    <path
        d="M248.771 179.88L241.26 193.756C241.076 194.098 240.803 194.383 240.469 194.582C240.136 194.781 239.755 194.886 239.367 194.886C238.978 194.886 238.597 194.781 238.264 194.582C237.931 194.383 237.657 194.098 237.473 193.756L229.963 179.88C229.285 178.625 228.946 177.217 228.977 175.792C229.008 174.367 229.409 172.974 230.14 171.751C230.871 170.527 231.908 169.515 233.148 168.812C234.388 168.11 235.79 167.741 237.215 167.744H241.559C242.981 167.748 244.377 168.122 245.612 168.827C246.846 169.532 247.877 170.546 248.604 171.768C249.33 172.99 249.727 174.38 249.757 175.802C249.786 177.223 249.446 178.628 248.771 179.88Z"
        fill="#81F4E1" />
    <path
        d="M240.18 260.407L263.51 269.997C263.965 270.189 264.34 270.531 264.572 270.967C264.805 271.403 264.88 271.906 264.786 272.391C264.691 272.876 264.432 273.313 264.053 273.63C263.674 273.947 263.198 274.124 262.704 274.131H216.07C215.576 274.124 215.099 273.947 214.72 273.63C214.341 273.313 214.083 272.876 213.988 272.391C213.893 271.906 213.969 271.403 214.201 270.967C214.433 270.531 214.809 270.189 215.264 269.997L238.529 260.407C238.79 260.297 239.071 260.241 239.355 260.241C239.638 260.241 239.919 260.297 240.18 260.407Z"
        fill="#81F4E1" />
    <path
        d="M239.367 242.163C241.018 242.163 242.356 240.824 242.356 239.173C242.356 237.522 241.018 236.184 239.367 236.184C237.716 236.184 236.377 237.522 236.377 239.173C236.377 240.824 237.716 242.163 239.367 242.163Z"
        fill="#81F4E1" />
    <path
        d="M239.367 209.486C240.217 209.486 240.906 208.797 240.906 207.947C240.906 207.097 240.217 206.408 239.367 206.408C238.517 206.408 237.828 207.097 237.828 207.947C237.828 208.797 238.517 209.486 239.367 209.486Z"
        fill="#81F4E1" />
    <path
        d="M239.367 224.58C240.332 224.58 241.115 223.797 241.115 222.831C241.115 221.865 240.332 221.082 239.367 221.082C238.401 221.082 237.618 221.865 237.618 222.831C237.618 223.797 238.401 224.58 239.367 224.58Z"
        fill="#81F4E1" />
    <path
        d="M290.433 279.675H188.301C187.061 279.679 185.873 280.174 184.998 281.051C184.122 281.929 183.629 283.117 183.627 284.357C183.631 285.595 184.125 286.781 185 287.657C185.876 288.533 187.062 289.026 188.301 289.031H290.433C291.671 289.026 292.857 288.533 293.733 287.657C294.609 286.781 295.102 285.595 295.107 284.357C295.105 283.117 294.612 281.929 293.736 281.051C292.86 280.174 291.673 279.679 290.433 279.675Z"
        fill="#81F4E1" />
    <path
        d="M290.433 119.2H188.301C187.062 119.204 185.876 119.698 185 120.573C184.125 121.449 183.631 122.635 183.627 123.874C183.631 125.112 184.125 126.298 185 127.174C185.876 128.05 187.062 128.543 188.301 128.548H290.433C291.671 128.543 292.857 128.05 293.733 127.174C294.609 126.298 295.102 125.112 295.107 123.874C295.102 122.635 294.609 121.449 293.733 120.573C292.857 119.698 291.671 119.204 290.433 119.2Z"
        fill="#81F4E1" />
    <path d="M156.841 282.592L151.159 280.746L154.689 267.345L160.37 269.191L156.841 282.592Z" fill="#FFA8A7" />
    <path
        d="M151.071 279.989L157.453 282.06C157.561 282.092 157.652 282.164 157.707 282.262C157.763 282.36 157.779 282.475 157.751 282.584L156.422 287.741C156.336 288.007 156.15 288.228 155.902 288.356C155.654 288.485 155.366 288.51 155.1 288.426C152.892 287.669 151.877 287.193 149.064 286.283C147.332 285.719 141.642 284.252 139.257 283.478C136.872 282.705 137.702 280.368 138.782 280.481C143.617 280.988 147.968 280.763 149.983 280.021C150.332 279.89 150.715 279.879 151.071 279.989Z"
        fill="#FFBA49" />
    <path opacity="0.2" d="M160.37 269.199L154.689 267.345L152.868 274.259L158.557 276.105L160.37 269.199Z"
        fill="black" />
    <path
        d="M175.899 133.544C175.899 133.544 165.705 180.726 163.311 197.689C160.692 216.263 150.853 272.044 150.853 272.044L161.402 274.961C161.402 274.961 176.02 220.865 180.29 202.806C184.924 183.2 197.213 133.504 197.213 133.504L175.899 133.544Z"
        fill="#457B9D" />
    <path opacity="0.3"
        d="M188.502 149.016C184.473 158.154 182.482 178.026 184.046 187.172C186.898 175.447 190.331 161.506 192.982 150.781C192.088 147.67 190.605 144.245 188.502 149.016Z"
        fill="black" />
    <path d="M161.667 275.17L150.37 272.06L150.595 267.458L163.311 271.85L161.667 275.17Z" fill="#263238" />
    <path
        d="M148.734 280.327C149.259 280.481 149.8 280.578 150.345 280.617C150.372 280.619 150.399 280.613 150.423 280.6C150.447 280.587 150.467 280.568 150.48 280.545C150.493 280.521 150.5 280.494 150.499 280.467C150.498 280.44 150.489 280.414 150.474 280.392C150.329 280.207 149.08 278.587 148.299 278.635C148.209 278.639 148.121 278.667 148.045 278.715C147.969 278.763 147.906 278.83 147.863 278.909C147.783 279.026 147.734 279.162 147.723 279.303C147.712 279.445 147.738 279.587 147.799 279.715C148.028 280.024 148.359 280.241 148.734 280.327ZM150.015 280.327C148.935 280.198 148.194 279.924 148.017 279.578C147.979 279.496 147.965 279.406 147.975 279.316C147.985 279.227 148.019 279.142 148.073 279.07C148.093 279.032 148.123 278.999 148.16 278.975C148.197 278.951 148.239 278.936 148.283 278.933C148.702 278.885 149.491 279.675 150.015 280.303V280.327Z"
        fill="#263238" />
    <path
        d="M150.289 280.609H150.353C150.377 280.605 150.399 280.594 150.417 280.578C150.435 280.563 150.449 280.543 150.458 280.521C150.458 280.456 151.143 278.861 150.748 278.103C150.699 278.008 150.628 277.926 150.542 277.863C150.455 277.8 150.355 277.758 150.249 277.741C150.134 277.706 150.012 277.712 149.901 277.755C149.789 277.799 149.696 277.879 149.636 277.982C149.306 278.563 149.765 280.021 150.225 280.545L150.289 280.609ZM150.289 278.055C150.343 278.071 150.393 278.097 150.436 278.133C150.479 278.169 150.514 278.214 150.539 278.264C150.674 278.913 150.598 279.588 150.321 280.19C149.931 279.587 149.784 278.859 149.91 278.152C149.91 278.079 150.023 277.999 150.225 278.039L150.289 278.055Z"
        fill="#263238" />
    <path
        d="M186.745 88.7471C186.439 89.4724 186.181 90.0204 185.899 90.6328C185.617 91.2452 185.311 91.8093 185.013 92.3895C184.416 93.558 183.788 94.6942 183.135 95.8305C181.817 98.112 180.364 100.313 178.784 102.422C177.167 104.603 175.374 106.649 173.425 108.539C171.348 110.583 168.993 112.325 166.43 113.712L166.229 113.817C165.903 113.985 165.556 114.11 165.197 114.188C163.362 114.569 161.461 114.495 159.661 113.97C158.166 113.522 156.743 112.86 155.438 112.004C153.249 110.532 151.284 108.751 149.604 106.717C148.043 104.863 146.624 102.894 145.357 100.827C144.107 98.7954 142.995 96.682 142.029 94.5008C141.781 93.9239 141.748 93.2767 141.938 92.6779C142.128 92.0791 142.528 91.5688 143.063 91.2407C143.599 90.9126 144.235 90.7887 144.855 90.8917C145.475 90.9946 146.036 91.3176 146.437 91.8013L146.518 91.898C147.847 93.5096 149.29 95.2261 150.74 96.7894C152.154 98.346 153.655 99.8204 155.237 101.205C156.635 102.473 158.19 103.556 159.863 104.429C160.488 104.75 161.159 104.973 161.853 105.09C162.241 105.162 162.642 105.128 163.013 104.993L161.78 105.468C163.446 104.345 164.964 103.019 166.301 101.52C167.756 99.8854 169.102 98.1572 170.33 96.3462C171.604 94.4928 172.812 92.5507 173.949 90.5522C174.529 89.561 175.085 88.5537 175.609 87.5303L176.414 86.0073C176.664 85.5157 176.938 84.9516 177.132 84.5568L177.18 84.4439C177.767 83.2043 178.818 82.2445 180.105 81.771C181.393 81.2974 182.815 81.3478 184.065 81.9115C185.316 82.4751 186.296 83.5069 186.794 84.7851C187.292 86.0633 187.269 87.4859 186.729 88.7471H186.745Z"
        fill="#263238" />
    <path opacity="0.3"
        d="M173.57 99.6905C176.1 92.9698 181.475 92.857 183.804 94.6379C183.635 94.9522 183.457 95.2665 183.28 95.5807C182.016 97.7808 180.631 99.9088 179.13 101.955C177.59 104.06 175.896 106.048 174.061 107.902C173.481 108.474 172.885 109.038 172.264 109.586C172.051 106.234 172.494 102.873 173.57 99.6905Z"
        fill="black" />
    <path
        d="M141.828 94.9199L136.59 95.1133L137.895 89.5127C139.699 89.6022 141.488 89.8721 143.238 90.3185C143.556 90.415 143.848 90.5851 144.088 90.8151C144.329 91.0451 144.512 91.3285 144.623 91.6424C144.733 91.9563 144.768 92.2918 144.725 92.6218C144.682 92.9518 144.562 93.267 144.374 93.5419C144.091 93.9584 143.712 94.3009 143.269 94.5407C142.826 94.7805 142.331 94.9105 141.828 94.9199Z"
        fill="#FFA8A7" />
    <path
        d="M144.761 90.1898C144.247 89.7821 143.658 89.4783 143.028 89.2953C142.593 91.5839 139.805 95.4438 139.805 95.4438H141.989C142.27 95.4447 142.548 95.3837 142.802 95.2654C143.057 95.147 143.283 94.9741 143.464 94.7589L144.995 92.9216C145.162 92.7285 145.29 92.5038 145.369 92.2607C145.448 92.0176 145.478 91.761 145.456 91.5062C145.434 91.2514 145.361 91.0036 145.242 90.7775C145.123 90.5514 144.959 90.3515 144.761 90.1898Z"
        fill="#FFBA49" />
    <path d="M132.577 92.5346L134.043 88.5859L137.879 89.5207L136.574 95.1132L132.577 92.5346Z" fill="#FFA8A7" />
    <path d="M198.438 285.203H192.467L192.257 271.366H198.229L198.438 285.203Z" fill="#FFA8A7" />
    <path
        d="M192.152 284.51H198.865C198.921 284.508 198.977 284.517 199.03 284.536C199.082 284.556 199.131 284.585 199.172 284.623C199.213 284.662 199.246 284.708 199.27 284.759C199.293 284.81 199.306 284.865 199.308 284.921L199.631 290.231C199.631 290.511 199.521 290.779 199.325 290.978C199.129 291.177 198.862 291.291 198.583 291.295C196.246 291.255 195.134 291.118 192.136 291.118C190.323 291.118 184.255 291.303 181.749 291.303C179.243 291.303 179.331 288.821 180.371 288.595C185.142 287.596 189.396 286.178 191.081 284.881C191.384 284.636 191.763 284.504 192.152 284.51Z"
        fill="#FFBA49" />
    <path opacity="0.2" d="M198.237 271.375H192.257L192.37 278.506H198.341L198.237 271.375Z" fill="black" />
    <path
        d="M187.551 133.544C187.551 133.544 185.271 185.448 186.238 202.556C187.301 221.284 189.525 276.782 189.525 276.782H200.469C200.469 276.782 203.225 222.791 203.886 204.256C204.603 184.11 207.85 133.544 207.85 133.544H187.551Z"
        fill="#457B9D" />
    <path d="M200.912 276.782H189.09L188.188 272.382L201.234 273.035L200.912 276.782Z" fill="#263238" />
    <path
        d="M190.033 285.549C190.576 285.536 191.116 285.465 191.645 285.34C191.67 285.331 191.693 285.316 191.712 285.297C191.73 285.277 191.743 285.253 191.75 285.227C191.753 285.201 191.749 285.175 191.739 285.151C191.729 285.127 191.713 285.106 191.693 285.09C191.5 284.953 189.807 283.801 189.074 284.091C188.993 284.124 188.921 284.176 188.864 284.244C188.808 284.311 188.769 284.391 188.752 284.478C188.715 284.608 188.712 284.747 188.743 284.879C188.774 285.012 188.838 285.134 188.929 285.235C189.246 285.472 189.639 285.584 190.033 285.549ZM191.242 285.138C190.17 285.348 189.388 285.316 189.106 285.042C189.048 284.974 189.009 284.892 188.992 284.805C188.975 284.717 188.981 284.627 189.01 284.542C189.016 284.499 189.033 284.458 189.06 284.424C189.087 284.39 189.122 284.364 189.163 284.349C189.558 284.195 190.549 284.695 191.242 285.138Z"
        fill="#263238" />
    <path
        d="M191.596 285.34C191.617 285.347 191.64 285.347 191.661 285.34C191.681 285.328 191.698 285.312 191.711 285.292C191.724 285.273 191.731 285.25 191.733 285.227C191.733 285.155 191.87 283.438 191.266 282.858C191.189 282.783 191.096 282.726 190.994 282.693C190.892 282.659 190.784 282.65 190.678 282.665C190.56 282.669 190.447 282.713 190.356 282.789C190.266 282.864 190.203 282.968 190.178 283.084C190.033 283.736 190.928 284.985 191.524 285.34C191.547 285.347 191.573 285.347 191.596 285.34ZM190.791 282.922C190.846 282.921 190.901 282.931 190.952 282.952C191.004 282.973 191.05 283.004 191.089 283.043C191.422 283.618 191.56 284.285 191.484 284.945C190.968 284.502 190.372 283.551 190.46 283.124C190.46 283.043 190.525 282.947 190.726 282.922H190.791Z"
        fill="#263238" />
    <path
        d="M210.84 85.3708C210.929 84.867 210.916 84.3504 210.801 83.8518C210.686 83.3532 210.472 82.883 210.171 82.4692C209.87 82.0554 209.489 81.7065 209.05 81.4436C208.611 81.1806 208.123 81.0089 207.616 80.9387H207.552C205.626 80.6566 203.209 80.3665 200.839 80.2537C196.317 79.9957 191.783 79.9957 187.261 80.2537C185.174 80.4471 183.135 80.7936 181.507 81.1079H181.443C180.425 81.3135 179.483 81.7928 178.717 82.4943C177.952 83.1958 177.393 84.0928 177.099 85.0888C175.149 91.6564 172.82 105.066 175.866 133.536H207.818C208.044 130.683 207.407 121.4 207.874 109.578C208.341 101.454 209.332 93.3678 210.84 85.3708Z"
        fill="#263238" />
    <path opacity="0.3"
        d="M210.534 87.1275C209.873 90.9472 209.059 96.1449 208.495 101.633C208.495 101.633 205.578 95.9112 205.046 91.0197C204.514 86.1283 208.712 85.7576 210.534 87.1275Z"
        fill="black" />
    <g opacity="0.2">
        <path opacity="0.2"
            d="M189.106 87.885C189.04 87.8819 188.977 87.8574 188.926 87.8151C188.874 87.7728 188.838 87.715 188.823 87.6504C188.807 87.5859 188.813 87.5181 188.84 87.4572C188.866 87.3963 188.912 87.3457 188.969 87.3129L198.93 82.1474C199.001 82.113 199.082 82.1071 199.157 82.1311C199.232 82.1552 199.295 82.2072 199.333 82.2764C199.37 82.3481 199.377 82.4314 199.353 82.5084C199.328 82.5853 199.275 82.6496 199.204 82.6874L189.243 87.8367C189.201 87.8615 189.155 87.8779 189.106 87.885Z"
            fill="white" />
        <path opacity="0.2"
            d="M193.667 88.3523C193.628 88.354 193.589 88.3469 193.553 88.3315C193.516 88.3162 193.484 88.293 193.458 88.2637L187.994 82.8404C187.941 82.7823 187.911 82.706 187.911 82.6268C187.911 82.5476 187.941 82.4714 187.994 82.4133C188.051 82.3577 188.128 82.3265 188.208 82.3265C188.288 82.3265 188.364 82.3577 188.421 82.4133L193.877 87.8446C193.933 87.9018 193.964 87.9784 193.964 88.0582C193.964 88.1379 193.933 88.2146 193.877 88.2717C193.849 88.2984 193.816 88.3193 193.78 88.3331C193.744 88.347 193.706 88.3535 193.667 88.3523Z"
            fill="white" />
        <path opacity="0.2"
            d="M200.864 80.2455C196.344 79.9875 191.813 79.9875 187.293 80.2455H187.068C186.958 80.6602 186.932 81.0926 186.991 81.5174C187.051 81.9423 187.195 82.3509 187.414 82.7195C188.172 83.9282 189.759 84.6051 192.144 84.7341H193.039C199.486 84.7341 201.976 80.8177 202.08 80.6485L202.306 80.2858L200.864 80.2455Z"
            fill="white" />
    </g>
    <path
        d="M187.938 80.1973C191.886 79.2625 192.579 76.8208 192.314 74.1374C192.251 73.4653 192.146 72.7978 191.999 72.1389L196.947 68.0291L200.581 65.0153C199.574 69.391 198.438 77.3607 201.387 80.2779C201.387 80.2779 198.97 84.3071 192.177 83.9525C186.479 83.6382 187.938 80.1973 187.938 80.1973Z"
        fill="#FEB6AC" />
    <path opacity="0.2"
        d="M191.999 72.1388C192.146 72.7977 192.251 73.4652 192.314 74.1373C194.159 73.7666 196.625 71.8004 196.883 69.9147C196.973 69.2904 196.995 68.6581 196.947 68.0291L191.999 72.1388Z"
        fill="black" />
    <path
        d="M189.372 51.1709C186.689 52.7826 187.116 56.8118 186.391 59.6967C188.099 59.8659 190.791 56.8279 190.791 56.8279L192.402 52.2104L189.372 51.1709Z"
        fill="#263238" />
    <path
        d="M203.644 59.2776C201.927 64.9668 201.226 68.3755 197.584 70.7527C196.413 71.5361 195.049 71.9842 193.642 72.0487C192.234 72.1132 190.835 71.7915 189.597 71.1186C188.359 70.4456 187.329 69.4469 186.617 68.2305C185.906 67.0142 185.54 65.6264 185.561 64.2174C185.561 58.7941 188.349 50.3972 194.57 49.2368C195.911 48.9503 197.304 49.0215 198.608 49.4433C199.913 49.8651 201.084 50.6227 202.003 51.64C202.922 52.6573 203.558 53.8985 203.846 55.2391C204.134 56.5797 204.064 57.9725 203.644 59.2776Z"
        fill="#FEB6AC" />
    <path
        d="M198.285 64.1045C202.314 59.4307 197.278 57.126 201.395 53.8784C196.762 54.096 189.131 53.7656 187.769 50.5906C186.407 47.4156 190.597 43.1124 194.086 42.7095C198.116 42.2421 197.245 47.2303 197.245 47.2303C197.245 47.2303 212.661 46.2713 207.77 52.8711C211.476 52.6455 210.453 58.641 204.006 63.7016C202.387 64.2415 198.285 64.1045 198.285 64.1045Z"
        fill="#263238" />
    <path
        d="M206.843 52.9518C206.843 52.9518 210.018 52.009 209.913 49.4948C211.057 50.2845 211.178 52.6859 206.843 52.9518Z"
        fill="#263238" />
    <path
        d="M204.587 65.2166C203.659 66.3622 202.363 67.151 200.92 67.4488C199.091 67.7792 198.664 66.0869 199.574 64.4349C200.38 62.9522 202.338 60.994 203.982 61.405C205.626 61.816 205.755 63.7741 204.587 65.2166Z"
        fill="#FEB6AC" />
    <path
        d="M194.465 59.1325C194.352 59.5999 194.014 59.9383 193.7 59.8658C193.385 59.7933 193.232 59.3742 193.345 58.9069C193.458 58.4395 193.796 58.101 194.103 58.1655C194.409 58.2299 194.578 58.657 194.465 59.1325Z"
        fill="#263238" />
    <path
        d="M189.122 58.0608C189.01 58.5282 188.671 58.8667 188.365 58.8022C188.059 58.7377 187.89 58.3106 188.002 57.8432C188.115 57.3759 188.454 57.0374 188.76 57.1019C189.066 57.1663 189.235 57.5934 189.122 58.0608Z"
        fill="#263238" />
    <path
        d="M190.766 58.6329C189.857 59.9596 188.773 61.1576 187.543 62.1947C187.817 62.4901 188.152 62.7218 188.525 62.8735C188.899 63.0253 189.3 63.0934 189.703 63.0731L190.766 58.6329Z"
        fill="#FE9E9C" />
    <path
        d="M191.347 64.717C191.904 64.7693 192.467 64.7078 193 64.536C193.534 64.3642 194.027 64.0858 194.449 63.7177C194.463 63.7056 194.474 63.6907 194.481 63.6741C194.489 63.6574 194.493 63.6393 194.493 63.621C194.493 63.6027 194.489 63.5846 194.481 63.568C194.474 63.5513 194.463 63.5364 194.449 63.5243C194.422 63.4982 194.386 63.4836 194.348 63.4836C194.311 63.4836 194.275 63.4982 194.248 63.5243C193.784 63.9181 193.236 64.1994 192.646 64.3462C192.057 64.493 191.441 64.5013 190.847 64.3705C190.829 64.367 190.81 64.3672 190.792 64.371C190.775 64.3748 190.758 64.3822 190.742 64.3927C190.727 64.4033 190.715 64.4167 190.705 64.4323C190.695 64.4478 190.689 64.4652 190.686 64.4833C190.679 64.5206 190.686 64.5593 190.708 64.591C190.729 64.6226 190.761 64.6447 190.799 64.6525L191.347 64.717Z"
        fill="#263238" />
    <path
        d="M196.528 57.8271C196.573 57.8419 196.621 57.8419 196.665 57.8271C196.699 57.8124 196.729 57.7909 196.755 57.7641C196.78 57.7373 196.8 57.7056 196.813 57.671C196.825 57.6363 196.831 57.5995 196.829 57.5626C196.827 57.5258 196.818 57.4897 196.802 57.4564C196.629 57.0444 196.357 56.6816 196.01 56.4004C195.662 56.1192 195.251 55.9283 194.812 55.8448C194.737 55.8355 194.662 55.8555 194.602 55.9006C194.542 55.9456 194.501 56.0123 194.489 56.0865C194.485 56.1236 194.488 56.1612 194.498 56.1971C194.508 56.2331 194.525 56.2666 194.549 56.2959C194.572 56.3251 194.601 56.3494 194.633 56.3674C194.666 56.3855 194.702 56.3968 194.739 56.4008C195.081 56.4729 195.399 56.6262 195.669 56.8479C195.938 57.0696 196.15 57.353 196.286 57.674C196.31 57.7183 196.345 57.7556 196.387 57.7825C196.429 57.8093 196.478 57.8247 196.528 57.8271Z"
        fill="#263238" />
    <path
        d="M187.801 54.8536C187.844 54.8693 187.891 54.8731 187.936 54.8646C187.982 54.8561 188.024 54.8356 188.059 54.8052C188.337 54.5736 188.665 54.41 189.018 54.3274C189.37 54.2449 189.737 54.2457 190.089 54.3298C190.125 54.3414 190.162 54.3459 190.2 54.3431C190.237 54.3403 190.273 54.3302 190.306 54.3134C190.34 54.2965 190.369 54.2733 190.394 54.245C190.418 54.2167 190.436 54.1839 190.448 54.1484C190.46 54.113 190.464 54.0756 190.461 54.0384C190.459 54.0012 190.449 53.9649 190.432 53.9316C190.415 53.8983 190.392 53.8686 190.363 53.8443C190.335 53.82 190.302 53.8015 190.267 53.7898C189.826 53.6809 189.365 53.6759 188.922 53.7751C188.479 53.8744 188.065 54.0753 187.712 54.362C187.654 54.4081 187.616 54.4755 187.607 54.5494C187.598 54.6234 187.618 54.698 187.664 54.7568C187.697 54.8044 187.745 54.8387 187.801 54.8536Z"
        fill="#263238" />
    <path
        d="M211.13 83.074L211.799 83.9846L212.403 84.8388C212.806 85.411 213.169 85.9831 213.547 86.5553C214.281 87.7076 214.974 88.8761 215.643 90.0526C216.983 92.4046 218.199 94.8254 219.285 97.3052C219.849 98.53 220.333 99.8033 220.848 101.052C221.364 102.301 221.799 103.599 222.194 104.904C223.043 107.503 223.743 110.147 224.289 112.826L224.354 113.132C224.472 113.673 224.482 114.232 224.384 114.776C224.286 115.321 224.081 115.841 223.782 116.307C222.743 117.9 221.512 119.359 220.115 120.65C218.678 121.967 217.048 123.054 215.28 123.874C213.535 124.687 211.667 125.204 209.752 125.405C208.815 125.501 207.871 125.518 206.932 125.453C206.464 125.453 205.997 125.365 205.529 125.292L204.82 125.155L204.014 124.954C203.92 124.931 203.838 124.871 203.786 124.788C203.735 124.705 203.719 124.605 203.74 124.51L204.852 119.836C204.852 119.796 205.062 119.788 205.191 119.756L205.634 119.667C205.94 119.603 206.239 119.53 206.545 119.45C207.142 119.288 207.726 119.083 208.293 118.837C209.392 118.386 210.42 117.781 211.348 117.04C213.162 115.547 214.612 113.659 215.586 111.52L215.079 115.001C214.386 112.721 213.652 110.465 212.766 108.232C211.879 106 210.912 103.808 209.857 101.649C208.801 99.489 207.673 97.3535 206.456 95.2744C205.86 94.2349 205.231 93.2115 204.603 92.1961L203.644 90.6973L203.168 89.972L202.725 89.3274L202.564 89.0856C201.767 87.9497 201.453 86.5436 201.693 85.1767C201.932 83.8097 202.705 82.594 203.841 81.7968C204.977 80.9996 206.383 80.6863 207.75 80.9258C209.117 81.1654 210.333 81.9381 211.13 83.074Z"
        fill="#263238" />
    <path
        d="M200.477 124.486L198.744 127.323L206.263 127.025C206.263 127.025 208.237 121.964 205.546 121.166L204.498 121.448C202.822 121.917 201.386 123.003 200.477 124.486Z"
        fill="#FFA8A7" />
    <path
        d="M203.571 120.513C203.03 120.88 202.564 121.348 202.201 121.891C204.248 123.003 207.101 126.791 207.101 126.791L207.762 124.712C207.846 124.444 207.87 124.16 207.832 123.882C207.794 123.603 207.696 123.336 207.544 123.1L206.295 121.085C206.158 120.864 205.978 120.672 205.765 120.522C205.552 120.372 205.311 120.268 205.056 120.214C204.801 120.161 204.538 120.159 204.283 120.211C204.028 120.262 203.785 120.365 203.571 120.513Z"
        fill="#FFBA49" />
    <path d="M199.405 131.69L205.602 131.142L206.263 127.025L198.744 127.323L199.405 131.69Z" fill="#FFA8A7" />
    <path
        d="M123.342 33.3134L122.931 32.6204C124.112 31.9201 125.343 31.306 126.613 30.7831L126.92 31.5325C125.684 32.0366 124.489 32.6319 123.342 33.3134Z"
        fill="#81F4E1" />
    <path
        d="M111.576 47.5446L110.771 47.2706C112.681 41.981 116.137 37.3878 120.691 34.087L121.166 34.7398C116.756 37.9484 113.415 42.4103 111.576 47.5446Z"
        fill="#81F4E1" />
    <path
        d="M137.154 81.5268C150.852 81.5268 161.957 70.4218 161.957 56.7231C161.957 43.0243 150.852 31.9193 137.154 31.9193C123.455 31.9193 112.35 43.0243 112.35 56.7231C112.35 70.4218 123.455 81.5268 137.154 81.5268Z"
        fill="#81F4E1" />
    <path opacity="0.6"
        d="M157.872 56.723C157.87 61.5566 156.179 66.2374 153.09 69.9554C150.001 73.6733 145.71 76.1943 140.959 77.082C136.207 77.9697 131.295 77.1681 127.072 74.8162C122.85 72.4642 119.582 68.7098 117.836 64.2029C116.089 59.6959 115.973 54.7201 117.508 50.1368C119.043 45.5535 122.132 41.6511 126.241 39.1051C130.35 36.5591 135.219 35.5299 140.007 36.1955C144.794 36.861 149.198 39.1796 152.457 42.7497C152.463 42.7469 152.47 42.7453 152.477 42.7453C152.484 42.7453 152.491 42.7469 152.497 42.7497C155.971 46.5726 157.889 51.5574 157.872 56.723Z"
        fill="white" />
    <path
        d="M157.872 56.7232C157.872 60.7504 156.698 64.6903 154.494 68.061C152.29 71.4316 149.152 74.0869 145.462 75.7019C141.773 77.317 137.693 77.8218 133.722 77.1547C129.75 76.4875 126.059 74.6773 123.1 71.9455C119.482 68.0031 117.53 62.8139 117.652 57.4644C117.774 52.115 119.961 47.0202 123.755 43.2471C127.549 39.4739 132.656 37.3149 138.006 37.2222C143.356 37.1296 148.534 39.1104 152.457 42.7499C152.463 42.747 152.47 42.7455 152.477 42.7455C152.484 42.7455 152.491 42.747 152.497 42.7499C155.971 46.5728 157.889 51.5576 157.872 56.7232Z"
        fill="white" />
    <path
        d="M137.154 57.9319C136.995 57.9322 136.838 57.901 136.691 57.8402C136.545 57.7793 136.411 57.69 136.3 57.5774L126.194 47.4721C126.076 47.3615 125.98 47.228 125.914 47.0797C125.848 46.9315 125.813 46.7714 125.81 46.6091C125.807 46.4468 125.837 46.2856 125.898 46.1351C125.958 45.9846 126.049 45.8478 126.164 45.7331C126.278 45.6183 126.415 45.5278 126.566 45.467C126.716 45.4062 126.877 45.3764 127.04 45.3792C127.202 45.3821 127.362 45.4176 127.51 45.4837C127.659 45.5497 127.792 45.645 127.903 45.7637L137.154 55.0148L142.496 49.6721C142.726 49.4586 143.029 49.3423 143.342 49.3478C143.655 49.3534 143.954 49.4802 144.175 49.7017C144.397 49.9232 144.524 50.2219 144.529 50.5351C144.535 50.8482 144.418 51.1513 144.205 51.3805L138.008 57.5774C137.781 57.8034 137.474 57.9308 137.154 57.9319Z"
        fill="#263238" />
</svg>