<svg width="393" height="307" viewBox="0 0 393 307" fill="none" xmlns="http://www.w3.org/2000/svg"
    xmlns:xlink="http://www.w3.org/1999/xlink">
    <path d="M329.076 0.124023H60.8268V162.283H329.076V0.124023Z" fill="white" />
    <path d="M329.076 0H60.8267V17.6271H329.076V0Z" fill="#263238" />
    <path
        d="M71.4656 12.0542C73.0886 12.0542 74.4042 10.6998 74.4042 9.02895C74.4042 7.35813 73.0886 6.00366 71.4656 6.00366C69.8427 6.00366 68.527 7.35813 68.527 9.02895C68.527 10.6998 69.8427 12.0542 71.4656 12.0542Z"
        fill="white" />
    <path
        d="M83.6277 9.00603C83.6288 9.60462 83.4574 10.1901 83.1352 10.6884C82.813 11.1866 82.3544 11.5753 81.8176 11.8052C81.2807 12.035 80.6897 12.0958 80.1193 11.9797C79.5489 11.8636 79.0247 11.576 78.6132 11.1531C78.2017 10.7303 77.9212 10.1912 77.8074 9.60421C77.6935 9.0172 77.7514 8.40862 77.9737 7.85548C78.1959 7.30234 78.5725 6.82951 79.0559 6.49683C79.5393 6.16415 80.1076 5.98657 80.6891 5.98657C81.4675 5.98657 82.2141 6.3045 82.765 6.8706C83.3159 7.43669 83.6262 8.20468 83.6277 9.00603Z"
        fill="white" />
    <path
        d="M89.9124 12.0542C91.5354 12.0542 92.851 10.6998 92.851 9.02895C92.851 7.35813 91.5354 6.00366 89.9124 6.00366C88.2895 6.00366 86.9738 7.35813 86.9738 9.02895C86.9738 10.6998 88.2895 12.0542 89.9124 12.0542Z"
        fill="white" />
    <path
        d="M329.215 162.31C329.215 161.36 329.175 99.6187 329.101 0.151552L329.215 0.268136L60.988 0.303109L61.1352 0.151552C61.1352 57.5678 61.1352 112.396 61.1352 162.31L60.9993 162.17L329.243 162.31L60.9993 162.45H60.8578V162.31C60.8578 112.396 60.8578 57.5678 60.8578 0.151552V0H61.022L329.249 0.034973H329.362V0.151552C329.26 99.6303 329.215 161.372 329.215 162.31Z"
        fill="#263238" />
    <rect x="62" y="18" width="267" height="141" fill="url(#pattern0)" />
    <path
        d="M138.263 136.375L134.641 134.185L131.023 132L131.011 136.355L131 140.714L133.476 139.235L135.606 143.099L137.92 141.718L135.787 137.854L138.263 136.375Z"
        fill="#263238" />
    <path
        d="M392.928 305.518C392.928 305.62 304.964 305.707 196.471 305.707C87.9774 305.707 0 305.62 0 305.518C0 305.416 87.9452 305.329 196.471 305.329C304.996 305.329 392.928 305.416 392.928 305.518Z"
        fill="#263238" />
    <path
        d="M207.765 180.763C207.765 180.763 216.341 183.153 217.778 203.081C218.622 214.738 219.621 226.619 219.621 226.619L238.48 231.638L241.799 243.258L217.095 248.734C210.258 248.734 202.746 242.081 202.919 234.376L202.63 207.562L207.765 180.763Z"
        fill="#FFBA49" />
    <path
        d="M162.468 180.93L158.641 210.867C158.088 215.196 158.362 219.608 159.446 223.808L164.169 242.052C164.169 242.052 157.758 251.312 163.048 254.892C164.092 255.618 192.443 257.071 192.443 257.071L206.186 256.003L208.023 211.665L207.765 180.785C207.765 180.785 198.222 176.871 194.485 176.428C187.544 175.917 180.58 175.982 173.647 176.624L162.468 180.93Z"
        fill="#FFBA49" />
    <path
        d="M206.386 211.368C206.054 211.284 205.711 211.269 205.374 211.324C204.707 211.327 204.053 211.106 203.498 210.688C202.942 210.27 202.51 209.675 202.256 208.979C202.087 209.727 201.784 210.429 201.367 211.041C201.155 211.344 200.868 211.57 200.542 211.69C200.217 211.81 199.867 211.82 199.537 211.717C198.847 211.419 198.525 210.555 198.023 209.959C197.696 209.631 197.305 209.396 196.882 209.272C196.459 209.148 196.016 209.139 195.589 209.246C195.162 209.354 194.764 209.573 194.428 209.888C194.092 210.203 193.826 210.603 193.654 211.056C193.396 211.92 193.235 213.176 192.423 213.162C191.495 213.162 191.508 211.462 190.787 210.809C190.065 210.155 188.963 210.809 188.332 211.629C187.7 212.45 187.043 213.423 186.09 213.401C185.136 213.38 184.55 212.436 184.292 211.484C184.034 210.533 184.034 209.509 183.725 208.579C183.416 207.65 182.642 206.778 181.792 206.931C180.709 207.119 180.31 208.586 180.026 209.77C179.743 210.954 178.957 212.363 177.9 212.058C176.386 211.622 176.998 208.601 175.664 207.7C174.723 207.061 173.493 207.976 172.99 209.08C172.488 210.184 172.346 211.491 171.76 212.53C171.173 213.568 169.659 214.099 169.015 213.155C168.776 212.828 168.68 212.377 168.422 212.072C168.148 211.831 167.815 211.693 167.468 211.678C167.121 211.662 166.779 211.77 166.489 211.985C165.845 212.363 165.355 212.958 164.71 213.271C164.066 213.583 162.616 213.271 162.294 212.544L160.361 216.401C160.046 217.207 159.195 218.209 159.717 218.543C159.841 218.615 159.978 218.656 160.118 218.663C160.258 218.67 160.397 218.643 160.527 218.584C160.657 218.525 160.773 218.435 160.869 218.32C160.965 218.205 161.038 218.068 161.083 217.919C161.457 218.164 161.889 218.273 162.32 218.231C162.751 218.19 163.161 217.999 163.493 217.686C163.957 217.193 164.395 216.372 165.007 216.561C165.323 216.655 165.522 216.996 165.741 217.287C166.146 217.752 166.684 218.039 167.259 218.096C167.835 218.154 168.409 217.977 168.879 217.599C169.34 217.118 169.771 216.601 170.168 216.052C170.368 215.782 170.634 215.583 170.932 215.479C171.23 215.375 171.549 215.369 171.85 215.464C172.533 215.791 172.674 216.815 172.61 217.643C172.546 218.471 172.391 219.4 172.797 220.098C173.332 221.013 174.569 221.027 175.419 220.49C176.206 219.87 176.919 219.137 177.539 218.311C178.235 217.548 179.169 216.858 180.117 217.105C181.225 217.36 182.05 218.754 183.19 218.601C183.97 218.493 184.562 217.665 185.349 217.614C186.135 217.563 186.876 218.478 187.707 218.768C189.582 219.429 191.283 216.786 193.242 216.989C195.033 217.178 196.463 219.705 198.164 219.001C199.653 218.384 199.666 215.834 200.974 214.825C201.76 214.208 202.81 214.317 203.764 214.447C204.717 214.578 205.767 214.68 206.554 214.062C207.34 213.445 207.32 211.731 206.386 211.368Z"
        fill="white" />
    <path
        d="M207.855 209.61C207.753 209.364 207.727 209.086 207.783 208.821C207.839 208.556 207.973 208.321 208.162 208.152C208.352 207.984 208.586 207.893 208.828 207.894C209.069 207.895 209.303 207.988 209.492 208.158C209.682 208.372 209.831 208.628 209.929 208.911C210.026 209.194 210.071 209.496 210.059 209.799C210.028 210.404 210.116 211.009 210.316 211.571C210.371 211.707 210.45 211.83 210.549 211.93C210.647 212.03 210.763 212.106 210.889 212.153C211.015 212.2 211.148 212.217 211.28 212.203C211.412 212.189 211.541 212.145 211.657 212.072C211.992 211.775 212.005 211.23 212.05 210.751C212.095 210.271 212.307 209.712 212.733 209.69C213.158 209.668 213.422 210.206 213.499 210.678C213.577 211.15 213.602 211.695 213.938 211.992C214.408 211.833 214.511 211.157 214.614 210.613C214.717 210.068 215.175 209.451 215.6 209.719C215.813 209.85 215.89 210.148 215.999 210.395C216.109 210.642 216.341 210.881 216.566 210.78C216.947 210.62 216.747 209.799 217.127 209.632C217.378 209.53 217.61 209.828 217.771 210.09C218.064 210.539 218.246 211.068 218.3 211.622C218.318 211.898 218.246 212.173 218.096 212.393C217.946 212.612 217.729 212.762 217.488 212.813C217.199 212.775 216.915 212.697 216.644 212.581C216.337 212.543 216.027 212.607 215.751 212.765C215.475 212.922 215.246 213.166 215.091 213.467C214.789 214.069 214.596 214.733 214.524 215.42C214.332 215.227 214.107 215.079 213.864 214.985C213.62 214.89 213.363 214.852 213.106 214.872C212.849 214.891 212.598 214.969 212.368 215.099C212.138 215.229 211.933 215.41 211.766 215.631C211.225 216.43 211.083 217.759 210.207 217.962C209.913 217.988 209.621 217.899 209.379 217.712C209.136 217.524 208.958 217.249 208.873 216.931C208.734 216.284 208.734 215.61 208.873 214.963L207.675 216.074L207.404 214.302"
        fill="white" />
    <g opacity="0.3">
        <path opacity="0.3"
            d="M160.986 251.239L176.134 245.967L185.767 244.972C185.767 244.972 188.519 250.382 190.967 250.128C192.415 249.977 193.818 249.482 195.084 248.676C195.084 248.676 196.012 254.369 198.461 253.948C200.909 253.527 199.653 236.518 199.653 236.518L174.098 230.708L158.937 235.16L160.986 251.239Z"
            fill="black" />
    </g>
    <path
        d="M162.468 180.93C162.468 180.93 154.582 184.046 151.618 189.05C147.706 195.681 136.656 214.738 131.476 229.655C129.852 234.325 131.205 241.5 133.602 245.72C135.165 248.468 137.472 250.574 140.181 251.727C142.89 252.88 145.857 253.017 148.641 252.118L176.276 243.33L178.854 225.82L154.781 226.953L161.527 214.483L162.468 180.93Z"
        fill="#FFBA49" />
    <path
        d="M140.935 208.601C141.086 208.404 141.276 208.248 141.488 208.145C141.701 208.043 141.932 207.995 142.163 208.007C142.394 208.019 142.62 208.09 142.823 208.214C143.027 208.338 143.203 208.513 143.338 208.725C143.763 209.451 143.763 210.744 144.543 210.903C145.11 211.027 145.561 210.41 145.941 209.908C146.321 209.407 147.004 208.957 147.429 209.407C147.855 209.858 147.616 210.715 148.074 211.049C148.531 211.383 149.008 210.882 149.292 210.424C149.575 209.967 149.936 209.407 150.4 209.458C151.405 209.56 151.192 211.898 152.204 211.92C152.719 211.92 153.029 211.259 153.493 211.041C154.137 210.751 154.781 211.288 155.277 211.768C155.624 212.069 155.915 212.444 156.134 212.872C156.241 213.089 156.289 213.337 156.272 213.585C156.254 213.833 156.173 214.07 156.038 214.266C155.593 214.811 154.794 214.586 154.221 214.222C153.647 213.859 153.029 213.394 152.391 213.576C151.315 213.881 150.922 215.878 149.813 215.755C148.808 215.624 148.525 213.779 147.533 213.656C146.54 213.532 145.722 215.421 144.749 214.97C144.298 214.767 144.105 214.128 143.692 213.845C143.48 213.736 143.247 213.686 143.014 213.7C142.78 213.714 142.553 213.791 142.352 213.925C141.954 214.201 141.539 214.444 141.109 214.651C140.889 214.754 140.647 214.777 140.415 214.716C140.184 214.654 139.975 214.512 139.82 214.31C139.556 213.874 139.871 213.111 140.329 213.227L139.227 213.024V212.036"
        fill="white" />
    <path
        d="M207.675 198.273C207.733 198.735 207.761 199.201 207.758 199.668C207.758 200.568 207.81 201.847 207.816 203.481C207.816 206.705 207.784 211.15 207.584 216.059C207.385 220.969 207.03 225.414 206.766 228.624C206.624 230.221 206.496 231.529 206.392 232.415C206.644 244.979 206.225 233.795 206.199 233.795C206.183 233.327 206.198 232.858 206.244 232.393C206.309 231.427 206.392 230.141 206.496 228.595C206.708 225.385 206.979 220.954 207.179 216.052C207.378 211.15 207.475 206.705 207.52 203.488C207.52 201.934 207.565 200.648 207.584 199.675C207.579 199.206 207.609 198.737 207.675 198.273Z"
        fill="#263238" />
    <path
        d="M209.202 181.722C209.298 181.802 208.203 183.414 207.443 185.724C206.682 188.033 206.534 190.081 206.412 190.045C206.317 188.514 206.549 186.98 207.088 185.571C207.507 184.115 208.232 182.794 209.202 181.722Z"
        fill="#263238" />
    <path
        d="M165.394 197.213C165.336 197.213 165.278 196.407 165.013 195.144C164.66 193.504 164.094 191.933 163.332 190.481C162.562 189.035 161.609 187.724 160.503 186.588C159.646 185.724 159.04 185.281 159.073 185.223C159.237 185.281 159.392 185.369 159.53 185.484C159.927 185.753 160.304 186.056 160.658 186.392C163.037 188.61 164.659 191.69 165.245 195.107C165.331 195.618 165.387 196.135 165.413 196.654C165.433 196.841 165.427 197.029 165.394 197.213Z"
        fill="#263238" />
    <path
        d="M154.466 227.106C152.957 227.67 151.487 228.355 150.065 229.154C148.7 230.07 147.393 231.092 146.154 232.212C146.42 231.77 146.744 231.376 147.114 231.042C147.968 230.184 148.906 229.439 149.91 228.82C150.91 228.197 151.972 227.71 153.074 227.367C153.521 227.191 153.992 227.103 154.466 227.106Z"
        fill="#263238" />
    <path
        d="M165.928 204.076C165.84 204.403 165.724 204.72 165.58 205.021C165.342 205.623 164.975 206.473 164.511 207.526C163.583 209.625 162.249 212.501 160.69 215.617C159.131 218.732 157.636 221.514 156.521 223.489C155.96 224.484 155.497 225.276 155.168 225.82C155.014 226.113 154.835 226.388 154.633 226.641C154.75 226.327 154.892 226.025 155.058 225.741L156.347 223.351C157.41 221.339 158.873 218.551 160.432 215.435C161.991 212.319 163.351 209.472 164.33 207.403C164.801 206.422 165.194 205.602 165.497 204.955C165.617 204.649 165.762 204.354 165.928 204.076Z"
        fill="#263238" />
    <path
        d="M146.154 252.641L146.302 252.576L146.746 252.423L148.454 251.857L154.807 249.838L176.231 243.149L176.115 243.301C176.354 241.631 176.611 239.874 176.869 238.087C177.513 233.766 178.119 229.612 178.68 225.791L178.828 226.002C172.882 225.869 166.934 226.111 161.012 226.728L155.857 227.215L154.485 227.338H154.13H154.008H154.13L154.478 227.28L155.851 227.106C157.043 226.953 158.783 226.75 161.006 226.51C166.934 225.815 172.894 225.524 178.854 225.639H179.034L179.002 225.842C178.448 229.662 177.842 233.831 177.217 238.138C176.953 239.924 176.695 241.682 176.45 243.352V243.476H176.347L154.891 250.012L148.512 251.929L146.785 252.423L146.34 252.547C146.283 252.588 146.22 252.62 146.154 252.641Z"
        fill="#263238" />
    <path
        d="M191.425 283.623C191.425 283.623 219.498 292.382 220.626 292.832C222.314 293.5 222.031 300.487 219.402 300.378C218.158 300.327 197.836 301.227 195.265 301.046C192.694 300.864 184.956 297.415 184.956 297.415L191.425 283.623Z"
        fill="#FFBA49" />
    <path
        d="M203.119 295.7C203.261 295.7 203.448 294.045 204.356 292.302C205.265 290.559 206.431 289.513 206.341 289.397C206.251 289.28 204.898 290.166 203.95 292.047C203.003 293.928 203.003 295.715 203.119 295.7Z"
        fill="#263238" />
    <path
        d="M200.194 294.204C200.329 294.204 200.613 292.752 201.36 291.081C202.108 289.411 202.991 288.271 202.887 288.176C202.784 288.082 201.715 289.106 200.954 290.856C200.194 292.607 200.072 294.197 200.194 294.204Z"
        fill="#263238" />
    <path
        d="M197.443 293.377C197.584 293.377 197.481 291.786 198.087 290.029C198.693 288.271 199.717 287.189 199.621 287.073C199.524 286.957 198.332 287.93 197.649 289.84C196.966 291.75 197.365 293.42 197.443 293.377Z"
        fill="#263238" />
    <path
        d="M197.945 289.288C198.193 288.536 198.296 287.734 198.248 286.935C198.242 286.063 198.144 285.195 197.958 284.349C197.849 283.855 197.711 283.37 197.546 282.897C197.453 282.6 197.299 282.334 197.095 282.12C196.954 281.998 196.779 281.938 196.602 281.948C196.425 281.959 196.257 282.04 196.128 282.178C195.915 282.417 195.783 282.733 195.754 283.071C195.726 283.348 195.713 283.627 195.716 283.906C195.722 284.427 195.781 284.946 195.89 285.453C196.078 286.302 196.369 287.118 196.753 287.879C197.075 288.597 197.512 289.242 198.042 289.782C198.106 289.731 197.636 288.99 197.075 287.704C196.748 286.956 196.501 286.166 196.341 285.351C196.249 284.874 196.203 284.387 196.205 283.899C196.205 283.412 196.205 282.802 196.463 282.57C196.513 282.516 196.58 282.485 196.65 282.485C196.72 282.485 196.786 282.516 196.837 282.57C196.976 282.724 197.08 282.913 197.14 283.122C197.307 283.576 197.449 284.042 197.565 284.516C197.763 285.326 197.888 286.155 197.939 286.993C198.01 288.38 197.868 289.273 197.945 289.288Z"
        fill="#263238" />
    <path
        d="M197.907 288.968C197.335 288.699 196.714 288.584 196.096 288.634C195.425 288.633 194.756 288.726 194.105 288.91C193.704 289.008 193.318 289.169 192.958 289.389C192.723 289.516 192.531 289.728 192.415 289.991C192.298 290.254 192.262 290.553 192.314 290.842C192.376 291.115 192.503 291.365 192.681 291.563C192.859 291.761 193.082 291.901 193.325 291.967C193.737 292.087 194.17 292.087 194.582 291.967C195.246 291.781 195.868 291.436 196.405 290.958C196.91 290.567 197.347 290.075 197.694 289.505C197.173 289.847 196.674 290.227 196.199 290.646C195.676 291.047 195.09 291.333 194.472 291.488C194.131 291.579 193.776 291.579 193.435 291.488C193.275 291.444 193.128 291.354 193.008 291.227C192.888 291.1 192.8 290.939 192.752 290.762C192.725 290.585 192.751 290.402 192.825 290.243C192.9 290.084 193.019 289.958 193.164 289.883C193.487 289.684 193.832 289.533 194.189 289.433C194.805 289.235 195.438 289.111 196.077 289.062C197.211 288.903 197.9 289.048 197.907 288.968Z"
        fill="#263238" />
    <path
        d="M207.43 296.042C207.572 296.042 207.43 294.669 207.984 293.188C208.538 291.706 209.447 290.827 209.363 290.704C209.279 290.581 208.139 291.329 207.552 292.984C206.966 294.64 207.32 296.093 207.43 296.042Z"
        fill="#263238" />
    <path
        d="M187.842 297.501C188.188 297.731 188.553 297.923 188.931 298.075C189.949 298.52 190.993 298.884 192.056 299.165C195.573 300.035 199.171 300.42 202.771 300.312C206.979 300.261 210.767 300.043 213.519 299.92L216.773 299.724C217.173 299.721 217.573 299.673 217.965 299.579C217.568 299.516 217.166 299.497 216.766 299.52H213.512L202.771 299.76C199.202 299.861 195.634 299.533 192.127 298.78C189.44 298.177 187.874 297.4 187.842 297.501Z"
        fill="#263238" />
    <path
        d="M187.011 298.221C187.049 298.293 187.816 297.785 189.118 297.146C190.77 296.26 192.61 295.916 194.427 296.151C196.547 296.514 198.042 298.119 199.021 299.23C199.522 299.893 200.062 300.517 200.639 301.097C200.27 300.322 199.808 299.609 199.266 298.976C198.713 298.245 198.089 297.587 197.404 297.015C196.549 296.299 195.555 295.823 194.504 295.628C192.598 295.368 190.667 295.779 188.976 296.805C188.261 297.161 187.598 297.639 187.011 298.221Z"
        fill="#263238" />
    <path
        d="M163.048 254.892L157.359 268.074C157.359 268.074 126.927 257.674 119.259 258.124C111.592 258.574 105.316 262.068 103.795 269.083C102.275 276.099 102.101 285.787 111.044 292.512C119.987 299.237 164.504 302.941 164.504 302.941H182.095L210.851 260.216L206.219 255.982L163.048 254.892Z"
        fill="#263238" />
    <path
        d="M172.623 283.819C172.43 283.837 172.236 283.837 172.043 283.819C171.663 283.783 171.102 283.819 170.394 283.674C168.372 283.414 166.375 282.95 164.427 282.287C161.553 281.301 158.752 280.063 156.051 278.583C152.971 276.949 149.691 274.951 146.244 272.845C143.02 270.854 139.703 269.06 136.308 267.471C133.537 266.179 130.657 265.206 127.713 264.566C125.728 264.139 123.709 263.94 121.688 263.971C120.973 263.971 120.4 264.036 120.045 264.043C119.852 264.064 119.658 264.064 119.465 264.043C119.654 263.995 119.846 263.963 120.039 263.949C120.413 263.949 120.967 263.803 121.688 263.796C123.722 263.703 125.759 263.856 127.764 264.254C130.726 264.863 133.622 265.822 136.405 267.115C139.822 268.685 143.157 270.475 146.392 272.475C149.839 274.559 153.113 276.578 156.167 278.227C158.858 279.72 161.645 280.983 164.504 282.003C166.435 282.685 168.41 283.191 170.413 283.514C171.115 283.652 171.702 283.681 172.049 283.739C172.242 283.747 172.434 283.773 172.623 283.819Z"
        fill="#455A64" />
    <path
        d="M193.416 299.455C199.066 296.957 230.143 285.809 241.148 271.473C250.31 259.54 235.735 248.857 235.735 248.857C235.735 248.857 225.516 248.494 222.108 248.857C218.699 249.22 169.917 286.383 169.917 286.383C169.917 286.383 178.435 305.106 178.222 305.825L193.416 299.455Z"
        fill="#263238" />
    <path
        d="M208.718 257.906C208.718 257.906 208.68 257.95 208.59 258.022L208.177 258.335L206.586 259.511L200.677 263.745L181.128 277.602L170.503 285.068L170.574 284.821L176.141 299.92C176.785 301.75 177.333 303.217 177.707 304.278L178.113 305.44C178.165 305.569 178.204 305.706 178.229 305.846C178.161 305.724 178.103 305.595 178.055 305.461C177.939 305.178 177.79 304.8 177.604 304.328L175.941 300.036C174.536 296.318 172.558 291.103 170.245 284.996L170.187 284.843L170.316 284.749L180.922 277.254L200.535 263.484L206.502 259.359L208.139 258.255L208.57 257.979L208.718 257.906Z"
        fill="#455A64" />
    <path
        d="M165.793 274.429C165.287 274.311 164.8 274.105 164.35 273.819C163.228 273.208 162.16 272.479 161.16 271.64C160.156 270.815 159.222 269.886 158.37 268.866C157.99 268.468 157.668 268.005 157.417 267.493C157.507 267.406 159.06 269.389 161.386 271.291C163.712 273.194 165.825 274.305 165.793 274.429Z"
        fill="#455A64" />
    <path
        d="M182.7 258.894C182.78 259.617 182.805 260.346 182.778 261.073C182.778 262.424 182.842 264.29 183.003 266.338C183.164 268.386 183.422 270.238 183.647 271.567C183.791 272.284 183.884 273.013 183.924 273.746C183.668 273.069 183.486 272.36 183.383 271.633C183.036 269.905 182.791 268.153 182.649 266.389C182.511 264.624 182.472 262.851 182.533 261.08C182.518 260.347 182.574 259.614 182.7 258.894Z"
        fill="#455A64" />
    <path
        d="M186.341 258.444C186.341 258.444 186.483 258.4 186.721 258.502C187.054 258.653 187.336 258.92 187.526 259.265C187.679 259.521 187.779 259.812 187.819 260.117C187.859 260.423 187.838 260.734 187.758 261.029C187.639 261.395 187.425 261.71 187.143 261.935C186.861 262.159 186.525 262.282 186.18 262.286C185.836 262.322 185.49 262.236 185.192 262.039C184.893 261.843 184.658 261.545 184.517 261.189C184.426 260.896 184.398 260.582 184.435 260.274C184.472 259.966 184.573 259.672 184.73 259.417C184.927 259.068 185.229 258.81 185.58 258.691C185.832 258.625 185.974 258.691 185.974 258.691C185.553 258.835 185.193 259.147 184.962 259.57C184.845 259.785 184.774 260.028 184.753 260.28C184.731 260.532 184.761 260.785 184.839 261.022C184.961 261.294 185.153 261.519 185.39 261.665C185.627 261.812 185.898 261.874 186.167 261.843C186.442 261.848 186.713 261.759 186.943 261.588C187.173 261.417 187.352 261.172 187.455 260.884C187.521 260.644 187.543 260.392 187.52 260.142C187.497 259.892 187.429 259.651 187.32 259.432C187.086 259.002 186.745 258.659 186.341 258.444Z"
        fill="#455A64" />
    <path
        d="M171.302 257.057C171.427 257.25 171.517 257.47 171.566 257.703C171.745 258.329 171.832 258.984 171.824 259.642C171.815 260.625 171.621 261.596 171.257 262.489C170.825 263.603 170.121 264.555 169.226 265.235C168.331 265.914 167.284 266.291 166.205 266.324C165.325 266.373 164.446 266.207 163.628 265.837C163.083 265.603 162.578 265.267 162.133 264.842C161.961 264.698 161.813 264.521 161.695 264.319C162.323 264.821 163.002 265.235 163.718 265.554C164.503 265.857 165.333 265.982 166.16 265.924C167.173 265.874 168.154 265.508 168.993 264.867C169.833 264.225 170.498 263.335 170.915 262.293C171.273 261.451 171.481 260.538 171.528 259.606C171.546 258.749 171.471 257.893 171.302 257.057Z"
        fill="#455A64" />
    <path
        d="M200.303 263.578C199.912 263.653 199.509 263.589 199.15 263.397C198.239 263.038 197.459 262.35 196.931 261.44C196.403 260.529 196.157 259.448 196.231 258.364C196.227 257.917 196.336 257.479 196.547 257.1C196.551 257.524 196.536 257.949 196.502 258.371C196.501 259.377 196.761 260.36 197.248 261.203C197.736 262.045 198.43 262.709 199.247 263.113C199.878 263.44 200.31 263.484 200.303 263.578Z"
        fill="#455A64" />
    <path
        d="M238.648 232.502C238.648 232.502 245.349 226.888 246.515 226.648C247.681 226.409 256.586 227.672 257.121 228.275C257.656 228.878 265.922 235.901 264.324 236.504C262.726 237.106 257.011 232.11 257.011 232.11H255.942C255.942 232.11 260.955 236.271 261.741 237.695C262.482 238.995 261.451 240.244 260.503 239.547C259.556 238.849 255.284 235.051 254.904 235.102C254.524 235.153 259.415 239.554 259.808 240.287C260.355 241.268 259.711 242.895 258.751 242.241C258.184 241.849 253.738 237.368 253.738 237.368C253.738 237.368 256.998 241.507 257.192 242.125C257.501 243.141 256.547 243.853 255.774 243.12C255.239 242.619 253.074 239.401 252.353 238.726C252.353 238.726 251.489 238.515 250.007 239.844C248.525 241.173 241.573 242.669 241.573 242.669L238.648 232.502Z"
        fill="#FFBE9D" />
    <path
        d="M240.671 233.809C240.865 234.236 241.173 234.583 241.55 234.803C241.928 235.023 242.357 235.105 242.778 235.037C243.629 234.971 244.434 234.594 245.272 234.463C247.785 234.071 250.285 235.966 252.778 235.436C253.126 235.363 253.538 235.153 253.545 234.753C253.551 234.354 253.216 234.143 252.901 233.984L245.343 229.837"
        fill="#FFBE9D" />
    <path
        d="M245.362 229.837C245.66 229.909 245.948 230.026 246.219 230.185C246.76 230.447 247.507 230.839 248.48 231.333L251.812 233.098L252.772 233.613C253.062 233.802 253.519 233.904 253.751 234.506C253.789 234.66 253.787 234.823 253.745 234.975C253.703 235.127 253.622 235.262 253.513 235.363C253.323 235.528 253.103 235.64 252.868 235.69C252.46 235.775 252.046 235.809 251.631 235.792C249.962 235.712 248.525 235.066 247.192 234.79C246.569 234.647 245.93 234.61 245.297 234.681C244.711 234.761 244.163 234.957 243.641 235.073C243.228 235.218 242.792 235.258 242.363 235.192C241.934 235.125 241.524 234.953 241.161 234.688C240.658 234.245 240.632 233.802 240.652 233.809C240.671 233.817 240.787 234.172 241.296 234.536C241.647 234.744 242.033 234.869 242.429 234.901C242.824 234.934 243.222 234.874 243.596 234.724C244.099 234.586 244.64 234.368 245.278 234.26C245.949 234.159 246.629 234.179 247.295 234.318C248.693 234.557 250.136 235.204 251.676 235.276C252.046 235.284 252.416 235.245 252.778 235.16C253.12 235.087 253.371 234.855 253.293 234.666C253.216 234.477 252.888 234.252 252.565 234.078L251.612 233.541L248.326 231.674C247.398 231.137 246.644 230.694 246.128 230.374C245.854 230.232 245.596 230.052 245.362 229.837Z"
        fill="#EB996E" />
    <path
        d="M264.292 236.518C263.643 236.521 262.999 236.37 262.405 236.075C261.734 235.808 261.087 235.473 260.472 235.073C259.827 234.579 259.118 234.02 258.377 233.431L256.818 232.168L256.921 232.219C254.273 231.812 252.366 231.442 252.379 231.318C252.392 231.195 254.312 231.369 256.979 231.703H257.037L257.089 231.747L258.648 232.981L260.703 234.637C261.278 235.049 261.882 235.408 262.508 235.712C263.603 236.235 264.312 236.438 264.292 236.518Z"
        fill="#EB996E" />
    <path
        d="M171.631 288.903C171.631 288.903 143.557 297.661 142.429 298.104C140.735 298.78 141.025 305.759 143.654 305.65C144.897 305.599 165.219 306.507 167.784 306.326C170.348 306.144 177.262 303.065 177.262 303.065L171.631 288.903Z"
        fill="#FFBA49" />
    <path
        d="M159.936 300.973C159.794 300.973 159.607 299.324 158.699 297.574C157.79 295.824 156.624 294.792 156.714 294.669C156.805 294.546 158.158 295.439 159.105 297.32C160.052 299.201 160.052 300.987 159.936 300.973Z"
        fill="#263238" />
    <path
        d="M162.861 299.477C162.726 299.477 162.442 298.024 161.695 296.354C160.947 294.684 160.065 293.543 160.161 293.449C160.258 293.355 161.341 294.386 162.094 296.129C162.848 297.872 162.984 299.47 162.861 299.477Z"
        fill="#263238" />
    <path
        d="M165.606 298.649C165.464 298.649 165.574 297.058 164.962 295.308C164.35 293.558 163.338 292.461 163.435 292.345C163.531 292.229 164.723 293.202 165.4 295.112C166.076 297.022 165.722 298.692 165.606 298.649Z"
        fill="#263238" />
    <path
        d="M165.11 294.56C164.861 293.809 164.758 293.007 164.807 292.207C164.814 291.338 164.909 290.473 165.091 289.629C165.202 289.135 165.342 288.65 165.51 288.176C165.596 287.879 165.751 287.613 165.961 287.407C166.101 287.284 166.275 287.223 166.452 287.232C166.629 287.241 166.797 287.321 166.927 287.457C167.14 287.697 167.273 288.013 167.301 288.351C167.316 288.629 167.316 288.908 167.301 289.186C167.296 289.709 167.24 290.23 167.133 290.74C166.942 291.587 166.649 292.4 166.263 293.158C165.955 293.877 165.529 294.522 165.007 295.061C164.943 295.01 165.413 294.277 165.973 292.984C166.301 292.236 166.548 291.446 166.708 290.631C166.797 290.153 166.842 289.667 166.843 289.179C166.843 288.692 166.843 288.082 166.586 287.85C166.534 287.798 166.467 287.77 166.399 287.77C166.33 287.77 166.264 287.798 166.212 287.85C166.073 288.005 165.967 288.193 165.903 288.401C165.734 288.858 165.592 289.326 165.477 289.803C165.284 290.611 165.161 291.438 165.11 292.272C165.059 293.652 165.187 294.546 165.11 294.56Z"
        fill="#263238" />
    <path
        d="M165.149 294.241C165.721 293.973 166.341 293.861 166.959 293.914C167.632 293.91 168.303 294 168.957 294.183C169.356 294.284 169.742 294.445 170.103 294.662C170.338 294.791 170.527 295.003 170.644 295.265C170.76 295.528 170.797 295.826 170.748 296.114C170.684 296.388 170.556 296.636 170.378 296.836C170.201 297.035 169.979 297.177 169.736 297.247C169.314 297.37 168.87 297.37 168.448 297.247C167.782 297.064 167.16 296.719 166.624 296.238C166.12 295.846 165.683 295.354 165.335 294.785C165.86 295.12 166.36 295.501 166.83 295.926C167.352 296.323 167.936 296.607 168.551 296.761C168.893 296.859 169.252 296.859 169.594 296.761C169.754 296.717 169.902 296.627 170.021 296.5C170.141 296.372 170.229 296.212 170.277 296.035C170.306 295.855 170.28 295.671 170.204 295.51C170.128 295.349 170.006 295.222 169.859 295.149C169.538 294.948 169.196 294.797 168.841 294.698C168.224 294.504 167.591 294.38 166.953 294.328C165.844 294.197 165.149 294.328 165.149 294.241Z"
        fill="#263238" />
    <path
        d="M155.619 301.314C155.484 301.314 155.619 299.942 155.065 298.46C154.511 296.979 153.602 296.107 153.692 295.984C153.782 295.86 154.917 296.601 155.503 298.257C156.089 299.913 155.735 301.372 155.619 301.314Z"
        fill="#263238" />
    <path
        d="M175.213 302.774C174.87 303.011 174.505 303.203 174.124 303.348C173.106 303.795 172.062 304.161 170.999 304.444C167.482 305.319 163.884 305.709 160.284 305.606C156.076 305.556 152.281 305.338 149.536 305.214L146.315 305.018C145.914 305.02 145.515 304.974 145.123 304.88C145.519 304.812 145.921 304.79 146.321 304.815H149.543L160.284 305.047C163.859 305.153 167.434 304.826 170.948 304.074C173.609 303.428 175.181 302.701 175.213 302.774Z"
        fill="#263238" />
    <path
        d="M176.044 303.493C175.326 303.176 174.623 302.817 173.937 302.418C172.284 301.536 170.445 301.192 168.628 301.423C166.508 301.794 165.013 303.392 164.034 304.503C163.533 305.166 162.993 305.789 162.417 306.369C162.787 305.596 163.249 304.883 163.789 304.249C164.344 303.519 164.968 302.862 165.651 302.288C166.506 301.571 167.5 301.096 168.551 300.9C170.458 300.643 172.389 301.057 174.079 302.084C174.795 302.437 175.458 302.912 176.044 303.493Z"
        fill="#263238" />
    <path
        d="M147.874 304.88C147.829 304.837 148.067 304.423 148.286 303.682C148.583 302.727 148.654 301.702 148.491 300.707C148.328 299.712 147.938 298.783 147.359 298.01C146.92 297.414 146.56 297.117 146.598 297.059C146.97 297.2 147.301 297.451 147.558 297.785C148.226 298.562 148.675 299.545 148.847 300.61C149.02 301.676 148.906 302.777 148.518 303.769C148.235 304.532 147.913 304.88 147.874 304.88Z"
        fill="#263238" />
    <path
        d="M200.697 234.717C198.338 233.904 199.408 230.963 195.065 229.336C191.843 228.123 188.364 225.857 178.834 227.077L176.669 241.893L185.825 239.147L188.467 245.8C188.596 246.125 188.782 246.418 189.013 246.661C189.244 246.904 189.516 247.092 189.812 247.215C190.109 247.337 190.425 247.392 190.74 247.374C191.056 247.357 191.365 247.269 191.65 247.114L196.296 244.609C196.296 244.609 197.584 251.806 197.997 252.089C198.213 252.245 198.464 252.329 198.721 252.331C198.977 252.334 199.229 252.254 199.448 252.103C199.666 251.951 199.843 251.733 199.956 251.474C200.07 251.215 200.117 250.925 200.091 250.637C199.911 249.671 199.447 237.172 199.447 237.172C199.447 237.172 202.965 238.298 202.746 236.715C202.72 236.744 203.055 235.531 200.697 234.717Z"
        fill="#FFBE9D" />
    <path
        d="M190.806 247.753C190.894 247.476 190.995 247.205 191.109 246.94C191.322 246.28 191.401 245.576 191.341 244.877C191.277 244.182 191.074 243.511 190.748 242.916C190.497 242.459 190.278 242.19 190.31 242.19C190.549 242.336 190.751 242.548 190.896 242.808C191.284 243.411 191.522 244.121 191.586 244.863C191.661 245.608 191.552 246.362 191.27 247.042C191.051 247.506 190.825 247.775 190.806 247.753Z"
        fill="#EB996E" />
    <path
        d="M193.719 245.967C193.895 245.146 193.915 244.293 193.777 243.463C193.639 242.633 193.347 241.845 192.92 241.152C192.92 241.152 193.145 241.311 193.396 241.704C193.715 242.215 193.934 242.797 194.041 243.41C194.141 244.024 194.128 244.655 194.002 245.262C193.958 245.519 193.861 245.76 193.719 245.967Z"
        fill="#EB996E" />
    <path
        d="M195.761 240.244C195.761 240.244 195.935 240.411 196.09 240.767C196.287 241.237 196.396 241.747 196.412 242.267C196.427 242.786 196.348 243.304 196.18 243.788C196.044 244.158 195.909 244.347 195.883 244.333C196.048 243.663 196.141 242.973 196.16 242.277C196.104 241.583 195.97 240.9 195.761 240.244Z"
        fill="#EB996E" />
    <path
        d="M226.115 256.09L178.841 254.769C178.605 254.763 178.38 254.653 178.215 254.463C178.05 254.273 177.958 254.018 177.958 253.752C177.957 253.618 177.98 253.486 178.024 253.362C178.069 253.238 178.134 253.126 178.218 253.031C178.301 252.936 178.4 252.86 178.509 252.808C178.618 252.756 178.735 252.729 178.854 252.728L204.93 252.357L215.239 216.379C215.407 215.789 215.74 215.276 216.189 214.919C216.637 214.561 217.177 214.378 217.726 214.396L257.288 215.631C257.691 215.652 258.083 215.779 258.434 216.002C258.785 216.225 259.084 216.538 259.308 216.915C259.533 217.292 259.676 217.723 259.725 218.173C259.775 218.624 259.73 219.081 259.595 219.509L247.159 256.686L226.109 256.09"
        fill="#455A64" />
    <path
        d="M236.438 234.514C235.974 233.548 234.015 233.228 233.074 234.027C232.471 234.413 232.029 235.053 231.844 235.806C231.714 236.403 231.781 237.032 232.032 237.577C232.284 238.122 232.702 238.546 233.21 238.77C233.725 238.902 234.264 238.861 234.759 238.65C235.255 238.44 235.684 238.069 235.993 237.586C236.318 237.174 236.533 236.666 236.611 236.122C236.69 235.579 236.63 235.02 236.438 234.514Z"
        fill="white" />
    <path
        d="M198.184 125.634C198.686 124.864 199.807 125.568 200.168 126.44C200.529 127.311 200.696 128.415 201.457 128.829C202.462 129.374 204.002 128.393 204.627 129.439C205.104 130.238 204.401 131.327 204.627 132.264C204.988 133.942 207.552 133.535 208.28 135.053C208.718 135.961 208.28 137.05 207.919 138.002C207.559 138.953 207.443 140.275 208.216 140.812C208.989 141.35 210.149 140.732 210.793 141.43C211.644 142.374 210.368 143.979 210.632 145.286C210.825 146.252 211.779 146.739 212.636 146.935C213.493 147.131 214.447 147.298 215.014 148.053C216.264 149.716 214.434 152.28 214.943 154.386C215.252 155.657 216.425 156.732 216.148 158.017C215.8 159.651 213.435 159.876 213.1 161.518C212.81 162.912 214.221 164.51 213.441 165.643C212.662 166.776 210.999 165.716 209.923 166.369C208.686 167.161 208.918 169.775 207.533 170.16C206.889 170.327 206.244 169.913 205.638 170.015C204.111 170.269 203.705 173.247 202.159 173.131C201.257 173.065 200.548 171.86 199.672 172.107C198.796 172.353 198.68 173.733 197.939 174.285C196.779 175.121 195.432 173.385 194.073 173.319C193.216 173.276 192.385 173.9 191.54 173.726C191.145 173.599 190.789 173.347 190.516 172.999C190.244 172.652 190.065 172.224 190 171.765C189.888 170.848 189.908 169.916 190.058 169.005C190.557 163.925 189.778 158.788 187.81 154.183"
        fill="#263238" />
    <path
        d="M193.815 179.965L193.686 172.012C193.686 172.012 200.696 170.843 202.307 160.588C203.106 155.505 203.022 147.102 202.739 140.253C202.423 132.678 195.136 124.726 189.678 125.263L173.486 131.8V135.119L173.976 180.335C174.006 183.277 175.065 186.086 176.921 188.154C178.777 190.222 181.282 191.382 183.892 191.382C185.213 191.382 186.52 191.085 187.738 190.509C188.955 189.932 190.058 189.087 190.983 188.024C191.907 186.961 192.633 185.7 193.12 184.316C193.606 182.932 193.842 181.453 193.815 179.965Z"
        fill="#FFBE9D" />
    <path
        d="M199.943 147.378C199.941 147.721 199.82 148.05 199.606 148.295C199.391 148.539 199.101 148.679 198.796 148.685C198.647 148.695 198.497 148.671 198.356 148.615C198.215 148.559 198.086 148.472 197.975 148.359C197.864 148.247 197.774 148.11 197.71 147.958C197.646 147.805 197.61 147.64 197.604 147.472C197.607 147.129 197.728 146.801 197.943 146.557C198.157 146.313 198.446 146.172 198.751 146.165C198.9 146.154 199.05 146.177 199.191 146.232C199.332 146.288 199.462 146.375 199.574 146.488C199.685 146.601 199.775 146.738 199.838 146.891C199.901 147.043 199.937 147.209 199.943 147.378Z"
        fill="#263238" />
    <path
        d="M201.057 144.582C200.909 144.749 200.033 143.994 198.776 143.972C197.52 143.95 196.579 144.64 196.45 144.466C196.321 144.291 196.534 144.081 196.94 143.739C197.493 143.326 198.146 143.116 198.809 143.137C199.466 143.154 200.1 143.409 200.619 143.863C200.999 144.19 201.128 144.502 201.057 144.582Z"
        fill="#263238" />
    <path
        d="M188.345 147.007C188.343 147.351 188.222 147.68 188.008 147.925C187.793 148.169 187.502 148.309 187.198 148.315C187.049 148.325 186.899 148.302 186.758 148.247C186.617 148.191 186.488 148.104 186.377 147.991C186.266 147.878 186.177 147.741 186.114 147.588C186.052 147.436 186.017 147.27 186.012 147.102C186.014 146.758 186.135 146.429 186.349 146.185C186.563 145.94 186.854 145.8 187.159 145.795C187.308 145.784 187.457 145.807 187.598 145.862C187.739 145.918 187.869 146.005 187.98 146.118C188.09 146.231 188.18 146.368 188.242 146.521C188.305 146.674 188.34 146.839 188.345 147.007Z"
        fill="#263238" />
    <path
        d="M188.68 144.596C188.532 144.763 187.655 144.008 186.399 143.986C185.142 143.964 184.202 144.654 184.073 144.48C183.944 144.306 184.157 144.095 184.562 143.754C185.115 143.338 185.767 143.125 186.431 143.144C187.087 143.165 187.721 143.419 188.242 143.87C188.622 144.211 188.751 144.524 188.68 144.596Z"
        fill="#263238" />
    <path
        d="M193.081 155.214C193.746 154.988 194.435 154.861 195.13 154.836C195.452 154.836 195.774 154.742 195.819 154.495C195.849 154.12 195.78 153.743 195.619 153.413C195.329 152.534 195.033 151.604 194.711 150.638C193.454 146.68 192.552 143.434 192.694 143.376C192.836 143.318 193.983 146.484 195.226 150.435L196.096 153.231C196.294 153.681 196.345 154.196 196.238 154.684C196.189 154.811 196.116 154.924 196.024 155.014C195.931 155.105 195.821 155.17 195.703 155.206C195.524 155.256 195.34 155.28 195.155 155.279C194.464 155.354 193.767 155.332 193.081 155.214Z"
        fill="#263238" />
    <path
        d="M193.686 172.019C189.389 172.004 185.181 170.647 181.528 168.098C181.528 168.098 184.582 175.28 193.725 174.503L193.686 172.019Z"
        fill="#EB996E" />
    <path
        d="M192.494 158.62C192.259 158.277 191.951 158.006 191.599 157.833C191.246 157.66 190.86 157.591 190.477 157.632C190.199 157.654 189.928 157.74 189.68 157.883C189.432 158.027 189.212 158.226 189.034 158.468C188.859 158.698 188.753 158.984 188.73 159.287C188.706 159.589 188.768 159.892 188.905 160.152C189.104 160.411 189.366 160.597 189.658 160.687C189.951 160.778 190.26 160.769 190.548 160.661C191.146 160.436 191.698 160.077 192.172 159.608C192.317 159.498 192.442 159.358 192.539 159.194C192.587 159.117 192.612 159.026 192.612 158.932C192.612 158.839 192.587 158.748 192.539 158.671"
        fill="#FF725E" />
    <path
        d="M189.363 156.122C189.569 156.122 189.543 157.647 190.697 158.766C191.85 159.884 193.274 159.739 193.313 159.957C193.313 160.059 192.984 160.247 192.372 160.255C191.569 160.253 190.793 159.931 190.181 159.347C189.596 158.787 189.226 157.993 189.15 157.132C189.111 156.485 189.266 156.108 189.363 156.122Z"
        fill="#263238" />
    <path
        d="M189.092 139.04C188.963 139.425 187.707 139.222 186.225 139.389C184.743 139.556 183.544 139.992 183.357 139.643C183.267 139.476 183.486 139.113 184.002 138.75C184.652 138.307 185.383 138.036 186.14 137.958C186.897 137.88 187.659 137.997 188.37 138.3C188.879 138.568 189.15 138.859 189.092 139.04Z"
        fill="#263238" />
    <path
        d="M200.658 140.464C200.432 140.783 199.569 140.427 198.525 140.391C197.481 140.355 196.592 140.573 196.399 140.231C196.315 140.064 196.457 139.745 196.85 139.447C197.373 139.092 197.979 138.92 198.589 138.953C199.2 138.987 199.787 139.225 200.278 139.636C200.645 139.977 200.761 140.311 200.658 140.464Z"
        fill="#263238" />
    <path
        d="M197.758 127.217C197.758 127.333 197.449 127.435 197.063 127.435C196.676 127.435 196.36 127.333 196.36 127.217C196.36 127.101 196.669 126.999 197.063 126.999C197.456 126.999 197.758 127.101 197.758 127.217Z"
        fill="#263238" />
    <path
        d="M197.166 129.199C199.517 123.941 194.169 119.54 191.624 118.102C190.354 117.361 188.942 116.983 187.512 117.001C186.082 117.018 184.677 117.432 183.422 118.204C182.301 118.93 181.321 120.041 180.065 120.383C177.153 121.218 174.015 117.855 171.308 119.322C169.079 120.521 168.731 124.283 166.47 125.459C165.393 126.033 164.137 125.851 162.958 125.989C161.779 126.127 160.439 126.861 160.29 128.168C160.116 129.621 161.502 131.204 160.806 132.475C159.949 134.036 157.404 132.584 156.295 133.927C155.187 135.271 156.476 137.755 155.226 138.728C154.304 139.454 152.758 138.583 152.082 139.578C151.405 140.572 152.726 141.981 152.842 143.318C152.958 144.654 151.837 145.736 150.857 146.571C149.878 147.407 148.853 148.75 149.324 149.999C149.871 151.452 152.011 151.597 152.378 153.137C152.745 154.676 150.87 156.463 151.734 157.799C152.301 158.685 153.602 158.431 154.311 159.165C155.509 160.377 154.053 162.716 154.646 164.408C155.458 166.747 159.015 165.723 160.381 167.705C161.134 168.809 161.025 170.61 162.101 171.337C163.177 172.063 164.575 170.937 165.838 171.104C167.894 171.373 169.163 174.895 171.141 174.205C172.153 173.857 172.9 172.419 173.931 172.702C174.82 172.949 175.168 174.38 176.07 174.539C177.294 174.757 177.636 172.746 178.364 171.634C179.343 170.131 181.476 170.051 182.378 168.497C183.19 167.095 182.604 165.229 181.888 163.762C181.173 162.295 180.323 160.69 180.671 159.063C181.07 157.211 182.958 155.606 182.294 153.856C181.573 151.946 178.396 152.142 178.177 150.072C177.964 148.118 180.87 147.014 180.542 145.083C180.323 143.783 178.744 143.274 178.448 141.996C178.1 140.543 179.698 139.243 179.678 137.704C179.678 136.723 179.002 135.939 178.525 135.111C178.048 134.283 177.79 133.056 178.454 132.424C179.517 131.407 181.109 133.259 182.436 132.809C183.37 132.497 183.725 131.255 184.034 130.223C184.034 130.223 186.495 126.018 190.896 126.592C195.297 127.166 197.166 129.199 197.166 129.199Z"
        fill="#263238" />
    <path
        d="M197.23 127.304C197.434 127.564 197.58 127.875 197.656 128.212C197.732 128.548 197.735 128.9 197.666 129.238C197.596 129.576 197.456 129.891 197.257 130.156C197.058 130.421 196.806 130.628 196.521 130.761C195.426 131.197 194.266 130.42 193.3 129.693C192.333 128.967 191.128 128.241 190.078 128.749C188.145 129.693 188.673 133.695 186.682 134.559C185.864 134.915 184.962 134.559 184.105 134.349C183.248 134.138 182.172 134.174 181.708 135.002C181.064 136.113 181.934 137.907 181.064 138.793C180.709 139.171 180.149 139.244 179.827 139.657C179.305 140.318 179.717 141.393 180.29 142.003C180.864 142.613 181.618 143.085 181.901 143.913C182.352 145.235 181.366 146.608 180.361 147.465C179.356 148.322 178.151 149.171 177.932 150.573C177.584 152.817 180.058 154.989 179.221 157.066C178.932 157.622 178.474 158.043 177.932 158.249C177.39 158.456 176.8 158.436 176.27 158.191C175.22 157.655 174.373 156.715 173.879 155.541C171.592 150.914 172.236 145.264 172.997 140.057C173.493 136.644 174.073 133.114 175.845 130.289C177.616 127.464 180.606 125.517 183.615 124.334C185.893 123.332 188.345 122.937 190.78 123.179C191.994 123.309 193.169 123.735 194.222 124.427C195.276 125.119 196.183 126.061 196.882 127.188"
        fill="#263238" />
    <path
        d="M171.031 173.929C170.985 173.978 170.93 174.016 170.87 174.038C170.781 174.072 170.687 174.084 170.593 174.073C170.5 174.062 170.41 174.027 170.329 173.973C170.067 173.799 169.869 173.526 169.768 173.203C169.697 172.995 169.675 172.77 169.704 172.549C169.748 172.304 169.84 172.073 169.975 171.874C170.293 171.423 170.693 171.054 171.147 170.792C171.668 170.497 172.136 170.096 172.526 169.608C172.729 169.339 172.847 169.002 172.861 168.649C172.849 168.277 172.724 167.921 172.507 167.64C172.263 167.33 172 167.038 171.721 166.768C171.406 166.477 171.147 166.116 170.96 165.708C170.867 165.476 170.828 165.22 170.847 164.966C170.866 164.711 170.943 164.467 171.07 164.255C171.351 163.856 171.704 163.529 172.107 163.297C172.488 163.05 172.893 162.832 173.254 162.571C173.629 162.324 173.904 161.923 174.021 161.452C174.056 161.208 174.036 160.958 173.961 160.725C173.887 160.493 173.761 160.285 173.596 160.123C173.243 159.739 172.871 159.377 172.481 159.041C172.051 158.681 171.699 158.217 171.45 157.683C171.34 157.385 171.291 157.063 171.308 156.741C171.324 156.418 171.406 156.105 171.547 155.824C171.82 155.262 172.19 154.768 172.636 154.371C173.067 153.964 173.531 153.645 173.924 153.231C174.345 152.858 174.675 152.37 174.884 151.815C174.967 151.532 174.992 151.231 174.957 150.936C174.923 150.64 174.83 150.357 174.685 150.108C174.37 149.569 174.01 149.066 173.609 148.605C173.159 148.118 172.827 147.511 172.642 146.84C172.578 146.471 172.603 146.09 172.713 145.736C172.838 145.393 173.03 145.085 173.274 144.835C173.758 144.396 174.277 144.009 174.826 143.681C175.36 143.4 175.808 142.947 176.115 142.381C176.224 142.095 176.268 141.784 176.244 141.474C176.219 141.165 176.126 140.867 175.973 140.609C175.661 140.053 175.305 139.531 174.91 139.047C174.503 138.528 174.216 137.905 174.073 137.232C174.009 136.877 174.034 136.511 174.143 136.171C174.269 135.838 174.48 135.555 174.749 135.358C175.275 135.053 175.859 134.896 176.45 134.9C176.988 134.897 177.525 134.824 178.048 134.682C178.287 134.617 178.507 134.482 178.686 134.293C178.866 134.103 178.999 133.865 179.073 133.6C179.221 133.063 179.208 132.46 179.343 131.865C179.405 131.556 179.526 131.266 179.697 131.015C179.869 130.764 180.086 130.558 180.336 130.412C181.302 129.831 182.365 129.998 183.28 130.027C183.731 130.051 184.183 130 184.62 129.875C185.033 129.734 185.418 129.504 185.754 129.199C186.38 128.574 186.966 127.899 187.507 127.18C188.016 126.508 188.649 125.97 189.363 125.604C190.011 125.306 190.715 125.191 191.412 125.27C191.968 125.327 192.508 125.514 192.997 125.821C193.485 126.127 193.911 126.546 194.247 127.049C194.68 127.685 194.959 128.435 195.059 129.228C195.09 129.501 195.09 129.776 195.059 130.049C195.059 130.049 195.059 129.766 194.968 129.243C194.84 128.482 194.548 127.769 194.118 127.166C193.787 126.69 193.372 126.298 192.9 126.013C192.427 125.727 191.907 125.556 191.373 125.51C190.713 125.45 190.05 125.57 189.44 125.858C188.762 126.22 188.162 126.743 187.681 127.391C187.136 128.125 186.546 128.814 185.915 129.453C185.556 129.783 185.142 130.03 184.698 130.18C184.233 130.317 183.753 130.376 183.274 130.354C182.333 130.354 181.341 130.194 180.471 130.717C180.261 130.839 180.078 131.012 179.934 131.223C179.791 131.433 179.69 131.677 179.64 131.937C179.517 132.475 179.53 133.077 179.363 133.687C179.277 134.006 179.12 134.295 178.907 134.525C178.694 134.755 178.431 134.92 178.145 135.002C177.599 135.159 177.039 135.242 176.476 135.249C175.938 135.246 175.407 135.383 174.923 135.648C174.714 135.807 174.55 136.032 174.453 136.295C174.357 136.567 174.337 136.866 174.395 137.152C174.535 137.762 174.799 138.326 175.168 138.8C175.577 139.298 175.944 139.838 176.263 140.413C176.423 140.727 176.53 141.072 176.579 141.429C176.617 141.805 176.561 142.184 176.418 142.526C176.093 143.153 175.611 143.658 175.033 143.978C174.5 144.3 173.995 144.677 173.525 145.104C173.319 145.302 173.156 145.551 173.048 145.83C172.959 146.117 172.937 146.425 172.984 146.724C173.162 147.329 173.467 147.877 173.873 148.321C174.287 148.801 174.661 149.324 174.988 149.883C175.156 150.178 175.264 150.512 175.303 150.86C175.342 151.208 175.311 151.562 175.213 151.895C174.985 152.513 174.622 153.055 174.156 153.471C173.725 153.892 173.248 154.197 172.868 154.604C172.458 154.964 172.115 155.41 171.856 155.918C171.734 156.151 171.661 156.412 171.644 156.682C171.628 156.952 171.667 157.223 171.759 157.472C171.987 157.96 172.308 158.385 172.7 158.714C173.098 159.061 173.479 159.432 173.841 159.825C174.032 160.029 174.176 160.283 174.26 160.564C174.344 160.845 174.366 161.145 174.324 161.438C174.194 161.989 173.877 162.461 173.441 162.752C173.048 163.05 172.642 163.268 172.268 163.478C171.896 163.681 171.568 163.973 171.308 164.335C171.203 164.508 171.138 164.708 171.12 164.916C171.102 165.124 171.131 165.334 171.205 165.526C171.527 166.303 172.249 166.754 172.707 167.422C172.953 167.746 173.089 168.157 173.093 168.584C173.071 168.982 172.936 169.362 172.707 169.666C172.296 170.168 171.804 170.578 171.257 170.872C170.817 171.119 170.427 171.465 170.11 171.888C169.982 172.05 169.895 172.247 169.858 172.459C169.821 172.671 169.834 172.89 169.897 173.094C169.983 173.394 170.158 173.651 170.393 173.82C170.466 173.873 170.548 173.908 170.633 173.924C170.718 173.94 170.805 173.937 170.89 173.915C170.948 173.965 171.025 173.922 171.031 173.929Z"
        fill="#455A64" />
    <path
        d="M155.619 164.939C155.619 164.939 155.69 164.939 155.819 164.881C155.907 164.832 155.985 164.76 156.045 164.672C156.105 164.584 156.147 164.481 156.166 164.372C156.242 164.015 156.21 163.639 156.076 163.305C155.837 162.874 155.57 162.464 155.277 162.077C155.105 161.823 154.994 161.523 154.955 161.206C154.939 161.027 154.955 160.847 155.002 160.676C155.05 160.505 155.128 160.347 155.232 160.211C155.638 159.63 156.302 159.31 156.714 158.671C156.815 158.511 156.884 158.328 156.914 158.134C156.944 157.941 156.935 157.742 156.888 157.553C156.767 157.136 156.569 156.752 156.308 156.427C156.057 156.071 155.767 155.701 155.516 155.301C155.222 154.876 155.065 154.351 155.071 153.812C155.095 153.528 155.177 153.254 155.311 153.012C155.445 152.77 155.628 152.566 155.844 152.418C156.276 152.115 156.755 151.908 157.255 151.808C157.764 151.706 158.267 151.663 158.763 151.532C159.247 151.438 159.695 151.185 160.052 150.806C160.213 150.584 160.331 150.326 160.397 150.05C160.464 149.773 160.478 149.484 160.438 149.201C160.35 148.58 160.212 147.97 160.026 147.378C159.814 146.742 159.714 146.067 159.73 145.388C159.75 145.02 159.858 144.665 160.041 144.359C160.225 144.054 160.478 143.81 160.773 143.652C161.933 142.984 163.293 143.289 164.311 142.519C164.555 142.344 164.748 142.091 164.865 141.793C164.964 141.483 164.98 141.147 164.91 140.827C164.711 140.139 164.452 139.475 164.137 138.844C163.98 138.488 163.886 138.101 163.86 137.704C163.85 137.492 163.879 137.279 163.944 137.079C164.01 136.88 164.11 136.697 164.24 136.542C164.798 136.052 165.469 135.752 166.173 135.678C166.817 135.533 167.526 135.293 167.674 134.61C167.822 133.928 167.423 133.158 167.468 132.33C167.5 131.509 167.749 130.718 168.183 130.058C168.617 129.398 169.216 128.899 169.904 128.626C171.315 128.11 172.687 128.844 173.911 128.502C174.21 128.452 174.492 128.318 174.732 128.113C174.971 127.907 175.161 127.636 175.284 127.326C175.409 126.633 175.455 125.926 175.419 125.22C175.434 124.833 175.533 124.456 175.709 124.123C175.901 123.792 176.18 123.538 176.508 123.397C177.137 123.17 177.813 123.17 178.441 123.397C179.04 123.571 179.594 123.833 180.155 123.949C180.699 124.088 181.269 124.024 181.779 123.767C182.784 123.244 183.506 122.235 184.356 121.472C185.169 120.765 186.109 120.268 187.112 120.017C188.114 119.766 189.153 119.767 190.155 120.02C191.816 120.377 193.303 121.411 194.33 122.925C195.101 124.054 195.622 125.373 195.851 126.774C195.999 127.653 196.027 128.551 195.935 129.439C195.907 129.75 195.854 130.056 195.774 130.354C195.774 130.354 195.825 130.035 195.864 129.432C195.927 128.553 195.88 127.667 195.722 126.803C195.476 125.435 194.948 124.152 194.182 123.056C193.051 121.46 191.412 120.428 189.614 120.178C187.816 119.928 186.003 120.481 184.562 121.719C183.738 122.446 183.022 123.491 181.921 124.072C181.36 124.36 180.732 124.439 180.129 124.297C179.524 124.167 178.963 123.905 178.39 123.738C177.832 123.538 177.233 123.538 176.676 123.738C176.412 123.843 176.186 124.042 176.031 124.305C175.887 124.588 175.807 124.908 175.799 125.234C175.836 125.965 175.784 126.698 175.645 127.413C175.506 127.781 175.287 128.104 175.007 128.35C174.728 128.597 174.397 128.759 174.047 128.822C172.668 129.185 171.308 128.459 170.065 128.946C169.443 129.196 168.901 129.649 168.508 130.248C168.116 130.847 167.891 131.564 167.861 132.308C167.857 132.686 167.901 133.062 167.99 133.426C168.103 133.828 168.125 134.255 168.054 134.668C168.001 134.881 167.908 135.079 167.781 135.248C167.654 135.417 167.497 135.554 167.32 135.649C166.995 135.816 166.653 135.938 166.302 136.012C165.661 136.062 165.044 136.314 164.524 136.738C164.425 136.858 164.348 136.999 164.299 137.152C164.249 137.305 164.227 137.468 164.234 137.632C164.259 137.981 164.344 138.321 164.485 138.634C164.806 139.289 165.071 139.977 165.277 140.689C165.357 141.083 165.332 141.495 165.206 141.873C165.074 142.234 164.85 142.542 164.562 142.759C163.999 143.13 163.369 143.353 162.719 143.412C162.124 143.465 161.541 143.627 160.993 143.892C160.745 144.024 160.532 144.229 160.377 144.484C160.222 144.739 160.13 145.036 160.11 145.344C160.095 145.981 160.189 146.615 160.387 147.211C160.575 147.823 160.716 148.452 160.806 149.092C160.846 149.42 160.826 149.755 160.745 150.074C160.664 150.393 160.524 150.689 160.335 150.944C159.935 151.389 159.421 151.683 158.866 151.786C158.351 151.917 157.829 151.96 157.352 152.055C156.884 152.139 156.435 152.327 156.031 152.607C155.843 152.73 155.683 152.902 155.565 153.107C155.446 153.313 155.372 153.547 155.348 153.791C155.347 154.268 155.485 154.732 155.741 155.112C155.986 155.512 156.27 155.839 156.521 156.238C156.796 156.59 157.002 157.003 157.127 157.451C157.178 157.672 157.185 157.903 157.148 158.128C157.112 158.352 157.032 158.565 156.914 158.751C156.444 159.441 155.773 159.746 155.4 160.276C155.308 160.395 155.238 160.533 155.193 160.683C155.149 160.832 155.132 160.99 155.142 161.148C155.176 161.44 155.276 161.717 155.432 161.954C155.722 162.351 155.982 162.773 156.212 163.217C156.345 163.576 156.368 163.975 156.276 164.35C156.253 164.469 156.203 164.579 156.132 164.67C156.061 164.761 155.971 164.831 155.87 164.873C155.797 164.931 155.707 164.955 155.619 164.939Z"
        fill="#455A64" />
    <path
        d="M209.228 165.44C209.341 165.534 209.474 165.594 209.614 165.614C209.817 165.602 210.014 165.528 210.183 165.4C210.352 165.272 210.487 165.095 210.574 164.888C210.845 164.372 210.69 163.602 210.613 162.709C210.581 162.229 210.638 161.747 210.78 161.293C210.944 160.818 211.084 160.333 211.199 159.84C211.261 159.583 211.259 159.311 211.193 159.055C211.127 158.799 211 158.568 210.825 158.388C210.393 158.038 209.902 157.791 209.382 157.661C208.77 157.53 208.201 157.216 207.733 156.754C207.619 156.602 207.537 156.423 207.491 156.231C207.445 156.039 207.438 155.838 207.468 155.642C207.545 155.258 207.717 154.905 207.965 154.626C208.396 154.074 208.976 153.631 209.189 152.984C209.265 152.647 209.226 152.289 209.081 151.982C208.935 151.674 208.694 151.439 208.403 151.321C207.829 150.951 207.114 150.886 206.399 150.53C206.032 150.358 205.715 150.074 205.484 149.709C205.258 149.33 205.143 148.88 205.155 148.424C205.201 147.563 205.422 146.726 205.8 145.976C206.142 145.299 206.383 144.563 206.515 143.797C206.55 143.435 206.511 143.069 206.399 142.728C206.287 142.386 206.106 142.078 205.871 141.829C205.426 141.299 204.865 140.885 204.389 140.377C203.894 139.885 203.541 139.237 203.377 138.517C203.242 137.851 203.188 137.167 203.216 136.484C203.324 135.304 203.247 134.112 202.99 132.962C202.712 132.042 202.226 131.221 201.579 130.579C201.096 130.084 200.534 129.695 199.923 129.432C199.393 129.223 198.841 129.096 198.28 129.054C198.428 129.037 198.577 129.037 198.725 129.054C199.146 129.079 199.563 129.17 199.962 129.323C200.707 129.611 201.385 130.083 201.948 130.703C202.511 131.324 202.944 132.078 203.216 132.911C203.501 134.093 203.594 135.323 203.493 136.542C203.472 137.196 203.528 137.851 203.66 138.488C203.816 139.146 204.144 139.736 204.601 140.181C205.059 140.667 205.619 141.074 206.103 141.633C206.368 141.922 206.571 142.276 206.695 142.668C206.819 143.06 206.861 143.479 206.818 143.892C206.631 145.577 205.471 146.862 205.484 148.489C205.475 148.872 205.57 149.249 205.755 149.571C205.949 149.879 206.217 150.118 206.528 150.261C207.172 150.588 207.9 150.653 208.557 151.074C208.893 151.266 209.176 151.557 209.376 151.917C209.478 152.104 209.541 152.316 209.559 152.534C209.578 152.753 209.553 152.974 209.485 153.18C209.155 153.848 208.718 154.442 208.197 154.931C207.99 155.164 207.844 155.455 207.771 155.773C207.747 155.921 207.752 156.073 207.785 156.219C207.819 156.364 207.88 156.5 207.965 156.616C208.396 157.026 208.912 157.309 209.466 157.436C210.026 157.585 210.551 157.867 211.006 158.264C211.215 158.482 211.364 158.761 211.438 159.07C211.499 159.367 211.499 159.675 211.438 159.971C211.318 160.48 211.169 160.979 210.993 161.467C210.848 161.89 210.786 162.344 210.813 162.796C210.858 163.639 211.012 164.459 210.69 165.047C210.59 165.271 210.436 165.458 210.246 165.586C210.055 165.715 209.836 165.78 209.614 165.774C209.529 165.761 209.449 165.723 209.381 165.665C209.314 165.606 209.261 165.529 209.228 165.44Z"
        fill="#455A64" />
    <g opacity="0.3">
        <path opacity="0.3" d="M164.665 206.901V226.285L160.213 226.677L158.583 219.727L164.665 206.901Z"
            fill="black" />
    </g>
    <defs>
        <pattern id="pattern0" patternContentUnits="objectBoundingBox" width="1" height="1">
            <use xlink:href="#image0" transform="translate(-0.00061313) scale(0.000670165 0.00126904)" />
        </pattern>
    </defs>
</svg>