<svg viewBox="0 0 280 287" fill="none" xmlns="http://www.w3.org/2000/svg">
    <path
        d="M139.534 287C216.597 287 279.068 251.052 279.068 206.709C279.068 162.365 216.597 126.417 139.534 126.417C62.4715 126.417 0 162.365 0 206.709C0 251.052 62.4715 287 139.534 287Z"
        fill="#F5F5F5"></path>
    <path
        d="M223.649 208.223C236.545 208.223 247 202.188 247 194.745C247 187.301 236.545 181.267 223.649 181.267C210.752 181.267 200.297 187.301 200.297 194.745C200.297 202.188 210.752 208.223 223.649 208.223Z"
        fill="#E0E0E0"></path>
    <path
        d="M102.805 271.313L67.7272 250.997C66.9326 250.534 66.9326 249.783 67.7272 249.32L151.754 200.808C152.203 200.58 152.699 200.461 153.203 200.461C153.706 200.461 154.203 200.58 154.651 200.808L189.785 221.094C190.58 221.551 190.58 222.301 189.785 222.764L105.689 271.313C105.243 271.541 104.748 271.66 104.247 271.66C103.746 271.66 103.251 271.541 102.805 271.313V271.313Z"
        fill="#E0E0E0"></path>
    <path
        d="M82.8945 229.491C82.8945 229.491 84.2585 220.312 81.6743 212.221C79.0901 204.131 74.1658 198.186 68.5907 196.222C63.0156 194.257 57.0525 198.255 62.1708 203.467C67.2892 208.68 77.1129 215.218 78.4957 229.973L82.8945 229.491Z"
        fill="#81F4E1"></path>
    <g opacity="0.15">
        <path opacity="0.15"
            d="M82.8945 229.491C82.8945 229.491 84.2585 220.312 81.6743 212.221C79.0901 204.131 74.1658 198.186 68.5907 196.222C63.0156 194.257 57.0525 198.255 62.1708 203.467C67.2892 208.68 77.1129 215.218 78.4957 229.973L82.8945 229.491Z"
            fill="black"></path>
    </g>
    <path
        d="M81.8495 226.731H81.9121C81.9533 226.727 81.9931 226.714 82.0293 226.694C82.0656 226.673 82.0974 226.646 82.123 226.614C82.1486 226.581 82.1675 226.544 82.1786 226.504C82.1896 226.464 82.1926 226.422 82.1874 226.381C80.1288 210.018 70.3676 200.808 65.4871 198.224C65.4132 198.185 65.3269 198.177 65.2471 198.201C65.1673 198.226 65.1006 198.281 65.0616 198.355C65.0226 198.429 65.0145 198.515 65.0392 198.595C65.0638 198.675 65.1191 198.742 65.193 198.781C69.9734 201.283 79.5406 210.356 81.5617 226.456C81.5702 226.528 81.6036 226.595 81.6561 226.645C81.7086 226.696 81.777 226.726 81.8495 226.731Z"
        fill="white"></path>
    <path
        d="M54.5246 216.495C54.706 217.746 55.7385 218.622 56.7208 219.373C57.7032 220.124 58.7732 220.944 59.086 222.139C59.7117 224.56 56.9211 226.938 57.6469 229.328C57.837 229.818 58.1248 230.264 58.4926 230.64C58.8605 231.015 59.3008 231.312 59.7868 231.512C60.569 231.894 61.4074 232.138 62.2271 232.432C62.6275 232.531 63.0326 232.611 63.441 232.669C64.6725 232.731 65.8494 233.197 66.7886 233.996C68.1839 235.385 68.1088 237.619 68.6657 239.508C69.023 240.633 69.6196 241.667 70.4146 242.538C71.2096 243.41 72.1841 244.099 73.2709 244.558C75.0793 245.328 78.0076 245.691 78.7272 244.996C79.2715 244.47 78.7272 242.255 78.8836 241.523C79.3403 239.63 79.6209 237.699 79.722 235.754C79.7315 234.865 79.8491 233.981 80.0724 233.12C80.3415 232.163 80.6106 231.205 80.8734 230.242C81.1362 229.278 81.6242 228.452 81.5429 227.307C81.4134 226.21 81.1202 225.139 80.6731 224.128C80.281 223.123 79.8785 222.118 79.4655 221.113C79.0208 219.914 78.4303 218.775 77.7072 217.721C77.0368 216.831 76.1913 216.088 75.2229 215.537C74.2544 214.986 73.1834 214.639 72.0758 214.517C70.255 214.324 68.2715 214.83 66.4945 214.248C64.7174 213.667 63.1844 212.734 61.3574 212.371C60.4046 212.133 59.4102 212.116 58.4497 212.319C57.4891 212.523 56.5875 212.943 55.8135 213.548C55.3753 213.897 55.0289 214.348 54.8043 214.862C54.5797 215.375 54.4837 215.936 54.5246 216.495V216.495Z"
        fill="#81F4E1"></path>
    <path
        d="M78.477 239.915C78.5506 239.915 78.6213 239.886 78.6739 239.835C78.7265 239.783 78.7569 239.713 78.7586 239.64C78.9463 222.12 62.4149 214.974 58.3103 214.142C58.2382 214.129 58.1639 214.145 58.1032 214.185C58.0424 214.226 58 214.289 57.9849 214.361C57.9767 214.397 57.976 214.434 57.9827 214.47C57.9894 214.506 58.0035 214.54 58.024 214.571C58.0445 214.601 58.0711 214.627 58.102 214.647C58.1329 214.667 58.1676 214.68 58.2039 214.686C62.2147 215.5 78.3894 222.483 78.2267 239.633C78.2263 239.703 78.2516 239.77 78.2978 239.822C78.344 239.874 78.4079 239.907 78.477 239.915V239.915Z"
        fill="white"></path>
    <path
        d="M61.6764 226.331C61.7334 226.337 61.7908 226.324 61.8391 226.293C63.8106 225.36 65.9638 224.872 68.1452 224.866C70.3267 224.859 72.4827 225.334 74.4598 226.256C74.493 226.27 74.5288 226.278 74.5651 226.279C74.6014 226.279 74.6374 226.273 74.6711 226.259C74.7049 226.246 74.7356 226.226 74.7616 226.201C74.7876 226.175 74.8084 226.145 74.8227 226.112C74.8526 226.044 74.8549 225.968 74.8292 225.899C74.8034 225.83 74.7517 225.774 74.685 225.743C72.625 224.785 70.3789 224.295 68.1073 224.307C65.8358 224.319 63.5949 224.833 61.545 225.811C61.513 225.83 61.485 225.854 61.4625 225.883C61.4401 225.912 61.4237 225.946 61.4144 225.981C61.4051 226.017 61.403 226.054 61.4082 226.09C61.4134 226.127 61.4259 226.162 61.4449 226.193C61.4675 226.235 61.5009 226.27 61.5417 226.294C61.5825 226.318 61.629 226.331 61.6764 226.331V226.331Z"
        fill="white"></path>
    <path opacity="0.05"
        d="M96.9855 108.428L93.0122 110.011C92.9009 110.064 92.7781 110.089 92.6548 110.084C92.5315 110.078 92.4114 110.043 92.3052 109.98L89.6021 108.259L85.5099 115.667C85.3686 115.932 85.3313 116.24 85.4054 116.53C85.4795 116.821 85.6596 117.073 85.9104 117.238L99.5509 125.998C99.806 126.158 100.112 126.216 100.408 126.161L104.162 113.021L96.9855 108.428Z"
        fill="black"></path>
    <path
        d="M105.545 82.9549L92.7932 74.8206C92.8053 74.591 92.7699 74.3613 92.6891 74.146C92.6084 73.9306 92.4841 73.7343 92.3239 73.5692L87.9439 69.4207C87.7151 69.1977 87.5731 68.9005 87.5435 68.5823L100.289 76.7165C100.322 77.0252 100.462 77.3127 100.683 77.53L105.063 81.6847C105.228 81.8509 105.356 82.0498 105.439 82.2686C105.522 82.4874 105.558 82.7213 105.545 82.9549V82.9549Z"
        fill="#FFBA49"></path>
    <path opacity="0.4"
        d="M105.545 82.9549L92.7932 74.8206C92.8053 74.591 92.7699 74.3613 92.6891 74.146C92.6084 73.9306 92.4841 73.7343 92.3239 73.5692L87.9439 69.4207C87.7151 69.1977 87.5731 68.9005 87.5435 68.5823L100.289 76.7165C100.322 77.0252 100.462 77.3127 100.683 77.53L105.063 81.6847C105.228 81.8509 105.356 82.0498 105.439 82.2686C105.522 82.4874 105.558 82.7213 105.545 82.9549V82.9549Z"
        fill="black"></path>
    <path
        d="M115.819 66.5487C115.471 66.6679 115.092 66.6679 114.743 66.5487L109.112 64.3024C108.981 64.2483 108.841 64.2186 108.699 64.2148V64.2148L95.9656 56.0806C96.1047 56.0849 96.2422 56.1124 96.3723 56.1619L102.004 58.4082C102.348 58.5274 102.723 58.5274 103.067 58.4082L115.819 66.5487Z"
        fill="#FFBA49"></path>
    <path opacity="0.2"
        d="M115.819 66.5487C115.471 66.6679 115.092 66.6679 114.743 66.5487L109.112 64.3024C108.981 64.2483 108.841 64.2186 108.699 64.2148V64.2148L95.9656 56.0806C96.1047 56.0849 96.2422 56.1124 96.3723 56.1619L102.004 58.4082C102.348 58.5274 102.723 58.5274 103.067 58.4082L115.819 66.5487Z"
        fill="black"></path>
    <path
        d="M124.198 48.9036C124.12 49.0732 124.063 49.2519 124.029 49.4354L122.702 59.3029C122.673 59.4902 122.621 59.6731 122.546 59.8473L109.807 51.713C109.877 51.5379 109.928 51.3553 109.957 51.1686L111.289 41.3074C111.318 41.1204 111.375 40.9389 111.458 40.7693L124.198 48.9036Z"
        fill="#FFBA49"></path>
    <path opacity="0.2"
        d="M124.198 48.9036C124.12 49.0732 124.063 49.2519 124.029 49.4354L122.702 59.3029C122.673 59.4902 122.621 59.6731 122.546 59.8473L109.807 51.713C109.877 51.5379 109.928 51.3553 109.957 51.1686L111.289 41.3074C111.318 41.1204 111.375 40.9389 111.458 40.7693L124.198 48.9036Z"
        fill="black"></path>
    <path
        d="M153.531 54.8794L163.543 61.2429C163.444 61.1983 163.338 61.1752 163.23 61.1752C163.122 61.1752 163.015 61.1983 162.917 61.2429L154.833 64.4591C154.705 64.5127 154.567 64.5376 154.428 64.532C154.29 64.5264 154.154 64.4903 154.031 64.4264C153.908 64.3625 153.801 64.2724 153.717 64.1623C153.632 64.0522 153.573 63.925 153.544 63.7896C153.177 62.3947 152.641 61.0499 151.948 59.785C151.803 59.4856 151.728 59.1572 151.728 58.8245C151.728 58.4918 151.803 58.1634 151.948 57.864L153.531 54.8794Z"
        fill="#FFBA49"></path>
    <path
        d="M151.629 42.3149C151.374 42.1662 151.074 42.1159 150.785 42.1736C150.495 42.2312 150.237 42.3928 150.059 42.6278L143.038 52.2387C142.902 52.4161 142.731 52.5649 142.538 52.6767L138.946 50.3616L135.598 48.2154L135.342 43.6602C135.343 43.5364 135.314 43.4143 135.256 43.305C135.198 43.1956 135.113 43.1026 135.01 43.0345H134.973L132.313 41.345L137.319 34.506C137.498 34.2708 137.757 34.1099 138.047 34.0545C138.337 33.999 138.637 34.0529 138.89 34.2056L144.483 37.7785L151.629 42.3149Z"
        fill="#FFBA49"></path>
    <path
        d="M102.479 91.3712C102.306 91.612 102.094 91.8233 101.853 91.9969L93.4689 97.3593C93.2151 97.517 93.001 97.7311 92.8432 97.985L80.1162 89.8507C80.2649 89.6042 80.463 89.3911 80.6981 89.225L89.0889 83.8689C89.327 83.6921 89.5379 83.4812 89.7147 83.2432L102.479 91.3712Z"
        fill="#FFBA49"></path>
    <path
        d="M108.499 64.2086C108.296 64.2338 108.102 64.3028 107.929 64.4109C107.756 64.519 107.609 64.6635 107.498 64.8343L100.446 75.8782C100.282 76.1411 100.217 76.4541 100.264 76.7604L87.5248 68.6262C87.4829 68.326 87.5471 68.0206 87.7063 67.7627L94.7456 56.7251C94.8664 56.541 95.0292 56.3882 95.2207 56.2794C95.4122 56.1706 95.6268 56.1089 95.8468 56.0994L108.499 64.2086Z"
        fill="#FFBA49"></path>
    <path
        d="M134.973 43.0222C134.862 42.9797 134.743 42.9627 134.625 42.9725C134.507 42.9822 134.393 43.0185 134.291 43.0785L130.536 45.0182L125.143 47.8214C124.715 48.0725 124.376 48.4509 124.173 48.9039L111.427 40.7696C111.642 40.3264 111.99 39.9612 112.422 39.7247L121.551 34.988C121.689 34.9112 121.844 34.8724 122.002 34.8754C122.096 34.8736 122.188 34.9021 122.264 34.9568L126.444 37.6098L126.55 37.6786L132.313 41.3641L134.973 43.0222Z"
        fill="#FFBA49"></path>
    <path opacity="0.1"
        d="M153.531 54.8794L163.543 61.2429C163.444 61.1983 163.338 61.1752 163.23 61.1752C163.122 61.1752 163.015 61.1983 162.917 61.2429L154.833 64.4591C154.705 64.5127 154.567 64.5376 154.428 64.532C154.29 64.5264 154.154 64.4903 154.031 64.4264C153.908 64.3625 153.801 64.2724 153.717 64.1623C153.632 64.0522 153.573 63.925 153.544 63.7896C153.177 62.3947 152.641 61.0499 151.948 59.785C151.803 59.4856 151.728 59.1572 151.728 58.8245C151.728 58.4918 151.803 58.1634 151.948 57.864L153.531 54.8794Z"
        fill="black"></path>
    <path opacity="0.2"
        d="M151.629 42.3149C151.374 42.1662 151.074 42.1159 150.785 42.1736C150.495 42.2312 150.237 42.3928 150.059 42.6278L143.038 52.2387C142.902 52.4161 142.731 52.5649 142.538 52.6767L138.946 50.3616L135.598 48.2154L135.342 43.6602C135.343 43.5364 135.314 43.4143 135.256 43.305C135.198 43.1956 135.113 43.1026 135.01 43.0345H134.973L132.313 41.345L137.319 34.506C137.498 34.2708 137.757 34.1099 138.047 34.0545C138.337 33.999 138.637 34.0529 138.89 34.2056L144.483 37.7785L151.629 42.3149Z"
        fill="black"></path>
    <path opacity="0.2"
        d="M102.479 91.3712C102.306 91.612 102.094 91.8233 101.853 91.9969L93.4689 97.3593C93.2151 97.517 93.001 97.7311 92.8432 97.985L80.1162 89.8507C80.2649 89.6042 80.463 89.3911 80.6981 89.225L89.0889 83.8689C89.327 83.6921 89.5379 83.4812 89.7147 83.2432L102.479 91.3712Z"
        fill="black"></path>
    <path opacity="0.1"
        d="M108.499 64.2086C108.296 64.2338 108.102 64.3028 107.929 64.4109C107.756 64.519 107.609 64.6635 107.498 64.8343L100.446 75.8782C100.282 76.1411 100.217 76.4541 100.264 76.7604L87.5248 68.6262C87.4829 68.326 87.5471 68.0206 87.7063 67.7627L94.7456 56.7251C94.8664 56.541 95.0292 56.3882 95.2207 56.2794C95.4122 56.1706 95.6268 56.1089 95.8468 56.0994L108.499 64.2086Z"
        fill="black"></path>
    <path opacity="0.1"
        d="M134.973 43.0222C134.862 42.9797 134.743 42.9627 134.625 42.9725C134.507 42.9822 134.393 43.0185 134.291 43.0785L130.536 45.0182L125.143 47.8214C124.715 48.0725 124.376 48.4509 124.173 48.9039L111.427 40.7696C111.642 40.3264 111.99 39.9612 112.422 39.7247L121.551 34.988C121.689 34.9112 121.844 34.8724 122.002 34.8754C122.096 34.8736 122.188 34.9021 122.264 34.9568L126.444 37.6098L126.55 37.6786L132.313 41.3641L134.973 43.0222Z"
        fill="black"></path>
    <path opacity="0.15"
        d="M104.15 112.996L96.9855 108.428L101.084 106.795C101.211 106.739 101.35 106.712 101.489 106.716C101.628 106.72 101.765 106.755 101.889 106.819C102.013 106.882 102.121 106.973 102.206 107.083C102.291 107.194 102.35 107.322 102.379 107.458C102.744 108.855 103.28 110.202 103.975 111.469C104.212 111.941 104.274 112.482 104.15 112.996V112.996Z"
        fill="black"></path>
    <path opacity="0.15"
        d="M120.819 128.175L110.808 121.799L112.835 119.034C113.05 118.777 113.321 118.574 113.627 118.438C113.932 118.303 114.265 118.239 114.599 118.251C116.039 118.344 117.484 118.262 118.904 118.007C119.039 117.977 119.18 117.977 119.315 118.007C119.45 118.037 119.577 118.096 119.687 118.181C119.796 118.266 119.885 118.374 119.948 118.498C120.011 118.622 120.045 118.757 120.049 118.896L120.537 127.581C120.536 127.695 120.561 127.808 120.61 127.911C120.658 128.014 120.73 128.104 120.819 128.175V128.175Z"
        fill="black"></path>
    <path
        d="M163.855 61.787C163.844 61.6438 163.792 61.507 163.705 61.3928L163.618 61.3052L163.518 61.2426C163.437 61.2051 163.35 61.1838 163.261 61.18C163.128 61.1749 162.996 61.1984 162.873 61.2489L154.795 64.4713C154.667 64.525 154.529 64.5499 154.391 64.5442C154.252 64.5386 154.117 64.5025 153.994 64.4387C153.871 64.3748 153.763 64.2846 153.679 64.1745C153.595 64.0645 153.536 63.9372 153.506 63.8018C153.425 63.5014 153.337 63.2073 153.243 62.9133C153.149 62.6192 153.081 62.4315 152.999 62.1999C152.88 61.8558 152.743 61.5179 152.599 61.1988C152.53 61.0361 152.455 60.8734 152.386 60.717L152.161 60.254C152.086 60.0975 152.004 59.9536 151.923 59.8035C151.833 59.6385 151.768 59.4615 151.729 59.2779C151.62 58.8086 151.675 58.316 151.886 57.8825L153.537 54.8854L157.636 47.4707C157.778 47.2068 157.816 46.8995 157.743 46.609C157.67 46.3184 157.491 46.0656 157.242 45.9001L151.654 42.3335H151.585H151.535L151.41 42.2835H151.347H151.279H151.135C150.962 42.2774 150.79 42.3071 150.63 42.3706C150.47 42.4341 150.324 42.5302 150.202 42.6527C150.166 42.6856 150.134 42.7235 150.109 42.7653L147.531 46.2881L143.038 52.2386C143.008 52.2826 142.972 52.3226 142.932 52.3575C142.907 52.3931 142.878 52.4247 142.844 52.4513C142.751 52.5388 142.648 52.6144 142.537 52.6766C142.161 52.908 141.727 53.0273 141.286 53.0207C140.81 52.9832 140.322 52.9707 139.828 52.9769C138.873 52.9993 137.922 53.0935 136.981 53.2585C136.845 53.2901 136.705 53.2912 136.569 53.2616C136.432 53.232 136.305 53.1725 136.195 53.0875C136.084 53.0024 135.994 52.8939 135.931 52.7698C135.868 52.6457 135.834 52.5092 135.83 52.37L135.598 48.2403L135.348 43.6851C135.343 43.6151 135.33 43.5459 135.31 43.4786C135.299 43.4153 135.278 43.3541 135.248 43.2971C135.224 43.254 135.194 43.2141 135.16 43.1783C135.162 43.1734 135.164 43.168 135.164 43.1626C135.164 43.1572 135.162 43.1519 135.16 43.147L135.035 43.0531H134.991L134.897 43.0218C134.703 42.9848 134.501 43.018 134.328 43.1157L125.143 47.8211C125.022 47.8823 124.91 47.9602 124.811 48.0526L124.723 48.1339C124.605 48.2487 124.498 48.3744 124.404 48.5093C124.348 48.5844 124.304 48.6533 124.254 48.7346L124.173 48.9035C124.131 48.9905 124.095 49.0805 124.066 49.1726C124.038 49.2583 124.017 49.3462 124.004 49.4354L123.059 56.4622L122.677 59.3029C122.677 59.403 122.633 59.5156 122.602 59.6283C122.583 59.7041 122.556 59.7776 122.521 59.8473C122.337 60.324 122.045 60.7521 121.67 61.0987C119.832 62.6488 118.101 64.3211 116.489 66.1044C116.298 66.307 116.056 66.454 115.788 66.5299C115.688 66.5624 115.586 66.5854 115.482 66.5987H115.331C115.118 66.6144 114.905 66.5824 114.706 66.5049L109.074 64.2585C109.014 64.2332 108.951 64.2144 108.887 64.2022C108.831 64.1931 108.774 64.1931 108.718 64.2022H108.655C108.595 64.196 108.534 64.196 108.474 64.2022C108.265 64.2217 108.064 64.2881 107.885 64.3965C107.707 64.5049 107.555 64.6524 107.441 64.8279L106.014 67.068L101.835 73.6317L100.402 75.8718C100.294 76.0494 100.227 76.249 100.207 76.4558C100.186 76.6627 100.212 76.8715 100.283 77.0669C100.349 77.2576 100.461 77.4293 100.608 77.5675L104.988 81.7222C105.21 81.9554 105.362 82.2464 105.426 82.5617C105.49 82.8771 105.464 83.2041 105.351 83.5055C104.412 85.7173 103.622 87.9896 102.986 90.307C102.771 90.9814 102.346 91.5691 101.772 91.9839L99.4445 93.5357L93.469 97.3588C93.1934 97.5561 92.9631 97.81 92.7937 98.1035C92.6243 98.397 92.5196 98.7234 92.4866 99.0607L92.0298 109.341C92.0056 109.466 92.0178 109.595 92.065 109.713C92.1121 109.831 92.1922 109.933 92.2958 110.007C92.3993 110.081 92.5219 110.124 92.6489 110.13C92.7759 110.136 92.902 110.105 93.0122 110.042L101.09 106.826C101.218 106.771 101.356 106.745 101.495 106.75C101.634 106.754 101.77 106.79 101.894 106.853C102.017 106.916 102.126 107.006 102.211 107.116C102.296 107.226 102.355 107.353 102.385 107.489C102.627 108.413 102.941 109.317 103.324 110.192C103.524 110.649 103.737 111.081 103.95 111.5C104.104 111.795 104.187 112.123 104.194 112.456C104.2 112.789 104.13 113.119 103.987 113.421L98.2369 123.795C98.0941 124.059 98.056 124.368 98.1302 124.659C98.2044 124.95 98.3855 125.202 98.6373 125.366L104.219 128.926C104.472 129.085 104.776 129.143 105.071 129.088C105.365 129.034 105.628 128.871 105.808 128.632L110.814 121.799L112.841 119.033C113.055 118.778 113.325 118.574 113.63 118.439C113.934 118.303 114.266 118.239 114.599 118.251C116.039 118.344 117.484 118.262 118.904 118.007C119.04 117.977 119.18 117.977 119.316 118.007C119.451 118.037 119.579 118.096 119.689 118.181C119.798 118.266 119.888 118.374 119.952 118.498C120.015 118.621 120.051 118.757 120.056 118.896L120.544 127.581C120.542 127.69 120.563 127.798 120.606 127.899C120.649 127.999 120.713 128.089 120.794 128.163V128.163C120.841 128.198 120.894 128.223 120.95 128.238C121.054 128.271 121.163 128.281 121.271 128.268C121.379 128.255 121.483 128.219 121.576 128.163L130.705 123.42C130.849 123.342 130.982 123.245 131.099 123.132C131.227 123.01 131.342 122.876 131.443 122.731C131.645 122.456 131.778 122.136 131.831 121.799L133.17 111.938C133.306 111.245 133.659 110.614 134.178 110.136C136.013 108.587 137.74 106.915 139.346 105.13C139.572 104.9 139.858 104.739 140.172 104.666C140.485 104.593 140.813 104.611 141.117 104.717L146.748 106.963C147.04 107.068 147.358 107.073 147.653 106.976C147.948 106.88 148.202 106.688 148.375 106.432L155.44 95.4128C155.598 95.1456 155.662 94.8335 155.624 94.5255C155.585 94.2175 155.446 93.9309 155.227 93.7109L150.797 89.5561C150.575 89.3229 150.423 89.032 150.359 88.7166C150.295 88.4013 150.321 88.0742 150.434 87.7728C151.376 85.5621 152.166 83.2896 152.799 80.9713C153.016 80.2978 153.441 79.7105 154.013 79.2944L162.398 73.9383C162.674 73.7395 162.904 73.4845 163.075 73.1901C163.245 72.8957 163.351 72.5685 163.386 72.2301L163.843 61.9497C163.862 61.8933 163.855 61.837 163.855 61.787ZM142.068 86.0584C141.63 87.185 141.133 88.2878 140.579 89.3622C139.466 91.548 138.144 93.6205 136.631 95.5505C135.899 96.4924 135.118 97.3947 134.29 98.2535C132.225 100.471 129.809 102.334 127.139 103.766C125.092 104.915 122.801 105.559 120.456 105.643C115.932 105.643 112.703 102.609 111.965 97.3338C111.896 96.8332 111.852 96.3076 111.827 95.7632C111.827 95.5505 111.827 95.3315 111.827 95.1062V94.737C111.827 94.4993 111.827 94.2678 111.827 94.03C112.272 84.0186 119.849 72.13 128.753 67.5185C129.022 67.3746 129.285 67.2432 129.554 67.1243C129.685 67.0555 129.823 66.9992 129.948 66.9429L130.342 66.7802C130.823 66.5773 131.314 66.3998 131.813 66.2483C136.906 64.6965 141.004 66.3484 142.913 70.4469C143.832 72.5966 144.222 74.9354 144.052 77.2671C143.875 80.2862 143.205 83.256 142.068 86.0584Z"
        fill="#FFBA49"></path>
    <path
        d="M60.2563 77.0418L59.7557 88.2671C66.6886 84.4064 73.2273 78.581 78.7899 71.6857L73.34 65.6538C69.7004 70.207 65.268 74.065 60.2563 77.0418Z"
        fill="#FFBA49"></path>
    <path opacity="0.8"
        d="M60.2563 77.0418L59.7557 88.2671C66.6886 84.4064 73.2273 78.581 78.7899 71.6857L73.34 65.6538C69.7004 70.207 65.268 74.065 60.2563 77.0418Z"
        fill="white"></path>
    <path d="M53.2983 72.5806L52.7977 83.8059L59.7557 88.2672L60.2562 77.0419L53.2983 72.5806Z" fill="#FFBA49"></path>
    <path opacity="0.65" d="M53.2983 72.5806L52.7977 83.8059L59.7557 88.2672L60.2562 77.0419L53.2983 72.5806Z"
        fill="white"></path>
    <path d="M53.2983 72.5806L52.7977 83.8059L59.7557 88.2672L60.2562 77.0419L53.2983 72.5806Z" fill="#FFBA49"></path>
    <path opacity="0.05" d="M53.2983 72.5806L52.7977 83.8059L59.7557 88.2672L60.2562 77.0419L53.2983 72.5806Z"
        fill="black"></path>
    <path
        d="M60.2562 77.0419C65.2678 74.0651 69.7002 70.2072 73.3398 65.654L66.3756 61.1926C62.7368 65.7442 58.3067 69.602 53.2982 72.5806L60.2562 77.0419Z"
        fill="#FFBA49"></path>
    <path opacity="0.6"
        d="M60.2562 77.0419C65.2678 74.0651 69.7002 70.2072 73.3398 65.654L66.3756 61.1926C62.7368 65.7442 58.3067 69.602 53.2982 72.5806L60.2562 77.0419Z"
        fill="white"></path>
    <path
        d="M45.1077 80.3206L38.8506 92.4344C44.0503 93.7422 50.3637 92.8849 57.2716 89.5624L57.7722 78.2996C53.048 80.5334 48.7181 81.1466 45.1077 80.3206Z"
        fill="#FFBA49"></path>
    <path opacity="0.65"
        d="M45.1077 80.3206L38.8506 92.4344C44.0503 93.7422 50.3637 92.8849 57.2716 89.5624L57.7722 78.2996C53.048 80.5334 48.7181 81.1466 45.1077 80.3206Z"
        fill="white"></path>
    <path d="M38.1435 75.8594L31.8864 87.9732L38.8505 92.4345L45.1077 80.3207L38.1435 75.8594Z" fill="#FFBA49"></path>
    <path opacity="0.55" d="M38.1435 75.8594L31.8864 87.9732L38.8505 92.4345L45.1077 80.3207L38.1435 75.8594Z"
        fill="white"></path>
    <path d="M38.1435 75.8594L31.8864 87.9732L38.8505 92.4345L45.1077 80.3207L38.1435 75.8594Z" fill="#FFBA49"></path>
    <path opacity="0.1" d="M38.1435 75.8594L31.8864 87.9732L38.8505 92.4345L45.1077 80.3207L38.1435 75.8594Z"
        fill="black"></path>
    <path
        d="M50.8079 73.8694C46.0837 76.0719 41.7538 76.6851 38.1434 75.8591L45.1076 80.3205C48.718 81.1464 53.0479 80.5332 57.7721 78.3307L50.8079 73.8694Z"
        fill="#FFBA49"></path>
    <path opacity="0.55"
        d="M50.8079 73.8694C46.0837 76.0719 41.7538 76.6851 38.1434 75.8591L45.1076 80.3205C48.718 81.1464 53.0479 80.5332 57.7721 78.3307L50.8079 73.8694Z"
        fill="white"></path>
    <path
        d="M35.772 71.5232L26.1235 79.9265C28.1196 85.8583 31.9051 89.9379 36.9171 91.8151L43.1742 79.7138C39.7703 78.3497 37.1987 75.534 35.772 71.5232Z"
        fill="#FFBA49"></path>
    <path opacity="0.55"
        d="M35.772 71.5232L26.1235 79.9265C28.1196 85.8583 31.9051 89.9379 36.9171 91.8151L43.1742 79.7138C39.7703 78.3497 37.1987 75.534 35.772 71.5232Z"
        fill="white"></path>
    <path
        d="M26.1236 79.9267L19.1594 75.4653C20.7112 80.0643 23.3392 83.5245 26.7806 85.7646L33.7385 90.2259C30.2971 88.0109 27.6691 84.5257 26.1236 79.9267Z"
        fill="#FFBA49"></path>
    <path opacity="0.45"
        d="M26.1236 79.9267L19.1594 75.4653C20.7112 80.0643 23.3392 83.5245 26.7806 85.7646L33.7385 90.2259C30.2971 88.0109 27.6691 84.5257 26.1236 79.9267Z"
        fill="white"></path>
    <path d="M28.8079 67.0618L19.1594 75.4651L26.1236 79.9264L35.7721 71.5231L28.8079 67.0618Z" fill="#FFBA49"></path>
    <path opacity="0.55" d="M28.8079 67.0618L19.1594 75.4651L26.1236 79.9264L35.7721 71.5231L28.8079 67.0618Z"
        fill="white"></path>
    <path d="M28.8079 67.0618L19.1594 75.4651L26.1236 79.9264L35.7721 71.5231L28.8079 67.0618Z" fill="#FFBA49"></path>
    <path opacity="0.1" d="M28.8079 67.0618L19.1594 75.4651L26.1236 79.9264L35.7721 71.5231L28.8079 67.0618Z"
        fill="black"></path>
    <path
        d="M75.4235 62.9635L80.8672 68.9891C86.2728 61.7408 90.4499 53.653 93.2313 45.0493L83.8956 46.5072C81.9448 52.4 79.0864 57.9522 75.4235 62.9635V62.9635Z"
        fill="#FFBA49"></path>
    <path opacity="0.85"
        d="M75.4235 62.9635L80.8672 68.9891C86.2728 61.7408 90.4499 53.653 93.2313 45.0493L83.8956 46.5072C81.9448 52.4 79.0864 57.9522 75.4235 62.9635V62.9635Z"
        fill="white"></path>
    <path d="M86.2984 40.5881L76.9628 42.046L83.9207 46.5074L93.2563 45.0495L86.2984 40.5881Z" fill="#FFBA49"></path>
    <path opacity="0.75" d="M86.2984 40.5881L76.9628 42.046L83.9207 46.5074L93.2563 45.0495L86.2984 40.5881Z"
        fill="white"></path>
    <path d="M86.2984 40.5881L76.9628 42.046L83.9207 46.5074L93.2563 45.0495L86.2984 40.5881Z" fill="#FFBA49"></path>
    <path
        d="M76.9628 42.0457C75.0069 47.9403 72.1374 53.4912 68.4594 58.4957L75.4235 62.957C79.0953 57.9473 81.9622 52.395 83.9207 46.5007L76.9628 42.0457Z"
        fill="#FFBA49"></path>
    <path opacity="0.65"
        d="M76.9628 42.0457C75.0069 47.9403 72.1374 53.4912 68.4594 58.4957L75.4235 62.957C79.0953 57.9473 81.9622 52.395 83.9207 46.5007L76.9628 42.0457Z"
        fill="white"></path>
    <path d="M75.4235 62.9635L68.4594 58.5022L73.9031 64.5278L80.8672 68.9892L75.4235 62.9635Z" fill="#FFBA49"></path>
    <path opacity="0.75" d="M75.4235 62.9635L68.4594 58.5022L73.9031 64.5278L80.8672 68.9892L75.4235 62.9635Z"
        fill="white"></path>
    <path d="M75.4235 62.9635L68.4594 58.5022L73.9031 64.5278L80.8672 68.9892L75.4235 62.9635Z" fill="#FFBA49"></path>
    <path
        d="M96.0219 30.1823C95.8195 34.1738 95.1902 38.1321 94.1447 41.9895L84.8091 43.4787C85.5036 40.8173 85.9229 38.0916 86.0605 35.3444C86.1369 33.7256 86.0741 32.1032 85.8728 30.4952L93.9132 16.1038C94.1134 16.573 94.2886 17.0736 94.4638 17.5742C94.4638 17.5742 94.858 18.7818 95.0896 19.8455C95.8885 23.2295 96.2024 26.7099 96.0219 30.1823V30.1823Z"
        fill="#FFBA49"></path>
    <path opacity="0.9"
        d="M96.0219 30.1823C95.8195 34.1738 95.1902 38.1321 94.1447 41.9895L84.8091 43.4787C85.5036 40.8173 85.9229 38.0916 86.0605 35.3444C86.1369 33.7256 86.0741 32.1032 85.8728 30.4952L93.9132 16.1038C94.1134 16.573 94.2886 17.0736 94.4638 17.5742C94.4638 17.5742 94.858 18.7818 95.0896 19.8455C95.8885 23.2295 96.2024 26.7099 96.0219 30.1823V30.1823Z"
        fill="white"></path>
    <path d="M86.9679 11.6174L78.9275 26.0339L85.8917 30.4952L93.9321 16.0788L86.9679 11.6174Z" fill="#FFBA49"></path>
    <path opacity="0.85" d="M86.9679 11.6174L78.9275 26.0339L85.8917 30.4952L93.9321 16.0788L86.9679 11.6174Z"
        fill="white"></path>
    <path d="M86.9679 11.6174L78.9275 26.0339L85.8917 30.4952L93.9321 16.0788L86.9679 11.6174Z" fill="#FFBA49"></path>
    <path
        d="M85.8916 30.4953L78.9275 26.0339C79.131 27.6418 79.1959 29.2642 79.1214 30.8832C78.9815 33.6198 78.5622 36.3349 77.87 38.9862L84.8092 43.4788C85.5036 40.8174 85.923 38.0917 86.0606 35.3445C86.1432 33.7263 86.0867 32.1039 85.8916 30.4953V30.4953Z"
        fill="#FFBA49"></path>
    <path opacity="0.7"
        d="M86.1232 30.6454L79.1653 26.1841C79.3697 27.7919 79.4325 29.4146 79.353 31.0334C79.2185 33.7808 78.7991 36.5068 78.1016 39.1676L85.0595 43.629C85.7538 40.9675 86.1731 38.2418 86.3109 35.4947C86.3906 33.8759 86.3277 32.2532 86.1232 30.6454V30.6454Z"
        fill="white"></path>
    <path
        d="M92.9747 9.3024C92.9122 9.26486 89.6522 6.96849 89.6522 6.96849C89.5918 6.9257 89.5267 6.89001 89.4582 6.86212L82.9633 4.1778C82.642 4.05411 82.2871 4.04917 81.9625 4.16388C81.6378 4.27859 81.3648 4.50541 81.1925 4.80352L54.9626 51.8321L44.532 46.1006C44.2359 45.9421 43.8905 45.9024 43.5662 45.9896C43.2419 46.0768 42.963 46.2843 42.7863 46.5699L37.6679 54.6666C37.5022 54.9332 37.4487 55.2546 37.519 55.5606C37.5893 55.8665 37.7778 56.1322 38.0434 56.2997C38.0434 56.2997 40.8465 58.3083 41.3659 58.6336C41.3864 58.6518 41.4096 58.6666 41.4347 58.6774L59.5804 68.6889C59.7242 68.7686 59.8823 68.8193 60.0456 68.8379C60.209 68.8566 60.3745 68.8428 60.5325 68.7975C60.6906 68.7522 60.8382 68.6762 60.9668 68.5738C61.0955 68.4714 61.2027 68.3446 61.2823 68.2008L93.3126 10.7791C93.4606 10.5377 93.5082 10.2478 93.445 9.97179C93.3818 9.69573 93.213 9.45542 92.9747 9.3024Z"
        fill="#81F4E1"></path>
    <path
        d="M92.9748 9.3021C92.9122 9.26456 89.6523 6.96819 89.6523 6.96819C89.5919 6.9254 89.5268 6.88971 89.4583 6.86182L82.9634 4.17751C82.7676 4.10074 82.5572 4.06823 82.3474 4.08229C82.1375 4.09636 81.9333 4.15665 81.7495 4.25885L93.0812 11.2168L93.3252 10.7725C93.4702 10.5302 93.5146 10.2407 93.4492 9.96602C93.3837 9.69131 93.2135 9.45306 92.9748 9.3021V9.3021Z"
        fill="#457B9D"></path>
    <path
        d="M92.7808 9.20195L86.2796 6.51764C85.9591 6.39564 85.6056 6.39159 85.2824 6.50621C84.9591 6.62084 84.6872 6.84667 84.5151 7.14335L58.279 54.1782L47.8546 48.4467C47.5595 48.2861 47.2142 48.2446 46.8895 48.3307C46.5649 48.4168 46.2855 48.624 46.1088 48.9097L40.9905 57.044C40.9043 57.1819 40.8473 57.3359 40.823 57.4967C40.7987 57.6575 40.8077 57.8215 40.8493 57.9787C40.891 58.1359 40.9644 58.2828 41.0651 58.4105C41.1658 58.5381 41.2916 58.6438 41.4348 58.7209L59.5804 68.7323C59.7242 68.8121 59.8823 68.8627 60.0457 68.8814C60.209 68.9 60.3745 68.8863 60.5325 68.841C60.6906 68.7957 60.8382 68.7196 60.9668 68.6172C61.0955 68.5148 61.2027 68.3881 61.2824 68.2443L93.3126 10.8225C93.4041 10.686 93.4633 10.5303 93.4857 10.3675C93.508 10.2046 93.493 10.0388 93.4418 9.88259C93.3905 9.7264 93.3044 9.58393 93.1898 9.466C93.0753 9.34806 92.9354 9.25777 92.7808 9.20195V9.20195Z"
        fill="#457B9D"></path>
    <path
        d="M54.9626 51.8256L58.2726 54.172L47.8545 48.4342C47.5585 48.271 47.2102 48.2305 46.8846 48.3216L43.5684 45.9815C43.7284 45.9351 43.8961 45.9213 44.0615 45.9406C44.227 45.9599 44.3869 46.0121 44.532 46.0941L54.9626 51.8256Z"
        fill="#457B9D"></path>
    <path
        d="M34.5268 62.1311C34.6644 59.384 35.0838 56.6583 35.7783 53.9968L26.4677 55.486C25.4221 59.3434 24.7928 63.3018 24.5905 67.2932C24.3983 70.7721 24.6996 74.2606 25.4853 77.655L35.1213 69.2642C34.6073 66.9235 34.4074 64.5247 34.5268 62.1311V62.1311Z"
        fill="#FFBA49"></path>
    <path
        d="M34.5268 62.1311C34.6644 59.384 35.0838 56.6583 35.7783 53.9968L26.4677 55.486C25.4221 59.3434 24.7928 63.3018 24.5905 67.2932C24.3983 70.7721 24.6996 74.2606 25.4853 77.655L35.1213 69.2642C34.6073 66.9235 34.4074 64.5247 34.5268 62.1311V62.1311Z"
        fill="#FFBA49"></path>
    <path d="M28.8328 49.5667L19.5034 51.0246L26.4676 55.4859L35.797 54.028L28.8328 49.5667Z" fill="#FFBA49"></path>
    <path opacity="0.15" d="M28.8328 49.5667L19.5034 51.0246L26.4676 55.4859L35.797 54.028L28.8328 49.5667Z"
        fill="black"></path>
    <path
        d="M26.4678 55.4862L19.5036 51.0249C18.464 54.8836 17.8348 58.8413 17.6264 62.8321C17.4363 66.3113 17.7396 69.7998 18.5275 73.1939L25.4854 77.6553C24.6997 74.2609 24.3984 70.7723 24.5906 67.2934C24.7929 63.302 25.4222 59.3437 26.4678 55.4862V55.4862Z"
        fill="#FFBA49"></path>
    <path opacity="0.3"
        d="M26.4678 55.4862L19.5036 51.0249C18.464 54.8836 17.8348 58.8413 17.6264 62.8321C17.4363 66.3113 17.7396 69.7998 18.5275 73.1939L25.4854 77.6553C24.6997 74.2609 24.3984 70.7723 24.5906 67.2934C24.7929 63.302 25.4222 59.3437 26.4678 55.4862V55.4862Z"
        fill="white"></path>
    <path
        d="M75.4923 17.1613L81.7495 5.02246C76.3433 3.68969 69.9298 4.75966 63.316 7.93202L62.8217 19.1323C67.3643 17.0236 71.7443 16.3228 75.4923 17.1613Z"
        fill="#FFBA49"></path>
    <path opacity="0.3"
        d="M75.4923 17.1613L81.7495 5.02246C76.3433 3.68969 69.9298 4.75966 63.316 7.93202L62.8217 19.1323C67.3643 17.0236 71.7443 16.3228 75.4923 17.1613Z"
        fill="black"></path>
    <path d="M56.3706 3.4707L55.87 14.671L62.8342 19.1323L63.3348 7.93204L56.3706 3.4707Z" fill="#FFBA49"></path>
    <path opacity="0.42" d="M56.3706 3.4707L55.87 14.671L62.8342 19.1323L63.3348 7.93204L56.3706 3.4707Z" fill="black">
    </path>
    <path
        d="M63.3285 7.93193C69.9423 4.75957 76.3559 3.6896 81.7621 5.02237L74.8041 0.561033C69.398 -0.771737 62.9781 0.298234 56.3706 3.4706L63.3285 7.93193Z"
        fill="#FFBA49"></path>
    <path opacity="0.2"
        d="M63.3285 7.93193C69.9423 4.75957 76.3559 3.6896 81.7621 5.02237L74.8041 0.561033C69.398 -0.771737 62.9781 0.298234 56.3706 3.4706L63.3285 7.93193Z"
        fill="black"></path>
    <path
        d="M60.35 20.4335L60.8443 9.20825C53.9177 13.0689 47.379 18.888 41.8164 25.7897L47.2664 31.8153C50.9078 27.2656 55.34 23.4099 60.35 20.4335Z"
        fill="#FFBA49"></path>
    <path opacity="0.2"
        d="M60.35 20.4335L60.8443 9.20825C53.9177 13.0689 47.379 18.888 41.8164 25.7897L47.2664 31.8153C50.9078 27.2656 55.34 23.4099 60.35 20.4335Z"
        fill="black"></path>
    <path
        d="M53.8864 4.74707C46.9284 8.60772 40.4148 14.4269 34.8522 21.3285L41.8164 25.7898C47.379 18.907 53.9177 13.0691 60.8443 9.20841L53.8864 4.74707Z"
        fill="#FFBA49"></path>
    <path opacity="0.1"
        d="M53.8864 4.74707C46.9284 8.60772 40.4148 14.4269 34.8522 21.3285L41.8164 25.7898C47.379 18.907 53.9177 13.0691 60.8443 9.20841L53.8864 4.74707Z"
        fill="black"></path>
    <path d="M41.8164 25.7897L34.8522 21.3284L40.3021 27.354L47.2663 31.8153L41.8164 25.7897Z" fill="#FFBA49"></path>
    <path opacity="0.35" d="M41.8164 25.7897L34.8522 21.3284L40.3021 27.354L47.2663 31.8153L41.8164 25.7897Z"
        fill="black"></path>
    <path
        d="M45.1827 34.5061L39.739 28.4617C34.3226 35.7172 30.1351 43.8133 27.3436 52.4265L36.6855 50.9874C38.6409 45.084 41.508 39.523 45.1827 34.5061V34.5061Z"
        fill="#FFBA49"></path>
    <path opacity="0.1"
        d="M45.1827 34.5061L39.739 28.4617C34.3226 35.7172 30.1351 43.8133 27.3436 52.4265L36.6855 50.9874C38.6409 45.084 41.508 39.523 45.1827 34.5061V34.5061Z"
        fill="black"></path>
    <path
        d="M27.3438 52.4265C30.1352 43.8133 34.3228 35.7172 39.7392 28.4617L32.775 24.0254C27.3605 31.272 23.175 39.3599 20.3859 47.9652L27.3438 52.4265Z"
        fill="#FFBA49"></path>
    <path
        d="M71.5189 108.515L71.4689 108.484L59.4427 100.594L59.3676 100.556C53.7362 97.2837 45.9022 97.7217 37.2361 102.646C19.835 112.532 5.61255 136.779 5.47489 156.795C5.40606 166.807 8.85374 173.815 14.4789 177.15L14.529 177.181L26.5802 185.071L26.6365 185.109C32.2679 188.388 40.1144 187.95 48.7868 183.025C66.1879 173.133 80.4103 148.893 80.548 128.876C80.5918 118.89 77.1441 111.85 71.5189 108.515Z"
        fill="#457B9D"></path>
    <path
        d="M26.136 184.815L14.4977 177.175L14.4414 177.137C8.80998 173.802 5.37481 166.757 5.44364 156.795C5.50621 147.866 8.37198 138.105 13.0648 129.151L25.1161 137.041C20.417 145.989 17.5575 155.75 17.5011 164.679C17.4261 174.447 20.7236 181.392 26.136 184.815Z"
        fill="#263238"></path>
    <path
        d="M71.1193 159.742C83.521 138.595 83.6765 115.648 71.4667 108.487C59.2569 101.326 39.3053 112.664 26.9037 133.811C14.502 154.957 14.3465 177.905 26.5563 185.065C38.7661 192.226 58.7176 180.888 71.1193 159.742Z"
        fill="#455A64"></path>
    <path
        d="M34.7583 180.848C24.822 180.779 23.8271 169.547 23.8584 164.723C23.9772 147.072 37.0484 124.784 52.4034 116.061C56.3079 113.846 60.0621 112.682 63.2595 112.701C73.1959 112.77 74.1907 124.002 74.1595 128.826C74.0343 146.477 60.9632 168.765 45.6144 177.488C41.71 179.709 37.9557 180.866 34.7583 180.848V180.848Z"
        fill="#FAFAFA"></path>
    <path
        d="M50.7704 150.181C50.6503 150.175 50.532 150.15 50.42 150.106C50.2116 150.021 50.035 149.872 49.915 149.682C49.795 149.491 49.7375 149.268 49.7505 149.043L51.1646 123.57C51.1943 123.294 51.3287 123.04 51.54 122.861C51.7514 122.681 52.0235 122.59 52.3003 122.605C52.5772 122.62 52.8376 122.741 53.0279 122.943C53.2182 123.144 53.324 123.411 53.3233 123.689L52.0719 146.02L64.7989 131.423C64.8885 131.304 65.0015 131.205 65.1309 131.132C65.2604 131.06 65.4034 131.014 65.5512 130.999C65.6989 130.984 65.8482 130.999 65.9898 131.044C66.1314 131.089 66.2622 131.162 66.3741 131.26C66.486 131.358 66.5766 131.478 66.6402 131.612C66.7039 131.746 66.7392 131.892 66.744 132.04C66.7489 132.189 66.7231 132.337 66.6684 132.475C66.6136 132.613 66.531 132.738 66.4257 132.843L51.6464 149.85C51.5337 149.966 51.3968 150.056 51.2454 150.113C51.094 150.171 50.9318 150.194 50.7704 150.181V150.181Z"
        fill="#81F4E1"></path>
    <path
        d="M43.6435 168.659C43.5938 168.668 43.543 168.668 43.4933 168.659C43.4366 168.639 43.3845 168.608 43.3398 168.568C43.2952 168.528 43.259 168.48 43.2333 168.426C43.2077 168.371 43.1931 168.313 43.1905 168.253C43.1879 168.193 43.1972 168.133 43.218 168.077L50.3136 148.26C50.3337 148.205 50.3647 148.153 50.4046 148.109C50.4446 148.065 50.4929 148.03 50.5466 148.004C50.6003 147.979 50.6585 147.965 50.7179 147.962C50.7772 147.959 50.8365 147.968 50.8924 147.988C50.9482 148.008 50.9996 148.039 51.0435 148.079C51.0874 148.119 51.1231 148.167 51.1483 148.221C51.1736 148.275 51.188 148.333 51.1908 148.392C51.1936 148.452 51.1847 148.511 51.1645 148.567L44.0752 168.358C44.043 168.447 43.9842 168.523 43.9069 168.577C43.8296 168.631 43.7376 168.659 43.6435 168.659V168.659Z"
        fill="#FFBA49"></path>
    <path
        d="M50.7703 143.993C52.8164 142.83 54.462 143.793 54.4495 146.146C54.3689 147.429 53.987 148.675 53.3347 149.783C52.6824 150.89 51.7781 151.829 50.6952 152.522C48.6429 153.686 46.9973 152.716 47.016 150.363C47.0941 149.08 47.475 147.834 48.1276 146.727C48.7802 145.62 49.6858 144.683 50.7703 143.993V143.993Z"
        fill="#FFBA49"></path>
    <path opacity="0.2"
        d="M50.7703 143.993C52.8164 142.83 54.462 143.793 54.4495 146.146C54.3689 147.429 53.987 148.675 53.3347 149.783C52.6824 150.89 51.7781 151.829 50.6952 152.522C48.6429 153.686 46.9973 152.716 47.016 150.363C47.0941 149.08 47.475 147.834 48.1276 146.727C48.7802 145.62 49.6858 144.683 50.7703 143.993V143.993Z"
        fill="black"></path>
    <path
        d="M146.554 208.61L142.575 210.907C142.35 211.021 142.101 211.081 141.849 211.081C141.597 211.081 141.348 211.021 141.123 210.907L139.872 210.175C139.669 210.042 139.508 209.853 139.411 209.631C139.313 209.409 139.282 209.163 139.321 208.923L152.561 146.258C152.692 145.743 153.011 145.297 153.456 145.007L157.442 142.704C157.667 142.593 157.914 142.535 158.165 142.535C158.415 142.535 158.663 142.593 158.887 142.704L160.139 143.442C160.346 143.571 160.51 143.759 160.608 143.983C160.706 144.206 160.735 144.454 160.689 144.694L147.456 207.371C147.318 207.881 146.997 208.322 146.554 208.61V208.61Z"
        fill="#455A64"></path>
    <path
        d="M146.555 208.61L142.575 210.907C142.175 211.138 141.949 210.963 142.018 210.506L155.258 147.841C155.389 147.327 155.709 146.88 156.153 146.59L160.139 144.287C160.539 144.056 160.765 144.237 160.689 144.688L147.456 207.371C147.318 207.881 146.997 208.322 146.555 208.61V208.61Z"
        fill="#263238"></path>
    <path
        d="M144.433 204.518L145.61 198.924L148.325 197.36L173.485 211.883L174.662 218.841L171.952 220.405L144.433 204.518Z"
        fill="#457B9D"></path>
    <path d="M171.952 220.405L144.433 204.518L145.61 198.925L170.77 213.447L171.952 220.405Z" fill="#455A64"></path>
    <path
        d="M176.451 225.862L172.465 228.158C172.241 228.272 171.994 228.332 171.743 228.332C171.491 228.332 171.244 228.272 171.02 228.158L169.768 227.426C169.328 227.137 169.018 226.688 168.905 226.174L155.571 147.848C155.539 147.605 155.577 147.359 155.68 147.137C155.783 146.916 155.947 146.728 156.153 146.596L160.139 144.294C160.364 144.179 160.612 144.12 160.865 144.12C161.117 144.12 161.365 144.179 161.59 144.294L162.842 145.026C163.282 145.313 163.593 145.763 163.705 146.277L177.008 224.61C177.043 224.85 177.009 225.095 176.911 225.316C176.812 225.538 176.653 225.727 176.451 225.862Z"
        fill="#457B9D"></path>
    <path
        d="M155.571 147.847L156.072 150.813L168.874 226.187C168.985 226.7 169.293 227.149 169.731 227.438L170.982 228.176C171.207 228.287 171.454 228.345 171.705 228.345C171.956 228.345 172.203 228.287 172.428 228.176L176.407 225.874C176.613 225.742 176.777 225.554 176.881 225.333C176.985 225.111 177.025 224.865 176.996 224.622L163.768 146.552L163.724 146.283C163.607 145.771 163.298 145.323 162.861 145.032L161.609 144.3C161.384 144.185 161.136 144.126 160.883 144.126C160.631 144.126 160.382 144.185 160.158 144.3L156.172 146.596C155.964 146.727 155.797 146.913 155.691 147.135C155.584 147.356 155.543 147.603 155.571 147.847V147.847Z"
        fill="#457B9D"></path>
    <path
        d="M163.718 146.283L177.021 224.616C177.053 224.859 177.015 225.105 176.912 225.327C176.809 225.549 176.645 225.736 176.439 225.868L172.453 228.164C172.374 228.222 172.281 228.257 172.184 228.266C172.087 228.275 171.989 228.258 171.901 228.216C171.813 228.175 171.737 228.11 171.682 228.03C171.628 227.949 171.595 227.855 171.589 227.757L158.306 149.418C158.276 149.176 158.315 148.931 158.418 148.709C158.521 148.488 158.683 148.3 158.887 148.167L162.873 145.87C162.952 145.818 163.044 145.787 163.139 145.78C163.234 145.774 163.329 145.793 163.414 145.834C163.5 145.876 163.573 145.94 163.626 146.018C163.679 146.097 163.711 146.188 163.718 146.283V146.283Z"
        fill="#455A64"></path>
    <path opacity="0.15"
        d="M151.898 149.324L153.988 150.532C154.63 150.86 155.365 150.96 156.072 150.813C156.354 150.763 156.627 150.668 156.879 150.532L163.762 146.552L163.718 146.283C163.6 145.771 163.291 145.324 162.854 145.032L161.603 144.3C161.378 144.185 161.129 144.126 160.877 144.126C160.625 144.126 160.376 144.185 160.151 144.3C160.251 143.849 160.552 143.674 160.151 143.461L158.9 142.735C158.676 142.618 158.427 142.557 158.174 142.557C157.921 142.557 157.672 142.618 157.448 142.735L153.462 145.032C153.018 145.322 152.698 145.769 152.568 146.283L151.898 149.324Z"
        fill="black"></path>
    <path
        d="M149.483 144.444C149.5 144.258 149.567 144.081 149.677 143.931C149.787 143.781 149.937 143.664 150.109 143.593L158.08 138.994C158.529 138.766 159.025 138.647 159.529 138.647C160.032 138.647 160.528 138.766 160.977 138.994L164.882 141.246C165.05 141.316 165.196 141.429 165.306 141.574C165.416 141.72 165.486 141.891 165.507 142.072V143.887C165.489 144.07 165.421 144.245 165.311 144.393C165.201 144.541 165.052 144.656 164.882 144.725L156.91 149.324C156.461 149.552 155.965 149.671 155.462 149.671C154.958 149.671 154.462 149.552 154.013 149.324L150.109 147.072C149.939 147.004 149.791 146.891 149.681 146.746C149.57 146.6 149.502 146.427 149.483 146.246C149.477 145.939 149.483 144.738 149.483 144.444Z"
        fill="#457B9D"></path>
    <path
        d="M149.483 144.444C149.5 144.258 149.567 144.081 149.677 143.931C149.787 143.781 149.937 143.664 150.109 143.593L155.465 140.508V149.675C154.959 149.684 154.459 149.563 154.013 149.324L150.109 147.072C149.939 147.004 149.791 146.892 149.681 146.746C149.57 146.6 149.502 146.427 149.483 146.246C149.477 145.939 149.483 144.738 149.483 144.444Z"
        fill="#263238"></path>
    <path
        d="M156.879 147.522L164.85 142.917C165.651 142.454 165.651 141.709 164.85 141.246L160.946 138.994C160.497 138.766 160.001 138.647 159.497 138.647C158.994 138.647 158.498 138.766 158.049 138.994L150.077 143.593C149.283 144.056 149.283 144.807 150.077 145.263L153.982 147.522C154.431 147.747 154.927 147.865 155.43 147.865C155.933 147.865 156.429 147.747 156.879 147.522V147.522Z"
        fill="#455A64"></path>
    <path
        d="M161.879 134.745L159.188 133.162C158.419 132.768 157.386 132.881 156.272 133.6C155.101 134.448 154.146 135.56 153.485 136.846C152.823 138.132 152.475 139.556 152.468 141.002C152.531 142.323 153.038 143.23 153.807 143.63L156.504 145.213C157.274 145.608 158.306 145.489 159.42 144.775C160.592 143.928 161.548 142.816 162.21 141.53C162.872 140.244 163.222 138.82 163.23 137.373C163.155 136.084 162.648 135.146 161.879 134.745Z"
        fill="#455A64"></path>
    <path
        d="M156.428 145.182L153.788 143.624C153.018 143.223 152.536 142.316 152.449 141.002C152.425 139.717 152.701 138.445 153.256 137.285L155.946 138.868C155.392 140.028 155.115 141.3 155.139 142.585C155.177 143.868 155.69 144.769 156.428 145.182Z"
        fill="#263238"></path>
    <path
        d="M159.413 144.775C160.585 143.928 161.541 142.816 162.203 141.53C162.865 140.244 163.215 138.82 163.223 137.373C163.092 134.72 161.177 133.738 158.95 135.177C157.777 136.024 156.821 137.136 156.159 138.422C155.497 139.708 155.148 141.132 155.139 142.579C155.271 145.226 157.179 146.214 159.413 144.775Z"
        fill="#457B9D"></path>
    <path
        d="M157.542 144.587C156.228 144.656 156.015 143.173 155.984 142.535C156.003 141.237 156.321 139.962 156.915 138.808C157.509 137.654 158.362 136.653 159.407 135.884C159.825 135.595 160.309 135.414 160.815 135.358C162.135 135.296 162.348 136.778 162.379 137.417C162.357 138.716 162.035 139.993 161.437 141.148C160.838 142.302 159.981 143.301 158.931 144.068C158.512 144.359 158.025 144.538 157.517 144.587H157.542Z"
        fill="#263238"></path>
    <path
        d="M159.407 135.884C159.782 135.628 160.21 135.457 160.658 135.383C160.883 135.817 161.007 136.296 161.021 136.785C161.001 138.082 160.682 139.357 160.088 140.511C159.494 141.665 158.642 142.666 157.598 143.436C157.223 143.692 156.795 143.863 156.347 143.937C156.12 143.504 155.995 143.024 155.984 142.535C156.003 141.237 156.321 139.962 156.915 138.808C157.509 137.654 158.362 136.653 159.407 135.884V135.884Z"
        fill="#FFBA49"></path>
    <path
        d="M84.0646 244.683L80.0913 246.986C79.8675 247.1 79.6198 247.16 79.3686 247.16C79.1173 247.16 78.8696 247.1 78.6459 246.986L77.3944 246.254C77.1912 246.121 77.0309 245.932 76.9331 245.71C76.8354 245.488 76.8043 245.242 76.8438 245.002L90.0526 182.387C90.1832 181.872 90.5026 181.426 90.9474 181.136L94.9332 178.833C95.157 178.719 95.4046 178.659 95.6559 178.659C95.9071 178.659 96.1548 178.719 96.3786 178.833L97.63 179.565C97.8333 179.698 97.9936 179.887 98.0913 180.109C98.1891 180.331 98.2201 180.577 98.1806 180.817L84.9656 243.45C84.827 243.958 84.5062 244.397 84.0646 244.683Z"
        fill="#455A64"></path>
    <path
        d="M84.0646 244.683L80.0913 246.985C79.6971 247.217 79.4656 247.035 79.5407 246.585L92.7808 183.92C92.9119 183.405 93.2312 182.959 93.6756 182.668L97.6613 180.366C98.0618 180.134 98.2871 180.316 98.212 180.766L84.9656 243.45C84.8271 243.958 84.5063 244.397 84.0646 244.683Z"
        fill="#263238"></path>
    <path
        d="M81.8683 240.691L83.0509 235.097L85.7665 233.533L110.92 248.056L112.103 255.013L109.387 256.578L81.8683 240.691Z"
        fill="#457B9D"></path>
    <path d="M109.387 256.578L81.8683 240.691L83.0509 235.097L108.211 249.62L109.387 256.578Z" fill="#455A64"></path>
    <path
        d="M113.949 261.94L109.963 264.237C109.739 264.351 109.491 264.41 109.24 264.41C108.989 264.41 108.741 264.351 108.517 264.237L107.266 263.504C106.826 263.216 106.516 262.767 106.402 262.253L93.0998 183.914C93.0634 183.671 93.0992 183.423 93.2026 183.201C93.3061 182.978 93.4727 182.791 93.6817 182.662L97.6675 180.36C97.8924 180.245 98.141 180.186 98.3933 180.186C98.6456 180.186 98.8943 180.245 99.1191 180.36L100.371 181.092C100.811 181.38 101.121 181.829 101.234 182.343L114.505 260.695C114.538 260.934 114.503 261.177 114.404 261.397C114.306 261.617 114.148 261.805 113.949 261.94V261.94Z"
        fill="#457B9D"></path>
    <path
        d="M93.0811 183.926L93.5817 186.886L106.371 262.259C106.482 262.772 106.79 263.221 107.228 263.51L108.48 264.249C108.706 264.36 108.954 264.418 109.206 264.418C109.457 264.418 109.706 264.36 109.932 264.249L113.911 261.946C114.117 261.814 114.281 261.626 114.385 261.405C114.489 261.184 114.529 260.938 114.499 260.695L101.278 182.631L101.234 182.362C101.118 181.849 100.809 181.401 100.371 181.11L99.1192 180.378C98.8944 180.264 98.6457 180.204 98.3934 180.204C98.1412 180.204 97.8925 180.264 97.6676 180.378L93.6818 182.675C93.4738 182.805 93.307 182.992 93.2007 183.214C93.0944 183.435 93.0529 183.682 93.0811 183.926Z"
        fill="#457B9D"></path>
    <path
        d="M101.228 182.387L114.506 260.695C114.536 260.937 114.498 261.183 114.395 261.405C114.292 261.626 114.129 261.814 113.924 261.946L109.938 264.243C109.859 264.3 109.766 264.335 109.669 264.344C109.572 264.354 109.474 264.336 109.386 264.295C109.297 264.253 109.222 264.189 109.167 264.108C109.112 264.027 109.08 263.933 109.074 263.836L95.7967 185.515C95.7659 185.273 95.8042 185.027 95.9071 184.806C96.0101 184.584 96.1736 184.397 96.3787 184.264L100.364 181.968C100.444 181.91 100.538 181.875 100.636 181.866C100.734 181.857 100.833 181.876 100.922 181.919C101.01 181.962 101.086 182.028 101.14 182.11C101.194 182.193 101.224 182.288 101.228 182.387V182.387Z"
        fill="#455A64"></path>
    <path opacity="0.15"
        d="M89.4081 185.403L91.498 186.611C92.14 186.94 92.8761 187.037 93.5816 186.886C93.8644 186.841 94.1374 186.748 94.3888 186.611L101.272 182.631L101.228 182.362C101.112 181.849 100.803 181.401 100.364 181.111L99.1129 180.378C98.888 180.264 98.6393 180.205 98.3871 180.205C98.1348 180.205 97.8861 180.264 97.6612 180.378C97.7614 179.928 98.0617 179.753 97.6612 179.54L96.4098 178.808C96.1849 178.694 95.9362 178.634 95.684 178.634C95.4317 178.634 95.183 178.694 94.9582 178.808L90.9473 181.136C90.5013 181.424 90.1814 181.872 90.0526 182.387L89.4081 185.403Z"
        fill="black"></path>
    <path
        d="M86.9741 180.51C86.988 180.328 87.0504 180.153 87.155 180.003C87.2595 179.853 87.4024 179.734 87.5685 179.659L95.5401 175.06C95.9889 174.832 96.4852 174.713 96.9887 174.713C97.4921 174.713 97.9884 174.832 98.4372 175.06L102.342 177.312C102.51 177.382 102.656 177.495 102.766 177.641C102.876 177.786 102.946 177.958 102.967 178.138V179.953C102.949 180.136 102.881 180.311 102.771 180.459C102.661 180.607 102.512 180.722 102.342 180.791L94.3701 185.39C93.9213 185.618 93.425 185.737 92.9215 185.737C92.4181 185.737 91.9218 185.618 91.473 185.39L87.5685 183.138C87.4047 183.066 87.2631 182.951 87.1586 182.806C87.054 182.661 86.9903 182.49 86.9741 182.312C86.9741 182.018 86.9741 180.816 86.9741 180.51Z"
        fill="#457B9D"></path>
    <path
        d="M86.9741 180.51C86.988 180.328 87.0504 180.153 87.155 180.003C87.2595 179.853 87.4024 179.735 87.5685 179.659L92.9247 176.568V185.741C92.4188 185.75 91.9191 185.629 91.473 185.39L87.5685 183.138C87.4047 183.066 87.2631 182.951 87.1586 182.806C87.054 182.661 86.9903 182.49 86.9741 182.312C86.9741 182.018 86.9741 180.816 86.9741 180.51Z"
        fill="#263238"></path>
    <path
        d="M94.3889 183.595L102.36 178.996C103.155 178.533 103.155 177.788 102.36 177.325L98.456 175.073C98.0072 174.844 97.5109 174.726 97.0075 174.726C96.5041 174.726 96.0078 174.844 95.559 175.073L87.5999 179.672C86.8052 180.135 86.8052 180.885 87.5999 181.342L91.5044 183.595C91.9515 183.821 92.4456 183.939 92.9466 183.939C93.4477 183.939 93.9417 183.821 94.3889 183.595V183.595Z"
        fill="#455A64"></path>
    <path
        d="M99.3889 170.824L96.6983 169.241C95.9287 168.853 94.8963 168.965 93.7825 169.685C92.6116 170.532 91.657 171.643 90.996 172.928C90.335 174.213 89.9863 175.636 89.9781 177.081C90.0407 178.407 90.5475 179.315 91.3172 179.709L94.0077 181.292C94.7774 181.686 95.8098 181.567 96.9236 180.854C98.0979 180.008 99.0558 178.897 99.7191 177.61C100.382 176.324 100.732 174.899 100.74 173.452C100.665 172.131 100.159 171.224 99.3889 170.824Z"
        fill="#455A64"></path>
    <path
        d="M93.9445 181.255L91.304 179.703C90.5344 179.302 90.0526 178.395 89.965 177.081C89.942 175.797 90.2161 174.525 90.7659 173.364L93.4627 174.947C92.9082 176.107 92.6318 177.379 92.6555 178.664C92.7118 179.947 93.2312 180.842 93.9445 181.255Z"
        fill="#263238"></path>
    <path
        d="M96.9228 180.854C98.0972 180.008 99.055 178.897 99.7183 177.61C100.382 176.324 100.732 174.899 100.74 173.452C100.614 170.799 98.6998 169.816 96.4723 171.255C95.3009 172.099 94.3444 173.206 93.6802 174.488C93.0161 175.769 92.6629 177.189 92.6492 178.633C92.7806 181.304 94.689 182.293 96.9228 180.854Z"
        fill="#457B9D"></path>
    <path
        d="M95.052 180.666C93.7381 180.735 93.5253 179.252 93.494 178.614C93.5122 177.316 93.8306 176.04 94.4244 174.886C95.0183 173.732 95.8713 172.732 96.9167 171.963C97.3352 171.674 97.819 171.493 98.3245 171.437C99.6448 171.374 99.8575 172.851 99.8888 173.496C99.8702 174.793 99.5515 176.069 98.9577 177.223C98.364 178.377 97.5112 179.378 96.4662 180.147C96.0471 180.438 95.5601 180.617 95.052 180.666V180.666Z"
        fill="#263238"></path>
    <path
        d="M96.9167 171.963C97.2925 171.707 97.7195 171.536 98.1681 171.462C98.3926 171.896 98.5166 172.375 98.531 172.864C98.511 174.161 98.1917 175.436 97.598 176.59C97.0043 177.744 96.1523 178.745 95.1084 179.515C94.7325 179.771 94.3055 179.942 93.8569 180.016C93.6265 179.584 93.5021 179.103 93.494 178.614C93.5122 177.316 93.8306 176.041 94.4244 174.887C95.0183 173.733 95.8713 172.732 96.9167 171.963Z"
        fill="#FFBA49"></path>
    <path d="M90.2216 194.081L174.43 145.463L173.06 144.675L88.8513 193.293L90.2216 194.081Z" fill="#FFBA49"></path>
    <path opacity="0.4" d="M90.2216 194.081L174.43 145.463L173.06 144.675L88.8513 193.293L90.2216 194.081Z"
        fill="white"></path>
    <path d="M90.2216 194.082L94.3137 218.397L178.522 169.779L174.43 145.464L90.2216 194.082Z" fill="#FFBA49"></path>
    <path d="M88.8513 193.293L92.9435 217.608L94.3138 218.397L90.2216 194.082L88.8513 193.293Z" fill="#457B9D"></path>
    <path d="M89.7085 198.361L91.9673 211.808L93.3376 212.596L91.0788 199.15L89.7085 198.361Z" fill="#FFBA49"></path>
    <path opacity="0.2" d="M89.7085 198.361L91.9673 211.808L93.3376 212.596L91.0788 199.15" fill="black"></path>
    <path d="M97.9491 189.62L94.3137 218.397L90.2216 194.081L97.9491 189.62Z" fill="#81F4E1"></path>
    <path d="M170.795 174.24L174.43 145.464L178.522 169.779L170.795 174.24Z" fill="#81F4E1"></path>
    <path d="M108.449 210.237L112.09 181.455L103.724 186.279L100.089 215.055L108.449 210.237Z" fill="#81F4E1"></path>
    <path d="M122.59 202.072L126.231 173.295L117.865 178.119L114.23 206.896L122.59 202.072Z" fill="#81F4E1"></path>
    <path d="M136.731 193.906L140.373 165.13L132.007 169.954L128.371 198.73L136.731 193.906Z" fill="#81F4E1"></path>
    <path d="M150.872 185.747L154.514 156.964L146.148 161.788L142.512 190.565L150.872 185.747Z" fill="#81F4E1"></path>
    <path d="M165.019 177.581L168.655 148.805L160.289 153.629L156.654 182.405L165.019 177.581Z" fill="#81F4E1"></path>
    <path d="M103.724 186.279L102.354 185.491L110.72 180.666L112.09 181.455L103.724 186.279Z" fill="#81F4E1"></path>
    <path d="M117.866 178.12L116.495 177.325L124.861 172.501L126.231 173.295L117.866 178.12Z" fill="#81F4E1"></path>
    <path d="M132.007 169.954L130.636 169.166L139.002 164.341L140.372 165.13L132.007 169.954Z" fill="#81F4E1"></path>
    <path d="M146.148 161.788L144.777 161L153.143 156.176L154.514 156.964L146.148 161.788Z" fill="#81F4E1"></path>
    <path d="M160.289 153.629L158.919 152.835L167.284 148.01L168.655 148.805L160.289 153.629Z" fill="#81F4E1"></path>
    <path d="M90.2216 194.081L88.8513 193.293L96.5789 188.832L97.9492 189.62L90.2216 194.081Z" fill="#81F4E1"></path>
    <path d="M91.0789 199.15L93.3377 212.596L177.546 163.978L175.287 150.532L91.0789 199.15Z" fill="#FFBA49"></path>
    <path
        d="M104.657 202.935C104.629 202.951 104.598 202.959 104.566 202.959C104.534 202.959 104.503 202.951 104.475 202.935C104.447 202.918 104.423 202.894 104.406 202.866C104.389 202.838 104.378 202.806 104.375 202.773L103.28 195.852C103.269 195.77 103.28 195.686 103.312 195.608C103.343 195.533 103.398 195.469 103.468 195.427L104.619 194.764C104.645 194.747 104.676 194.738 104.707 194.738C104.738 194.738 104.768 194.747 104.794 194.764C104.824 194.78 104.849 194.803 104.868 194.832C104.887 194.86 104.898 194.893 104.901 194.926L105.996 201.847C106.007 201.93 105.994 202.015 105.958 202.091C105.927 202.167 105.872 202.23 105.802 202.272L104.657 202.935Z"
        fill="#FAFAFA"></path>
    <path
        d="M111.696 198.868C111.66 198.895 111.618 198.913 111.573 198.921C111.528 198.928 111.483 198.925 111.44 198.912C111.388 198.892 111.339 198.865 111.296 198.831L108.711 196.328L109.281 199.951C109.293 200.032 109.279 200.115 109.243 200.188C109.216 200.265 109.163 200.329 109.093 200.37L107.942 201.039C107.915 201.055 107.885 201.063 107.854 201.063C107.823 201.063 107.793 201.055 107.767 201.039C107.737 201.023 107.712 201 107.693 200.971C107.675 200.943 107.663 200.91 107.66 200.877L106.565 193.956C106.554 193.873 106.567 193.788 106.603 193.712C106.633 193.638 106.686 193.575 106.753 193.531L107.666 193.005C107.704 192.98 107.746 192.963 107.79 192.955C107.834 192.948 107.88 192.95 107.923 192.961C107.976 192.98 108.024 193.007 108.067 193.043L110.657 195.546L110.082 191.929C110.069 191.846 110.083 191.761 110.119 191.685C110.148 191.608 110.204 191.544 110.276 191.504L111.421 190.84C111.448 190.824 111.479 190.815 111.511 190.815C111.543 190.815 111.575 190.824 111.602 190.84C111.63 190.858 111.654 190.881 111.672 190.91C111.689 190.938 111.699 190.97 111.702 191.003L112.797 197.923C112.809 198.007 112.796 198.092 112.76 198.167C112.731 198.243 112.678 198.306 112.61 198.349L111.696 198.868Z"
        fill="#FAFAFA"></path>
    <path
        d="M118.366 186.836C118.686 186.641 119.034 186.498 119.399 186.41C119.675 186.338 119.967 186.349 120.237 186.442C120.496 186.537 120.716 186.715 120.863 186.948C121.045 187.251 121.162 187.587 121.207 187.937C121.269 188.337 121.269 188.745 121.207 189.145C121.148 189.515 121.025 189.873 120.844 190.202C120.659 190.552 120.42 190.871 120.137 191.147C119.843 191.437 119.513 191.687 119.154 191.892L118.034 192.517L118.379 194.707C118.39 194.791 118.377 194.875 118.341 194.951C118.31 195.025 118.258 195.089 118.191 195.133L117.04 195.796C117.012 195.813 116.981 195.821 116.949 195.821C116.917 195.821 116.885 195.813 116.858 195.796C116.829 195.78 116.804 195.756 116.787 195.728C116.769 195.699 116.759 195.667 116.758 195.633L115.663 188.713C115.651 188.63 115.665 188.545 115.701 188.469C115.731 188.395 115.784 188.332 115.851 188.287L118.366 186.836ZM117.772 190.834L118.854 190.208C119.089 190.076 119.287 189.886 119.43 189.658C119.572 189.421 119.621 189.14 119.567 188.869C119.524 188.569 119.405 188.4 119.223 188.363C119.003 188.334 118.781 188.387 118.598 188.513L117.515 189.138L117.772 190.834Z"
        fill="#FAFAFA"></path>
    <path
        d="M124.686 183.188C125.016 182.986 125.375 182.834 125.75 182.737C126.026 182.662 126.318 182.662 126.594 182.737C126.852 182.82 127.074 182.991 127.22 183.219C127.401 183.521 127.518 183.858 127.564 184.208C127.648 184.705 127.627 185.214 127.502 185.703C127.383 186.159 127.17 186.586 126.876 186.954L128.365 188.875C128.39 188.906 128.408 188.943 128.415 188.982C128.423 189.048 128.412 189.115 128.384 189.176C128.358 189.237 128.314 189.289 128.259 189.326L127.064 190.014C126.945 190.083 126.857 190.096 126.801 190.064C126.743 190.033 126.692 189.99 126.651 189.939L125.312 188.206L124.504 188.675L124.867 190.965C124.88 191.049 124.866 191.134 124.83 191.209C124.801 191.285 124.748 191.348 124.68 191.391L123.528 192.054C123.501 192.071 123.47 192.079 123.438 192.079C123.406 192.079 123.374 192.071 123.347 192.054C123.32 192.036 123.296 192.012 123.279 191.983C123.262 191.955 123.251 191.924 123.247 191.891L122.152 184.971C122.139 184.888 122.153 184.803 122.189 184.727C122.22 184.651 122.275 184.587 122.346 184.545L124.686 183.188ZM124.21 187.004L125.199 186.429C125.432 186.305 125.632 186.127 125.781 185.909C125.854 185.798 125.905 185.673 125.93 185.542C125.955 185.411 125.953 185.277 125.925 185.146C125.881 184.846 125.768 184.683 125.587 184.664C125.365 184.66 125.146 184.723 124.961 184.846L123.973 185.415L124.21 187.004Z"
        fill="#FAFAFA"></path>
    <path
        d="M128.847 183.832C128.803 183.415 128.816 182.995 128.884 182.581C128.953 182.147 129.083 181.726 129.272 181.33C129.467 180.927 129.717 180.554 130.017 180.222C130.336 179.869 130.71 179.569 131.124 179.333C131.483 179.112 131.884 178.967 132.301 178.908C132.622 178.859 132.95 178.905 133.246 179.039C133.53 179.176 133.767 179.394 133.928 179.665C134.119 179.972 134.253 180.311 134.322 180.666C134.38 180.967 134.437 181.286 134.491 181.624C134.541 181.961 134.591 182.249 134.622 182.575C134.665 182.992 134.653 183.412 134.585 183.826C134.516 184.26 134.386 184.681 134.197 185.078C134.004 185.483 133.753 185.858 133.452 186.191C133.128 186.538 132.755 186.835 132.345 187.074C131.985 187.294 131.585 187.441 131.168 187.505C130.847 187.551 130.52 187.506 130.223 187.374C129.943 187.234 129.708 187.017 129.548 186.748C129.353 186.441 129.219 186.099 129.153 185.741C129.091 185.453 129.041 185.146 128.985 184.808C128.928 184.471 128.897 184.151 128.847 183.832ZM132.989 183.463C132.989 183.332 132.989 183.188 132.939 183.025C132.889 182.863 132.901 182.706 132.876 182.537C132.851 182.368 132.82 182.218 132.789 182.068L132.707 181.667C132.671 181.513 132.614 181.363 132.539 181.223C132.47 181.113 132.375 181.02 132.263 180.954C132.148 180.895 132.016 180.873 131.888 180.892C131.712 180.912 131.543 180.972 131.394 181.067C131.222 181.164 131.068 181.289 130.937 181.436C130.817 181.573 130.718 181.727 130.643 181.893C130.567 182.055 130.517 182.228 130.492 182.406C130.471 182.587 130.471 182.769 130.492 182.95C130.499 183.093 130.514 183.235 130.536 183.376C130.536 183.532 130.58 183.688 130.605 183.857C130.63 184.026 130.661 184.183 130.686 184.333C130.711 184.483 130.743 184.627 130.78 184.752C130.801 184.895 130.85 185.031 130.926 185.154C131.001 185.277 131.101 185.383 131.218 185.465C131.36 185.527 131.516 185.55 131.669 185.53C131.822 185.51 131.967 185.449 132.088 185.353C132.424 185.172 132.688 184.883 132.839 184.533C132.973 184.194 133.025 183.827 132.989 183.463V183.463Z"
        fill="#FAFAFA"></path>
    <path
        d="M138.114 177.187C137.929 177.286 137.765 177.42 137.632 177.581C137.511 177.718 137.413 177.875 137.344 178.044C137.275 178.203 137.232 178.372 137.219 178.545C137.203 178.72 137.203 178.896 137.219 179.07C137.222 179.203 137.234 179.334 137.256 179.465L137.331 179.978C137.331 180.153 137.388 180.322 137.425 180.485C137.463 180.647 137.482 180.779 137.5 180.866C137.536 181.015 137.59 181.158 137.663 181.292C137.719 181.407 137.805 181.505 137.913 181.573C138.028 181.643 138.162 181.672 138.295 181.655C138.476 181.635 138.65 181.573 138.802 181.473C138.954 181.387 139.095 181.282 139.221 181.16C139.35 181.044 139.458 180.906 139.54 180.754C139.628 180.598 139.69 180.429 139.722 180.253C139.753 180.056 139.753 179.855 139.722 179.659L138.983 180.084C138.957 180.101 138.927 180.11 138.896 180.11C138.865 180.11 138.834 180.101 138.808 180.084C138.778 180.068 138.753 180.045 138.734 180.016C138.715 179.988 138.704 179.955 138.702 179.921L138.52 178.789C138.508 178.706 138.521 178.621 138.558 178.545C138.591 178.47 138.645 178.407 138.714 178.363L140.835 177.112C140.863 177.095 140.894 177.087 140.926 177.087C140.958 177.087 140.99 177.095 141.017 177.112C141.045 177.129 141.069 177.153 141.086 177.181C141.104 177.21 141.114 177.242 141.117 177.275L141.336 178.645C141.417 179.094 141.417 179.554 141.336 180.003C141.256 180.439 141.111 180.861 140.904 181.254C140.489 182.036 139.862 182.687 139.096 183.131C138.741 183.349 138.345 183.492 137.932 183.551C137.611 183.594 137.283 183.547 136.987 183.413C136.704 183.273 136.466 183.056 136.299 182.787C136.107 182.481 135.974 182.141 135.905 181.786C135.849 181.504 135.792 181.192 135.742 180.854C135.692 180.516 135.642 180.197 135.605 179.884C135.555 179.467 135.566 179.046 135.636 178.632C135.709 178.199 135.842 177.778 136.03 177.381C136.224 176.973 136.477 176.596 136.781 176.261C137.095 175.911 137.462 175.613 137.87 175.379C138.218 175.166 138.605 175.024 139.008 174.959C139.319 174.918 139.635 174.944 139.934 175.035C140.175 175.126 140.39 175.274 140.56 175.466C140.721 175.644 140.835 175.859 140.892 176.092C140.916 176.157 140.916 176.228 140.892 176.292C140.866 176.355 140.819 176.408 140.76 176.442L139.597 177.112C139.563 177.132 139.524 177.143 139.484 177.143C139.444 177.143 139.405 177.132 139.371 177.112L139.196 177.006C139.085 176.916 138.95 176.859 138.808 176.843C138.543 176.872 138.297 176.994 138.114 177.187V177.187Z"
        fill="#FAFAFA"></path>
    <path
        d="M144.627 171.675C144.956 171.474 145.312 171.322 145.685 171.224C145.963 171.145 146.258 171.145 146.536 171.224C146.794 171.307 147.015 171.477 147.161 171.706C147.345 172.007 147.46 172.344 147.499 172.694C147.591 173.175 147.575 173.669 147.454 174.143C147.333 174.616 147.109 175.058 146.799 175.435L148.294 177.381C148.316 177.413 148.331 177.449 148.338 177.487C148.349 177.556 148.338 177.626 148.307 177.688C148.284 177.75 148.24 177.801 148.181 177.832L146.993 178.52C146.874 178.589 146.786 178.607 146.73 178.57C146.672 178.538 146.621 178.496 146.58 178.445L145.241 176.712L144.433 177.181L144.796 179.471C144.809 179.554 144.795 179.639 144.759 179.715C144.73 179.79 144.677 179.854 144.609 179.896L143.457 180.56C143.43 180.576 143.398 180.585 143.367 180.585C143.335 180.585 143.303 180.576 143.276 180.56C143.247 180.543 143.223 180.519 143.205 180.491C143.188 180.463 143.177 180.43 143.176 180.397L142.037 173.47C142.025 173.387 142.038 173.302 142.074 173.226C142.105 173.152 142.157 173.089 142.225 173.045L144.627 171.675ZM144.152 175.491L145.14 174.922C145.37 174.791 145.569 174.612 145.722 174.396C145.796 174.285 145.847 174.16 145.871 174.029C145.896 173.898 145.894 173.763 145.866 173.633C145.816 173.333 145.704 173.176 145.528 173.151C145.306 173.145 145.087 173.208 144.903 173.333L143.914 173.908L144.152 175.491Z"
        fill="#FAFAFA"></path>
    <path
        d="M153.857 172.657C153.884 172.642 153.916 172.634 153.947 172.634C153.979 172.634 154.01 172.642 154.038 172.657C154.066 172.674 154.09 172.698 154.107 172.726C154.125 172.755 154.135 172.787 154.138 172.82L154.32 173.958C154.332 174.042 154.319 174.127 154.282 174.202C154.253 174.279 154.198 174.344 154.126 174.384L149.971 176.755C149.943 176.771 149.912 176.779 149.88 176.779C149.849 176.779 149.817 176.771 149.79 176.755C149.761 176.739 149.736 176.715 149.719 176.687C149.701 176.658 149.691 176.626 149.689 176.593L148.594 169.672C148.583 169.589 148.596 169.504 148.632 169.428C148.663 169.354 148.715 169.291 148.782 169.247L152.868 166.888C152.896 166.873 152.927 166.865 152.959 166.865C152.99 166.865 153.022 166.873 153.049 166.888C153.078 166.907 153.103 166.931 153.121 166.961C153.14 166.99 153.151 167.023 153.156 167.057L153.331 168.189C153.343 168.273 153.33 168.358 153.293 168.433C153.263 168.508 153.21 168.571 153.143 168.615L150.44 170.173L150.622 171.33L153.125 169.885C153.152 169.868 153.183 169.86 153.215 169.86C153.247 169.86 153.279 169.868 153.306 169.885C153.334 169.902 153.358 169.926 153.375 169.955C153.393 169.983 153.403 170.015 153.406 170.048L153.588 171.187C153.599 171.27 153.586 171.355 153.55 171.431C153.519 171.505 153.467 171.568 153.4 171.612L150.897 173.057L151.085 174.259L153.857 172.657Z"
        fill="#FAFAFA"></path>
    <path
        d="M156.885 164.479C157.211 164.28 157.572 164.144 157.949 164.079C158.245 164.032 158.547 164.047 158.837 164.123C159.075 164.191 159.291 164.32 159.463 164.498C159.631 164.669 159.742 164.887 159.782 165.124C159.79 165.192 159.779 165.261 159.751 165.324C159.729 165.384 159.687 165.435 159.632 165.468L158.506 166.119C158.448 166.153 158.382 166.171 158.315 166.171C158.248 166.171 158.182 166.153 158.124 166.119L158.024 166.056C157.965 166.026 157.902 166.007 157.836 166C157.743 165.982 157.648 165.982 157.555 166C157.415 166.031 157.282 166.086 157.16 166.162C157.048 166.224 156.941 166.295 156.841 166.375C156.747 166.445 156.661 166.524 156.585 166.613C156.512 166.696 156.455 166.791 156.416 166.894C156.377 166.992 156.367 167.098 156.384 167.201C156.389 167.245 156.402 167.288 156.423 167.327C156.445 167.366 156.474 167.4 156.51 167.426C156.608 167.469 156.717 167.48 156.823 167.458C157.01 167.434 157.194 167.392 157.373 167.332C157.598 167.27 157.88 167.182 158.212 167.07C158.499 166.971 158.797 166.91 159.1 166.888C159.331 166.866 159.563 166.902 159.776 166.995C159.972 167.087 160.132 167.241 160.233 167.433C160.368 167.681 160.455 167.953 160.489 168.233C160.55 168.598 160.535 168.97 160.445 169.328C160.353 169.703 160.2 170.06 159.995 170.386C159.776 170.741 159.511 171.065 159.206 171.35C158.888 171.653 158.532 171.916 158.149 172.132C157.806 172.341 157.429 172.49 157.035 172.57C156.731 172.64 156.414 172.64 156.109 172.57C155.854 172.503 155.622 172.367 155.44 172.175C155.263 171.986 155.146 171.749 155.102 171.493C155.095 171.43 155.105 171.365 155.13 171.306C155.156 171.247 155.195 171.195 155.246 171.156L156.428 170.499C156.487 170.457 156.556 170.431 156.629 170.423C156.682 170.422 156.736 170.433 156.785 170.455L156.91 170.53C156.978 170.572 157.052 170.604 157.129 170.624C157.237 170.643 157.347 170.643 157.454 170.624C157.616 170.594 157.771 170.535 157.911 170.449C158.19 170.294 158.445 170.1 158.668 169.873C158.756 169.796 158.824 169.698 158.866 169.59C158.909 169.481 158.925 169.363 158.912 169.247C158.908 169.201 158.89 169.158 158.862 169.122C158.833 169.087 158.794 169.06 158.75 169.047C158.628 169.021 158.502 169.021 158.381 169.047C158.168 169.085 157.959 169.139 157.755 169.21L156.885 169.479C156.657 169.58 156.411 169.632 156.162 169.632C155.913 169.632 155.667 169.58 155.44 169.479C155.251 169.327 155.098 169.137 154.99 168.921C154.882 168.705 154.822 168.469 154.814 168.227C154.755 167.902 154.755 167.57 154.814 167.245C154.89 166.888 155.019 166.544 155.196 166.225C155.383 165.872 155.619 165.548 155.896 165.261C156.188 164.956 156.521 164.693 156.885 164.479V164.479Z"
        fill="#FAFAFA"></path>
    <path
        d="M163.236 160.812C163.562 160.618 163.92 160.484 164.293 160.418C164.593 160.376 164.898 160.4 165.188 160.487C165.426 160.555 165.642 160.684 165.814 160.862C165.982 161.032 166.092 161.251 166.127 161.488C166.148 161.553 166.148 161.623 166.127 161.688C166.105 161.747 166.065 161.797 166.014 161.832L164.863 162.495C164.804 162.536 164.734 162.56 164.663 162.564C164.602 162.563 164.543 162.55 164.487 162.527L164.387 162.47C164.33 162.437 164.266 162.415 164.2 162.408C164.105 162.39 164.007 162.39 163.912 162.408C163.773 162.441 163.639 162.496 163.518 162.57C163.409 162.636 163.305 162.707 163.205 162.783C163.111 162.853 163.025 162.932 162.948 163.021C162.876 163.104 162.819 163.2 162.779 163.303C162.741 163.402 162.73 163.51 162.748 163.615C162.751 163.659 162.764 163.701 162.786 163.739C162.808 163.777 162.837 163.809 162.873 163.834C162.972 163.877 163.081 163.888 163.186 163.866C163.37 163.842 163.553 163.802 163.73 163.747L164.575 163.484C164.863 163.387 165.161 163.324 165.464 163.296C165.692 163.274 165.923 163.31 166.133 163.403C166.33 163.497 166.491 163.65 166.596 163.841C166.732 164.089 166.819 164.361 166.853 164.642C166.91 165.006 166.895 165.378 166.809 165.737C166.711 166.109 166.559 166.465 166.358 166.794C166.137 167.147 165.872 167.471 165.57 167.758C165.25 168.061 164.895 168.326 164.512 168.546C164.166 168.753 163.788 168.899 163.392 168.978C163.088 169.047 162.771 169.047 162.466 168.978C162.212 168.911 161.981 168.777 161.797 168.59C161.62 168.398 161.503 168.159 161.459 167.902C161.451 167.835 161.462 167.768 161.49 167.708C161.512 167.647 161.554 167.597 161.609 167.564L162.754 166.9C162.814 166.859 162.883 166.834 162.954 166.825C163.008 166.824 163.062 166.834 163.111 166.857C163.157 166.88 163.201 166.907 163.242 166.938C163.406 167.034 163.6 167.068 163.787 167.032C163.948 166.997 164.102 166.936 164.243 166.85C164.521 166.695 164.776 166.501 165.001 166.275C165.089 166.199 165.157 166.101 165.199 165.992C165.24 165.883 165.254 165.765 165.238 165.649C165.236 165.603 165.22 165.559 165.192 165.522C165.164 165.485 165.126 165.457 165.082 165.443C164.958 165.417 164.83 165.417 164.706 165.443C164.495 165.483 164.286 165.538 164.081 165.605L163.211 165.874C162.983 165.975 162.737 166.027 162.488 166.027C162.239 166.027 161.993 165.975 161.766 165.874C161.576 165.724 161.421 165.535 161.313 165.318C161.205 165.102 161.146 164.865 161.14 164.623C161.091 164.298 161.102 163.968 161.171 163.647C161.245 163.288 161.371 162.942 161.547 162.621C161.74 162.27 161.977 161.946 162.254 161.657C162.538 161.329 162.869 161.044 163.236 160.812Z"
        fill="#FAFAFA"></path>
    <path
        d="M267.455 138.844C267.718 138.641 268.012 138.48 268.325 138.368C268.867 138.116 269.436 137.927 270.02 137.805C270.612 137.685 271.226 137.773 271.76 138.055C272.542 138.518 272.892 139.451 273.161 140.32C273.562 141.616 273.912 142.923 274.413 144.181C275.211 145.962 276.265 147.617 277.541 149.093C278.24 150.161 278.695 151.371 278.873 152.635C279.052 153.899 278.95 155.187 278.574 156.407C278.402 157.083 278.043 157.697 277.539 158.179C277.034 158.66 276.404 158.99 275.721 159.129L273.762 154.749C272.411 151.729 271.061 148.705 269.714 145.676C269.197 144.504 268.675 143.334 268.149 142.166C267.924 141.659 267.699 141.146 267.467 140.639C267.186 140.014 266.723 139.519 267.374 138.919L267.455 138.844Z"
        fill="#457B9D"></path>
    <path
        d="M267.054 138.099L267.186 138.068C268.3 137.767 269.457 137.279 270.533 137.949C271.205 138.402 271.712 139.061 271.979 139.826C272.244 140.587 272.44 141.37 272.567 142.166C272.719 142.893 272.928 143.606 273.193 144.3C273.476 144.937 273.835 145.538 274.263 146.089C274.851 146.984 276.44 148.805 276.953 149.75C277.354 150.513 277.639 151.331 277.798 152.178C278.008 153.101 278.057 154.054 277.942 154.993C277.723 156.445 276.884 158.472 275.602 159.204C275.264 159.422 274.882 159.561 274.484 159.61C274.086 159.66 273.681 159.618 273.301 159.49C272.921 159.361 272.575 159.148 272.288 158.867C272.002 158.586 271.783 158.243 271.647 157.865C271.416 157.309 271.184 156.752 270.984 156.176C270.595 155.079 270.083 154.029 269.457 153.047C268.642 151.81 267.682 150.673 266.598 149.662C266.479 149.556 266.36 149.431 266.241 149.337C264.871 148.273 263.444 147.316 263.35 146.721C263.275 146.227 263.932 141.24 262.944 139.951C262.843 139.791 262.805 139.599 262.837 139.413C262.887 139.144 262.893 139.182 263.2 139.094L264.552 138.731L267.054 138.099Z"
        fill="#455A64"></path>
    <path
        d="M211.072 95.8196C209.602 104.198 209.113 106.507 207.868 111.462C206.033 120.008 204.681 128.65 203.82 137.348C203.607 139.544 205.697 144.825 206.579 146.834C211.848 158.547 220.501 177.244 220.501 177.244C221.232 178.823 221.547 180.564 221.415 182.299C221.173 184.898 220.557 187.448 219.588 189.871C219.279 190.727 218.915 191.563 218.499 192.373C217.548 194.789 219.075 195.127 221.415 193.944C223.88 192.693 225.351 189.939 225.945 187.968C226.827 185.028 228.573 180.378 228.417 178.914L228.36 178.752L227.847 175.867C227.847 175.867 225.482 167.001 223.499 156.802C221.728 147.735 220.802 144.763 216.303 138.381L231.207 102.458L211.072 95.8196Z"
        fill="#FFA8A7"></path>
    <path
        d="M231.745 180.929C232.119 181.419 232.337 182.01 232.371 182.625C232.058 184.777 229.818 186.379 228.961 187.762C228.104 189.145 227.29 192.142 226.771 193.9C226.656 194.285 226.501 194.656 226.308 195.008C226.168 195.328 226.011 195.642 225.839 195.946C225.277 196.597 224.581 197.118 223.799 197.473C222.264 198.253 220.558 198.634 218.837 198.58C217.534 198.625 216.253 198.236 215.195 197.473C214.967 197.321 214.784 197.111 214.666 196.865C214.547 196.618 214.496 196.344 214.52 196.071C214.645 195.489 215.264 195.183 215.821 194.964C216.985 194.513 218.174 194.119 219.313 193.606C220.263 193.196 221.15 192.653 221.947 191.992C222.662 191.32 223.311 190.583 223.887 189.789C225.138 188.225 226.389 186.661 227.697 185.128C227.954 184.834 231.389 180.591 231.745 180.929Z"
        fill="#457B9D"></path>
    <path
        d="M229.925 177.475C230.688 178.526 232.427 180.122 231.764 182.056C231.17 183.732 229.562 185.378 228.504 186.736C228.015 187.481 227.646 188.298 227.409 189.157C226.871 190.553 226.571 192.036 226.026 193.431C225.344 195.145 223.467 196.253 221.747 196.728C220.024 197.159 218.229 197.212 216.484 196.885C215.783 196.842 215.118 196.554 214.607 196.071C214.397 195.801 214.257 195.483 214.2 195.146C214.144 194.808 214.172 194.462 214.282 194.138C214.513 193.493 214.887 192.909 215.377 192.43C216.109 191.641 216.966 190.972 217.717 190.202C219.1 188.782 219.538 187.074 220.026 185.197C220.364 183.883 220.864 181.993 220.652 181.142C220.503 180.725 220.417 180.289 220.395 179.847C220.415 179.711 220.469 179.582 220.552 179.473C220.635 179.363 220.745 179.277 220.871 179.221C221.533 178.956 222.251 178.86 222.96 178.939C223.586 178.939 224.212 179.09 224.838 179.121C225.254 179.113 225.666 179.022 226.047 178.853C226.428 178.684 226.771 178.44 227.057 178.136C227.342 177.833 227.564 177.475 227.71 177.084C227.855 176.693 227.921 176.278 227.904 175.861L227.71 175.267C228.273 174.747 229.061 176.293 229.925 177.475Z"
        fill="#455A64"></path>
    <path
        d="M265.434 142.736C264.965 140.27 263.888 139.914 263.888 139.914L256.036 140.064V140.239L255.898 148.186L264.12 146.721C264.655 146.22 265.056 145.592 265.285 144.896C265.515 144.2 265.566 143.457 265.434 142.736V142.736Z"
        fill="#FFA8A7"></path>
    <path
        d="M256.255 139.72L237.978 139.907C237.978 139.907 241.3 115.386 240.199 101.032L223.88 99.1545L211.191 94.9873C209.695 99.5175 205.284 122.118 205.284 122.118C204.427 128.488 203.864 131.229 203.407 136.115C202.95 141.002 204.177 142.786 206.673 148.179C209.17 153.573 219.119 174.328 219.119 174.328C219.119 174.328 220.37 175.329 223.148 174.128C224.675 173.543 225.944 172.434 226.727 170.999C226.727 170.999 223.755 157.121 222.704 151.251C221.653 145.382 218.186 139.638 216.735 138.368L223.23 122.725C223.642 129.082 224.062 140.527 225.413 147.059C226.308 151.395 228.88 153.904 233.623 153.147C240.23 152.096 257.688 148.179 257.688 148.179C261.21 147.697 260.334 141.146 256.255 139.72Z"
        fill="#457B9D"></path>
    <path
        d="M237.978 139.907C237.978 139.907 238.228 143.218 236.814 145.689C237.81 144.756 238.586 143.612 239.085 142.342C239.836 140.295 245.699 140.783 250.079 139.807L237.978 139.907Z"
        fill="#263238"></path>
    <path
        d="M223.211 122.794L222.748 114.034C220.235 112.601 218.003 110.725 216.159 108.497C217.576 110.75 219.339 112.767 221.384 114.472L221.959 122.606L216.753 138.362L223.211 122.794Z"
        fill="#263238"></path>
    <path
        d="M200.034 17.6055C200.008 16.4764 200.067 15.347 200.21 14.2267C200.491 12.1994 201.192 9.42745 203.388 8.71414C203.808 8.64435 204.211 8.498 204.577 8.2824C204.934 7.99457 205.071 7.48149 205.453 7.22494C206.047 6.83074 206.873 7.22494 207.537 7.00594H207.612C208.103 6.71822 208.46 6.24822 208.607 5.6982C208.999 4.75129 209.389 3.80646 209.777 2.86372L210.359 1.44961C210.478 1.15552 210.528 0.648696 210.815 0.467239C210.899 0.422859 210.993 0.399658 211.088 0.399658C211.182 0.399658 211.276 0.422859 211.36 0.467239C211.599 0.628025 211.794 0.846458 211.926 1.10236C212.058 1.35827 212.124 1.6434 212.117 1.93141C212.127 3.32723 211.854 4.71062 211.316 5.99854C210.803 7.47403 210.385 8.98092 210.065 10.5099C209.977 10.9104 209.677 12.3495 210.377 12.2432C210.922 12.0928 211.407 11.7782 211.767 11.3421C212.152 10.9819 212.611 10.7088 213.112 10.5412C213.612 10.3723 214.77 10.4036 214.438 11.2295C214.363 11.3981 214.259 11.5525 214.132 11.6863C213.475 12.4622 212.88 13.2631 212.198 14.0202C211.867 14.3956 211.522 14.7648 211.166 15.1214C210.978 15.3092 210.79 15.4906 210.603 15.6658C210.471 15.7847 210.115 15.9974 210.058 16.1539C209.555 16.5786 209.098 17.0546 208.694 17.5742C207.993 18.4565 207.937 19.4514 207.806 20.7028C207.756 21.1846 207.624 23.043 207.624 23.043C207.305 27.3541 207.862 40.807 208.025 41.9646C208.094 42.595 208.287 43.2054 208.594 43.7603C209.883 45.9378 217.542 59.2467 217.542 59.2467C217.542 59.2467 222.598 68.1694 215.008 71.4106C212.33 67.4749 201.417 51.832 200.247 49.6358C199.191 47.7714 198.607 45.677 198.545 43.5351C198.401 35.8951 200.047 18.8945 200.034 17.6055Z"
        fill="#FFA8A7"></path>
    <path
        d="M208.031 7.88184C208.801 8.62018 209.32 9.52746 209.245 10.247C209.075 11.3538 208.82 12.4458 208.482 13.5133C208.294 13.9638 207.9 14.5457 207.23 14.3705C207.074 14.5846 206.859 14.7488 206.611 14.8432C206.364 14.9376 206.094 14.9581 205.835 14.9023C205.665 15.1208 205.437 15.2875 205.177 15.3837C204.917 15.4799 204.636 15.5017 204.364 15.4467C204.207 15.6147 204.01 15.7405 203.791 15.8127C203.573 15.8848 203.339 15.901 203.113 15.8597C203.331 15.9834 203.581 16.0404 203.831 16.0237C204.081 16.007 204.321 15.9174 204.521 15.7658C204.784 15.8361 205.063 15.822 205.318 15.7255C205.572 15.6289 205.791 15.4548 205.941 15.2277C206.189 15.2976 206.451 15.2939 206.697 15.2173C206.942 15.1406 207.16 14.9942 207.324 14.796C207.598 14.8459 207.881 14.8066 208.131 14.6838C208.381 14.5611 208.585 14.3613 208.713 14.1139C209.166 13.1235 209.46 12.0676 209.583 10.9854C209.745 10.0593 209.964 9.06443 208.031 7.88184Z"
        fill="#F28F8F"></path>
    <path
        d="M204.865 57.501C207.28 60.7797 211.954 67.5437 213.162 71.3167C214.175 73.4379 216.866 71.6421 218.03 67.1932C219.65 60.9924 224.512 57.8701 222.372 57.551C219.738 57.1631 212.111 48.1653 212.111 48.1653C210.634 46.2882 208.325 42.5339 208.325 42.5339L207.562 28.6431C207.562 28.6431 203.983 30.3012 199.271 27.7983C199.271 27.7983 198.501 33.0856 198.157 39.1801C197.813 45.2745 197.894 46.8388 199.165 49.0538C200.906 51.9736 202.809 54.7937 204.865 57.501V57.501Z"
        fill="#FFBA49"></path>
    <path
        d="M244.879 68.9388L241.062 87.5538L240.593 103.747C231.94 107.796 218.349 106.4 209.652 99.4048C209.652 99.4048 210.966 70.9036 212.78 64.5901C214.595 58.2767 217.786 56.9815 222.253 57.1254C226.978 57.2693 233.047 57.9388 233.047 57.9388L241.388 59.5719C241.388 59.5719 244.986 66.6925 244.879 68.9388Z"
        fill="#455A64"></path>
    <path
        d="M261.924 86.872C261.924 86.872 260.866 95.0814 259.815 99.0297C259.083 101.77 257.362 107.533 255.579 109.942C251.149 115.918 247.076 113.315 246.056 112.558C244.886 111.682 244.804 110.455 247.514 107.445C248.117 106.765 248.649 106.025 249.103 105.237C249.334 104.843 250.185 103.741 249.372 103.541C249.119 103.503 248.861 103.538 248.627 103.641L246.919 104.211C246.557 104.367 246.16 104.427 245.768 104.386C245.573 104.361 245.394 104.266 245.265 104.119C245.136 103.971 245.066 103.781 245.067 103.585C245.111 103.241 245.43 103.015 245.693 102.834C247.457 101.745 249.264 100.727 251.112 99.7805C251.487 99.5865 252.206 99.4176 252.419 99.0484C252.531 98.8184 252.611 98.5742 252.657 98.3226C252.732 97.822 252.795 97.3215 252.857 96.8146C253.014 95.4568 253.158 94.0928 253.289 92.735C253.477 90.8578 253.52 87.1036 253.683 85.2264L242.502 72.612C242.502 72.612 239.673 68.9516 239.673 59.228C241.591 59.3386 243.474 59.7943 245.23 60.5733C248.446 62.075 259.121 78.0933 260.522 79.6701C261.924 81.2469 262.456 82.2355 261.924 86.872Z"
        fill="#FFA8A7"></path>
    <path
        d="M238.972 59.1213C239.705 59.2653 242.527 59.1213 244.397 59.9285C246.268 60.7357 247.72 61.7619 250.104 64.9718C252.488 68.1817 260.115 78.3307 261.273 79.8888C262.43 81.4468 262.831 82.1914 262.437 85.2699C262.043 88.3484 260.591 95.469 260.591 95.469C258.053 95.6858 255.502 95.2552 253.176 94.2176L253.301 85.3387L241.369 72.2488C241.369 72.2488 237.577 67.2556 238.972 59.1213Z"
        fill="#FFBA49"></path>
    <path
        d="M231.639 37.8472C231.564 39.4456 231.017 40.986 230.067 42.2735C229.117 43.561 227.806 44.5378 226.301 45.0804C224.795 45.6229 223.163 45.7069 221.61 45.3216C220.056 44.9364 218.652 44.0992 217.575 42.916C216.498 41.7328 215.796 40.2567 215.557 38.6743C215.319 37.092 215.555 35.4745 216.236 34.0264C216.917 32.5784 218.012 31.3647 219.383 30.539C220.753 29.7133 222.338 29.3126 223.937 29.3876C226.079 29.4897 228.094 30.4379 229.538 32.024C230.982 33.6101 231.738 35.7044 231.639 37.8472V37.8472Z"
        fill="#263238"></path>
    <path
        d="M237.258 43.8479C237.258 43.8479 235.656 49.9424 235.087 50.931C234.714 51.5499 234.115 51.9989 233.416 52.1824L233.71 47.8587L237.258 43.8479Z"
        fill="#263238"></path>
    <path
        d="M236.032 34.9565C236.493 34.9251 236.955 34.9989 237.383 35.1724C237.811 35.3458 238.194 35.6143 238.503 35.9577C239.529 37.109 238.76 40.5316 237.252 43.8479L234.749 44.0168L236.032 34.9565Z"
        fill="#263238"></path>
    <path
        d="M234.017 43.9857C234.499 44.3048 235.268 43.3599 235.894 42.778C236.52 42.1961 238.566 41.3889 239.461 43.5289C240.355 45.6688 238.347 48.4407 236.757 48.86C234.017 49.5795 233.691 47.8275 233.691 47.8275L233.016 57.8389C229.455 61.9874 220.051 61.9812 224.149 57.6637L224.393 53.9095C223.179 54.0412 221.954 54.0412 220.739 53.9095C219.746 53.7116 218.839 53.2075 218.147 52.4679C217.454 51.7283 217.011 50.7905 216.879 49.786C216.253 45.9003 216.253 43.4288 217.185 36.646C218.218 29.2063 227.109 29.5692 231.645 32.7353C236.182 35.9014 234.017 43.9857 234.017 43.9857Z"
        fill="#FFA8A7"></path>
    <path
        d="M234.017 44.8178C234.267 44.8178 235.268 43.3098 235.932 42.7779C236.82 42.0396 236.05 34.9565 236.05 34.9565C236.375 34.3523 236.51 33.6642 236.437 32.9822C236.365 32.3001 236.088 31.6558 235.644 31.1334C234.577 29.7877 233.042 28.8939 231.345 28.6305C228.742 28.1863 226.07 28.3302 223.655 27.0663C223.195 26.7856 222.706 26.5548 222.197 26.378C221.942 26.289 221.671 26.2596 221.403 26.2922C221.135 26.3247 220.878 26.4183 220.652 26.5657C220.452 26.7263 220.292 26.9304 220.183 27.1626C220.075 27.3947 220.021 27.6486 220.026 27.9047C220.04 28.4104 220.133 28.9107 220.301 29.3877C219.62 29.2473 218.918 29.2282 218.23 29.3313C217.884 29.3852 217.557 29.5292 217.284 29.7488C217.01 29.9684 216.799 30.256 216.672 30.5828C216.533 31.3079 216.666 32.059 217.048 32.6914C217.955 34.7062 220.426 35.1317 222.397 35.4696C225.303 35.8247 228.236 35.9064 231.157 35.7136C232.077 35.6323 232.234 36.5333 232.615 38.9861C232.972 41.126 233.166 44.7614 234.017 44.8178Z"
        fill="#263238"></path>
    <path
        d="M236 35.5009L239.066 34.0368C238.98 33.831 238.854 33.6448 238.694 33.4894C238.534 33.334 238.344 33.2125 238.136 33.1324C237.928 33.0523 237.705 33.0152 237.482 33.0233C237.26 33.0314 237.041 33.0845 236.839 33.1795C236.429 33.386 236.114 33.7416 235.958 34.1734C235.802 34.6051 235.817 35.0801 236 35.5009V35.5009Z"
        fill="#263238"></path>
    <path
        d="M224.412 53.9281C224.412 53.9281 228.886 53.246 230.482 52.4889C231.415 52.0602 232.197 51.3575 232.722 50.4741C232.446 51.3691 231.993 52.1991 231.389 52.9144C230.181 54.316 224.331 55.1294 224.331 55.1294L224.412 53.9281Z"
        fill="#F28F8F"></path>
    <path
        d="M226.02 42.4964C226.01 42.6166 226.024 42.7376 226.061 42.8524C226.098 42.9672 226.158 43.0735 226.236 43.1649C226.315 43.2564 226.411 43.3313 226.519 43.3852C226.627 43.439 226.745 43.4709 226.865 43.4787C227.049 43.4948 227.234 43.4554 227.395 43.3656C227.557 43.2757 227.688 43.1396 227.772 42.9748C227.855 42.8099 227.887 42.6238 227.864 42.4404C227.841 42.257 227.764 42.0847 227.642 41.9457C227.52 41.8067 227.359 41.7074 227.181 41.6605C227.002 41.6135 226.813 41.6212 226.639 41.6824C226.464 41.7437 226.312 41.8557 226.202 42.0041C226.092 42.1525 226.029 42.3305 226.02 42.5151V42.4964Z"
        fill="#263238"></path>
    <path
        d="M227.134 39.1799L229.011 40.325C229.159 40.0695 229.202 39.7667 229.133 39.4799C229.063 39.1931 228.885 38.9444 228.636 38.7857C228.513 38.7073 228.375 38.6552 228.231 38.6326C228.087 38.6101 227.94 38.6175 227.799 38.6545C227.658 38.6915 227.526 38.7573 227.411 38.8477C227.297 38.9382 227.202 39.0512 227.134 39.1799Z"
        fill="#263238"></path>
    <path
        d="M225.795 48.0715L222.985 48.9788C223.037 49.1668 223.126 49.3425 223.247 49.4954C223.368 49.6482 223.519 49.7752 223.69 49.8686C223.861 49.962 224.049 50.0201 224.243 50.0392C224.437 50.0583 224.633 50.0382 224.819 49.98C225.195 49.8472 225.506 49.5753 225.687 49.2203C225.869 48.8653 225.907 48.4541 225.795 48.0715V48.0715Z"
        fill="#F28F8F"></path>
    <path
        d="M218.211 39.5055L220.007 38.2541C219.931 38.1332 219.831 38.0291 219.714 37.948C219.597 37.8669 219.464 37.8106 219.324 37.7825C219.184 37.7544 219.04 37.7551 218.9 37.7846C218.76 37.814 218.628 37.8715 218.512 37.9537C218.273 38.1252 218.109 38.3814 218.053 38.6699C217.997 38.9584 218.054 39.2574 218.211 39.5055V39.5055Z"
        fill="#263238"></path>
    <path
        d="M218.637 41.8957C218.623 42.1343 218.704 42.3688 218.862 42.5481C219.02 42.7273 219.243 42.8369 219.481 42.853C219.666 42.8691 219.85 42.8296 220.012 42.7398C220.173 42.65 220.304 42.5139 220.388 42.349C220.471 42.1841 220.504 41.998 220.481 41.8147C220.458 41.6313 220.38 41.459 220.258 41.32C220.136 41.181 219.976 41.0817 219.797 41.0347C219.618 40.9878 219.429 40.9955 219.255 41.0567C219.081 41.1179 218.929 41.23 218.818 41.3784C218.708 41.5268 218.645 41.7048 218.637 41.8894V41.8957Z"
        fill="#263238"></path>
    <path d="M223.204 41.2637L222.66 46.5948L219.913 45.5123L223.204 41.2637Z" fill="#F28F8F"></path>
</svg>