<svg width="356" height="278" viewBox="0 0 356 278" fill="none" xmlns="http://www.w3.org/2000/svg">
    <path d="M298.149 0.112671H55.1101V147.031H298.149V0.112671Z" fill="white" />
    <path d="M298.149 0H55.1101V15.9705H298.149V0Z" fill="#263238" />
    <path
        d="M64.7491 10.9215C66.2195 10.9215 67.4115 9.69433 67.4115 8.18054C67.4115 6.66675 66.2195 5.43958 64.7491 5.43958C63.2787 5.43958 62.0867 6.66675 62.0867 8.18054C62.0867 9.69433 63.2787 10.9215 64.7491 10.9215Z"
        fill="white" />
    <path
        d="M75.7682 8.15951C75.7692 8.70184 75.6139 9.2323 75.322 9.68374C75.03 10.1352 74.6146 10.4873 74.1282 10.6956C73.6418 10.9039 73.1063 10.9589 72.5895 10.8537C72.0727 10.7486 71.5978 10.4879 71.225 10.1048C70.8521 9.72169 70.598 9.23331 70.4949 8.70147C70.3917 8.16963 70.4442 7.61825 70.6455 7.11709C70.8469 6.61594 71.1881 6.18755 71.6261 5.88613C72.064 5.58472 72.579 5.42383 73.1058 5.42383C73.811 5.42383 74.4874 5.71188 74.9866 6.22477C75.4857 6.73766 75.7668 7.43348 75.7682 8.15951V8.15951Z"
        fill="white" />
    <path
        d="M81.4622 10.9215C82.9326 10.9215 84.1246 9.69433 84.1246 8.18054C84.1246 6.66675 82.9326 5.43958 81.4622 5.43958C79.9918 5.43958 78.7998 6.66675 78.7998 8.18054C78.7998 9.69433 79.9918 10.9215 81.4622 10.9215Z"
        fill="white" />
    <path
        d="M298.275 147.056C298.275 146.195 298.239 90.2563 298.172 0.137309L298.275 0.242936L55.2564 0.274623L55.3898 0.137309C55.3898 52.1575 55.3898 101.833 55.3898 147.056L55.2667 146.929L298.3 147.056L55.2667 147.183H55.1384V147.056C55.1384 101.833 55.1384 52.1575 55.1384 0.137309V0H55.2872L298.305 0.0316861H298.408V0.137309C298.316 90.2669 298.275 146.206 298.275 147.056Z"
        fill="#263238" />
    <path
        d="M356 276.805C356 276.897 276.303 276.976 178.006 276.976C79.7092 276.976 0 276.897 0 276.805C0 276.713 79.68 276.634 178.006 276.634C276.332 276.634 356 276.713 356 276.805Z"
        fill="#263238" />
    <path
        d="M182.931 164.199C182.931 164.199 190.701 166.364 192.002 184.419C192.767 194.98 193.672 205.745 193.672 205.745L210.759 210.292L213.766 220.82L191.384 225.781C185.19 225.781 178.383 219.754 178.541 212.773L178.278 188.479L182.931 164.199Z"
        fill="#FFBA49" />
    <path
        d="M141.891 164.35L138.423 191.473C137.922 195.396 138.171 199.394 139.153 203.199L143.432 219.728C143.432 219.728 137.623 228.117 142.416 231.361C143.362 232.019 169.048 233.335 169.048 233.335L181.5 232.368L183.164 192.197L182.931 164.219C182.931 164.219 174.285 160.672 170.899 160.271C164.61 159.808 158.3 159.868 152.019 160.448L141.891 164.35Z"
        fill="#FFBA49" />
    <path
        d="M181.681 191.927C181.381 191.851 181.07 191.838 180.765 191.888C180.16 191.89 179.568 191.69 179.064 191.311C178.561 190.932 178.169 190.393 177.939 189.762C177.786 190.44 177.512 191.076 177.134 191.631C176.942 191.906 176.682 192.11 176.387 192.219C176.092 192.328 175.775 192.336 175.476 192.243C174.851 191.973 174.559 191.19 174.104 190.651C173.808 190.354 173.454 190.14 173.071 190.028C172.687 189.916 172.286 189.908 171.899 190.005C171.513 190.102 171.152 190.301 170.847 190.586C170.542 190.871 170.302 191.234 170.146 191.644C169.912 192.427 169.766 193.566 169.031 193.552C168.19 193.552 168.202 192.013 167.548 191.421C166.894 190.828 165.896 191.421 165.324 192.164C164.752 192.908 164.156 193.789 163.292 193.77C162.428 193.75 161.897 192.894 161.664 192.032C161.43 191.17 161.43 190.243 161.15 189.4C160.87 188.558 160.169 187.769 159.399 187.907C158.418 188.078 158.056 189.407 157.799 190.48C157.542 191.552 156.83 192.829 155.873 192.552C154.501 192.157 155.055 189.42 153.847 188.604C152.995 188.025 151.879 188.854 151.424 189.854C150.969 190.855 150.84 192.039 150.309 192.98C149.778 193.921 148.406 194.401 147.822 193.546C147.606 193.25 147.519 192.842 147.285 192.565C147.037 192.347 146.735 192.222 146.421 192.208C146.107 192.194 145.796 192.291 145.534 192.486C144.95 192.829 144.506 193.368 143.923 193.651C143.339 193.934 142.025 193.651 141.733 192.993L139.982 196.487C139.696 197.218 138.925 198.126 139.398 198.428C139.511 198.493 139.635 198.531 139.762 198.537C139.888 198.543 140.015 198.519 140.132 198.465C140.25 198.411 140.355 198.33 140.442 198.226C140.529 198.122 140.595 197.998 140.636 197.862C140.975 198.084 141.366 198.183 141.757 198.145C142.148 198.108 142.519 197.935 142.819 197.652C143.24 197.204 143.637 196.461 144.191 196.632C144.477 196.717 144.658 197.027 144.857 197.29C145.223 197.711 145.71 197.971 146.232 198.023C146.753 198.075 147.274 197.915 147.7 197.573C148.117 197.137 148.508 196.669 148.867 196.171C149.049 195.927 149.289 195.746 149.559 195.652C149.83 195.557 150.118 195.553 150.391 195.638C151.01 195.934 151.138 196.862 151.08 197.612C151.021 198.362 150.881 199.205 151.249 199.836C151.734 200.665 152.854 200.679 153.625 200.192C154.338 199.63 154.984 198.966 155.546 198.218C156.176 197.527 157.023 196.902 157.881 197.125C158.885 197.356 159.632 198.619 160.665 198.481C161.372 198.382 161.909 197.632 162.621 197.586C163.333 197.54 164.005 198.369 164.758 198.632C166.456 199.231 167.998 196.836 169.772 197.02C171.395 197.191 172.691 199.481 174.232 198.843C175.581 198.283 175.593 195.974 176.778 195.059C177.49 194.5 178.441 194.599 179.305 194.717C180.169 194.836 181.121 194.928 181.833 194.368C182.545 193.809 182.528 192.256 181.681 191.927Z"
        fill="white" />
    <path
        d="M183.012 190.335C182.92 190.111 182.897 189.859 182.947 189.62C182.998 189.38 183.119 189.166 183.291 189.014C183.463 188.861 183.675 188.779 183.894 188.78C184.112 188.781 184.324 188.865 184.495 189.019C184.668 189.213 184.803 189.445 184.891 189.701C184.98 189.957 185.02 190.231 185.009 190.506C184.982 191.054 185.061 191.602 185.242 192.111C185.292 192.235 185.364 192.345 185.453 192.436C185.542 192.527 185.647 192.596 185.761 192.638C185.875 192.681 185.996 192.696 186.116 192.684C186.235 192.671 186.352 192.631 186.457 192.565C186.76 192.295 186.772 191.802 186.813 191.368C186.854 190.933 187.046 190.427 187.432 190.407C187.817 190.387 188.056 190.874 188.126 191.302C188.196 191.73 188.22 192.223 188.523 192.493C188.949 192.348 189.043 191.736 189.136 191.243C189.23 190.749 189.644 190.19 190.029 190.433C190.222 190.552 190.292 190.822 190.391 191.045C190.491 191.269 190.701 191.486 190.905 191.394C191.25 191.249 191.069 190.506 191.413 190.354C191.641 190.262 191.851 190.532 191.997 190.769C192.262 191.176 192.427 191.655 192.475 192.157C192.492 192.408 192.426 192.656 192.291 192.855C192.155 193.054 191.959 193.19 191.74 193.236C191.478 193.202 191.221 193.131 190.975 193.026C190.697 192.992 190.416 193.05 190.166 193.192C189.917 193.335 189.709 193.556 189.568 193.829C189.294 194.374 189.12 194.976 189.055 195.599C188.881 195.424 188.677 195.289 188.457 195.204C188.236 195.119 188.002 195.084 187.77 195.102C187.537 195.119 187.31 195.189 187.101 195.307C186.893 195.426 186.707 195.589 186.556 195.789C186.066 196.513 185.937 197.717 185.143 197.902C184.877 197.925 184.613 197.845 184.393 197.675C184.173 197.505 184.011 197.255 183.935 196.967C183.809 196.381 183.809 195.77 183.935 195.184L182.849 196.191L182.604 194.585"
        fill="white" />
    <g opacity="0.3">
        <path opacity="0.3"
            d="M140.548 228.051L154.273 223.274L163 222.373C163 222.373 165.493 227.275 167.712 227.045C169.023 226.907 170.295 226.459 171.442 225.729C171.442 225.729 172.283 230.887 174.501 230.506C176.719 230.124 175.581 214.714 175.581 214.714L152.428 209.45L138.692 213.483L140.548 228.051Z"
            fill="black" />
    </g>
    <path
        d="M141.891 164.35C141.891 164.35 134.746 167.173 132.06 171.707C128.517 177.714 118.505 194.98 113.811 208.496C112.34 212.726 113.566 219.228 115.738 223.05C117.154 225.54 119.244 227.449 121.698 228.493C124.153 229.538 126.841 229.662 129.363 228.847L154.401 220.886L156.737 205.021L134.927 206.048L141.039 194.75L141.891 164.35Z"
        fill="#FFBA49" />
    <path
        d="M122.381 189.42C122.519 189.242 122.69 189.101 122.883 189.008C123.076 188.914 123.285 188.871 123.494 188.882C123.704 188.893 123.908 188.957 124.093 189.07C124.277 189.182 124.436 189.34 124.559 189.532C124.944 190.19 124.944 191.362 125.65 191.506C126.164 191.618 126.573 191.059 126.917 190.605C127.262 190.151 127.88 189.743 128.266 190.151C128.651 190.559 128.435 191.335 128.85 191.638C129.264 191.941 129.696 191.487 129.953 191.072C130.21 190.657 130.537 190.151 130.957 190.197C131.868 190.289 131.675 192.408 132.592 192.428C133.059 192.428 133.339 191.829 133.759 191.631C134.343 191.368 134.927 191.855 135.376 192.289C135.69 192.562 135.954 192.902 136.153 193.289C136.249 193.487 136.292 193.711 136.277 193.936C136.261 194.161 136.188 194.375 136.065 194.553C135.662 195.046 134.938 194.842 134.419 194.513C133.899 194.184 133.339 193.763 132.761 193.928C131.786 194.204 131.43 196.014 130.426 195.902C129.515 195.783 129.258 194.112 128.359 194C127.46 193.888 126.719 195.599 125.837 195.191C125.429 195.007 125.253 194.428 124.88 194.171C124.687 194.073 124.476 194.028 124.265 194.04C124.054 194.053 123.848 194.123 123.666 194.244C123.305 194.494 122.928 194.714 122.539 194.902C122.34 194.995 122.12 195.016 121.911 194.96C121.701 194.905 121.512 194.776 121.371 194.592C121.132 194.198 121.418 193.507 121.832 193.612L120.834 193.428V192.533"
        fill="white" />
    <path
        d="M182.849 180.064C182.902 180.482 182.927 180.904 182.925 181.327C182.925 182.143 182.971 183.301 182.977 184.781C182.977 187.703 182.948 191.73 182.767 196.178C182.586 200.626 182.265 204.653 182.026 207.561C181.897 209.009 181.78 210.193 181.687 210.996C181.915 222.38 181.535 212.246 181.512 212.246C181.497 211.822 181.511 211.398 181.553 210.976C181.611 210.101 181.687 208.937 181.78 207.535C181.973 204.627 182.218 200.613 182.399 196.171C182.58 191.73 182.668 187.703 182.709 184.788C182.709 183.38 182.75 182.215 182.767 181.334C182.762 180.908 182.789 180.483 182.849 180.064V180.064Z"
        fill="#263238" />
    <path
        d="M184.232 165.068C184.32 165.14 183.328 166.601 182.639 168.693C181.95 170.786 181.816 172.641 181.705 172.608C181.618 171.221 181.829 169.831 182.318 168.555C182.697 167.236 183.354 166.039 184.232 165.068V165.068Z"
        fill="#263238" />
    <path
        d="M144.541 179.103C144.489 179.103 144.436 178.372 144.197 177.228C143.877 175.742 143.364 174.319 142.673 173.003C141.976 171.693 141.113 170.505 140.111 169.476C139.334 168.693 138.785 168.292 138.815 168.239C138.963 168.292 139.104 168.372 139.229 168.476C139.588 168.719 139.93 168.994 140.251 169.299C142.407 171.308 143.876 174.099 144.407 177.195C144.485 177.658 144.536 178.126 144.559 178.596C144.577 178.765 144.571 178.936 144.541 179.103V179.103Z"
        fill="#263238" />
    <path
        d="M134.64 206.186C133.274 206.697 131.942 207.317 130.653 208.042C129.417 208.871 128.232 209.797 127.11 210.812C127.351 210.412 127.644 210.055 127.979 209.752C128.753 208.975 129.603 208.299 130.513 207.739C131.419 207.175 132.381 206.733 133.379 206.423C133.785 206.263 134.211 206.183 134.64 206.186Z"
        fill="#263238" />
    <path
        d="M145.026 185.321C144.946 185.617 144.84 185.903 144.711 186.176C144.495 186.722 144.162 187.492 143.742 188.446C142.901 190.348 141.693 192.954 140.28 195.776C138.867 198.599 137.513 201.119 136.503 202.909C135.995 203.811 135.575 204.528 135.277 205.021C135.137 205.286 134.975 205.536 134.792 205.765C134.898 205.48 135.027 205.207 135.178 204.949L136.345 202.784C137.308 200.961 138.633 198.435 140.046 195.612C141.459 192.789 142.691 190.21 143.578 188.334C144.004 187.446 144.36 186.703 144.635 186.117C144.744 185.839 144.875 185.573 145.026 185.321Z"
        fill="#263238" />
    <path
        d="M127.11 229.321L127.244 229.262L127.647 229.124L129.194 228.611L134.95 226.781L154.36 220.721L154.255 220.859C154.471 219.346 154.705 217.754 154.938 216.135C155.522 212.22 156.071 208.456 156.579 204.995L156.713 205.186C151.326 205.065 145.937 205.284 140.572 205.844L135.901 206.285L134.658 206.396H134.337H134.226H134.337L134.652 206.344L135.895 206.186C136.975 206.048 138.552 205.863 140.566 205.646C145.937 205.016 151.337 204.753 156.736 204.857H156.9L156.871 205.041C156.369 208.502 155.82 212.279 155.254 216.181C155.014 217.8 154.781 219.392 154.559 220.905V221.017H154.465L135.026 226.939L129.246 228.676L127.682 229.124L127.279 229.236C127.227 229.273 127.17 229.302 127.11 229.321V229.321Z"
        fill="#263238" />
    <path
        d="M168.126 257.392C168.126 257.392 193.561 265.327 194.583 265.735C196.112 266.34 195.856 272.67 193.474 272.572C192.347 272.526 173.935 273.342 171.605 273.177C169.276 273.013 162.265 269.887 162.265 269.887L168.126 257.392Z"
        fill="#FFBA49" />
    <path
        d="M178.721 268.334C178.85 268.334 179.019 266.834 179.842 265.255C180.665 263.675 181.722 262.728 181.64 262.623C181.559 262.517 180.333 263.32 179.475 265.024C178.616 266.729 178.616 268.347 178.721 268.334Z"
        fill="#263238" />
    <path
        d="M176.071 266.978C176.194 266.978 176.451 265.662 177.128 264.149C177.805 262.636 178.605 261.602 178.512 261.517C178.418 261.431 177.449 262.359 176.76 263.945C176.071 265.531 175.961 266.972 176.071 266.978Z"
        fill="#263238" />
    <path
        d="M173.578 266.229C173.707 266.229 173.614 264.788 174.162 263.195C174.711 261.603 175.639 260.623 175.552 260.517C175.464 260.412 174.384 261.294 173.765 263.024C173.146 264.755 173.508 266.268 173.578 266.229Z"
        fill="#263238" />
    <path
        d="M174.034 262.524C174.258 261.843 174.352 261.116 174.308 260.392C174.302 259.602 174.214 258.816 174.045 258.049C173.946 257.602 173.821 257.163 173.672 256.733C173.588 256.465 173.448 256.223 173.263 256.029C173.135 255.92 172.977 255.865 172.817 255.874C172.656 255.884 172.504 255.958 172.387 256.082C172.194 256.299 172.074 256.585 172.049 256.891C172.023 257.143 172.011 257.395 172.014 257.648C172.02 258.12 172.073 258.591 172.171 259.05C172.342 259.819 172.606 260.558 172.954 261.247C173.245 261.898 173.641 262.483 174.121 262.971C174.18 262.925 173.753 262.254 173.246 261.089C172.949 260.411 172.725 259.696 172.58 258.957C172.497 258.525 172.456 258.084 172.457 257.641C172.457 257.201 172.457 256.648 172.691 256.437C172.737 256.388 172.797 256.361 172.86 256.361C172.923 256.361 172.984 256.388 173.03 256.437C173.156 256.577 173.25 256.748 173.304 256.937C173.456 257.349 173.584 257.771 173.689 258.201C173.869 258.934 173.982 259.686 174.028 260.445C174.092 261.701 173.964 262.511 174.034 262.524Z"
        fill="#263238" />
    <path
        d="M173.999 262.234C173.481 261.99 172.919 261.887 172.358 261.932C171.75 261.931 171.144 262.015 170.555 262.182C170.192 262.27 169.842 262.416 169.515 262.616C169.302 262.731 169.129 262.923 169.023 263.161C168.917 263.399 168.885 263.671 168.932 263.932C168.988 264.18 169.103 264.406 169.264 264.585C169.426 264.765 169.628 264.892 169.848 264.952C170.221 265.061 170.613 265.061 170.987 264.952C171.589 264.783 172.152 264.471 172.639 264.037C173.096 263.683 173.492 263.237 173.806 262.721C173.334 263.03 172.882 263.375 172.452 263.754C171.978 264.118 171.447 264.377 170.887 264.518C170.578 264.6 170.256 264.6 169.947 264.518C169.802 264.478 169.669 264.397 169.561 264.281C169.452 264.166 169.372 264.02 169.329 263.86C169.304 263.699 169.327 263.534 169.395 263.39C169.463 263.246 169.571 263.131 169.702 263.063C169.995 262.883 170.307 262.746 170.63 262.655C171.188 262.476 171.762 262.364 172.341 262.32C173.368 262.175 173.993 262.307 173.999 262.234Z"
        fill="#263238" />
    <path
        d="M182.627 268.643C182.756 268.643 182.627 267.4 183.129 266.057C183.631 264.715 184.454 263.919 184.379 263.807C184.303 263.695 183.269 264.373 182.738 265.873C182.207 267.373 182.528 268.689 182.627 268.643Z"
        fill="#263238" />
    <path
        d="M164.88 269.966C165.194 270.173 165.524 270.347 165.867 270.486C166.789 270.889 167.735 271.218 168.698 271.473C171.885 272.261 175.145 272.61 178.406 272.512C182.218 272.466 185.651 272.269 188.144 272.157L191.092 271.979C191.455 271.977 191.817 271.933 192.172 271.848C191.812 271.791 191.449 271.773 191.086 271.795H188.138L178.406 272.012C175.173 272.104 171.94 271.806 168.762 271.124C166.328 270.578 164.909 269.874 164.88 269.966Z"
        fill="#263238" />
    <path
        d="M164.127 270.617C164.162 270.683 164.857 270.223 166.036 269.644C167.533 268.841 169.2 268.529 170.846 268.742C172.767 269.071 174.121 270.525 175.009 271.532C175.462 272.133 175.952 272.698 176.474 273.223C176.14 272.521 175.721 271.875 175.23 271.302C174.73 270.639 174.164 270.043 173.543 269.525C172.769 268.876 171.868 268.445 170.916 268.268C169.189 268.033 167.44 268.405 165.907 269.334C165.259 269.657 164.659 270.09 164.127 270.617V270.617Z"
        fill="#263238" />
    <path
        d="M142.416 231.361L137.262 243.304C137.262 243.304 109.69 233.881 102.743 234.289C95.7959 234.697 90.1099 237.862 88.7322 244.218C87.3545 250.575 87.1968 259.352 95.2997 265.445C103.403 271.539 143.736 274.894 143.736 274.894H159.673L185.727 236.184L181.53 232.348L142.416 231.361Z"
        fill="#263238" />
    <path
        d="M151.091 257.569C150.917 257.585 150.741 257.585 150.566 257.569C150.222 257.536 149.714 257.569 149.072 257.437C147.24 257.202 145.431 256.782 143.666 256.181C141.062 255.288 138.524 254.166 136.077 252.825C133.286 251.344 130.315 249.535 127.192 247.627C124.271 245.823 121.266 244.197 118.19 242.757C115.679 241.587 113.07 240.705 110.402 240.125C108.603 239.739 106.775 239.558 104.944 239.586C104.296 239.586 103.776 239.645 103.455 239.652C103.28 239.671 103.104 239.671 102.93 239.652C103.101 239.608 103.274 239.579 103.449 239.566C103.788 239.566 104.29 239.435 104.944 239.428C106.787 239.344 108.632 239.483 110.449 239.843C113.132 240.395 115.756 241.264 118.277 242.435C121.373 243.858 124.394 245.479 127.326 247.291C130.449 249.18 133.415 251.009 136.182 252.502C138.62 253.855 141.145 254.999 143.736 255.924C145.485 256.542 147.275 257 149.089 257.293C149.725 257.418 150.257 257.444 150.572 257.497C150.747 257.504 150.92 257.528 151.091 257.569Z"
        fill="#455A64" />
    <path
        d="M169.93 271.736C175.05 269.472 203.205 259.372 213.176 246.383C221.478 235.572 208.272 225.893 208.272 225.893C208.272 225.893 199.014 225.564 195.925 225.893C192.837 226.222 148.639 259.892 148.639 259.892C148.639 259.892 156.357 276.855 156.164 277.507L169.93 271.736Z"
        fill="#263238" />
    <path
        d="M183.794 234.092C183.794 234.092 183.759 234.131 183.678 234.197L183.304 234.48L181.862 235.546L176.509 239.382L158.797 251.937L149.171 258.701L149.235 258.477L154.279 272.157C154.862 273.815 155.359 275.144 155.697 276.105L156.065 277.158C156.113 277.276 156.148 277.399 156.17 277.526C156.109 277.415 156.056 277.299 156.012 277.178C155.907 276.921 155.773 276.579 155.604 276.151L154.098 272.262C152.825 268.893 151.033 264.169 148.937 258.635L148.885 258.497L149.001 258.411L158.61 251.621L176.38 239.145L181.786 235.408L183.269 234.408L183.66 234.158L183.794 234.092Z"
        fill="#455A64" />
    <path
        d="M144.903 249.061C144.445 248.955 144.004 248.768 143.596 248.509C142.579 247.956 141.611 247.295 140.706 246.535C139.796 245.787 138.95 244.946 138.178 244.021C137.833 243.661 137.542 243.241 137.314 242.778C137.396 242.699 138.803 244.495 140.91 246.219C143.018 247.943 144.933 248.95 144.903 249.061Z"
        fill="#455A64" />
    <path
        d="M160.222 234.987C160.293 235.641 160.317 236.302 160.292 236.961C160.292 238.185 160.35 239.876 160.496 241.731C160.642 243.587 160.875 245.265 161.08 246.469C161.21 247.118 161.294 247.778 161.331 248.443C161.098 247.83 160.933 247.187 160.84 246.528C160.526 244.963 160.304 243.376 160.175 241.777C160.05 240.178 160.015 238.571 160.07 236.967C160.056 236.303 160.107 235.639 160.222 234.987V234.987Z"
        fill="#455A64" />
    <path
        d="M163.52 234.579C163.52 234.579 163.648 234.539 163.864 234.631C164.166 234.769 164.422 235.011 164.594 235.322C164.732 235.554 164.823 235.818 164.859 236.095C164.896 236.372 164.877 236.654 164.804 236.921C164.696 237.252 164.502 237.538 164.246 237.742C163.991 237.945 163.687 238.056 163.374 238.06C163.062 238.093 162.749 238.015 162.479 237.836C162.209 237.658 161.995 237.389 161.868 237.066C161.785 236.8 161.76 236.516 161.793 236.237C161.827 235.958 161.918 235.692 162.061 235.46C162.239 235.144 162.512 234.91 162.831 234.802C163.059 234.743 163.187 234.802 163.187 234.802C162.806 234.933 162.48 235.216 162.271 235.599C162.165 235.794 162.1 236.014 162.081 236.242C162.062 236.47 162.089 236.7 162.16 236.915C162.27 237.161 162.444 237.365 162.658 237.497C162.873 237.63 163.119 237.686 163.362 237.658C163.612 237.663 163.857 237.583 164.065 237.428C164.274 237.273 164.436 237.05 164.53 236.79C164.59 236.572 164.61 236.344 164.589 236.117C164.567 235.891 164.506 235.672 164.407 235.474C164.195 235.085 163.886 234.774 163.52 234.579Z"
        fill="#455A64" />
    <path
        d="M149.895 233.322C150.008 233.497 150.089 233.697 150.134 233.908C150.296 234.475 150.375 235.069 150.367 235.665C150.359 236.556 150.184 237.434 149.854 238.244C149.462 239.253 148.824 240.116 148.014 240.732C147.203 241.347 146.254 241.689 145.277 241.718C144.479 241.763 143.683 241.613 142.942 241.277C142.448 241.065 141.99 240.761 141.587 240.376C141.432 240.245 141.297 240.085 141.19 239.902C141.76 240.356 142.375 240.732 143.023 241.021C143.734 241.295 144.486 241.409 145.236 241.356C146.154 241.311 147.042 240.979 147.803 240.398C148.563 239.817 149.166 239.01 149.544 238.066C149.869 237.303 150.057 236.476 150.099 235.632C150.116 234.855 150.047 234.079 149.895 233.322V233.322Z"
        fill="#455A64" />
    <path
        d="M176.17 239.231C175.815 239.298 175.45 239.241 175.125 239.066C174.3 238.741 173.593 238.118 173.115 237.293C172.637 236.469 172.414 235.489 172.481 234.506C172.477 234.102 172.576 233.704 172.767 233.361C172.771 233.746 172.757 234.13 172.726 234.513C172.726 235.424 172.961 236.315 173.402 237.078C173.844 237.841 174.473 238.443 175.213 238.81C175.785 239.106 176.176 239.145 176.17 239.231Z"
        fill="#455A64" />
    <path
        d="M210.911 211.075C210.911 211.075 216.982 205.989 218.039 205.772C219.095 205.554 227.163 206.699 227.648 207.245C228.132 207.792 235.622 214.154 234.174 214.701C232.727 215.247 227.549 210.72 227.549 210.72H226.58C226.58 210.72 231.121 214.49 231.834 215.78C232.505 216.958 231.571 218.089 230.713 217.458C229.855 216.826 225.984 213.385 225.64 213.431C225.295 213.477 229.726 217.464 230.082 218.129C230.578 219.017 229.995 220.491 229.125 219.899C228.611 219.543 224.583 215.484 224.583 215.484C224.583 215.484 227.537 219.234 227.712 219.794C227.992 220.715 227.128 221.36 226.428 220.695C225.943 220.241 223.982 217.326 223.328 216.714C223.328 216.714 222.546 216.523 221.203 217.727C219.86 218.932 213.561 220.287 213.561 220.287L210.911 211.075Z"
        fill="#FFBE9D" />
    <path
        d="M212.744 212.259C212.92 212.646 213.199 212.96 213.541 213.16C213.883 213.359 214.272 213.433 214.653 213.371C215.424 213.312 216.153 212.97 216.912 212.852C219.189 212.496 221.454 214.214 223.713 213.733C224.029 213.668 224.402 213.477 224.408 213.115C224.414 212.753 224.11 212.562 223.824 212.417L216.977 208.66"
        fill="#FFBE9D" />
    <path
        d="M216.994 208.66C217.264 208.726 217.525 208.832 217.77 208.976C218.261 209.213 218.938 209.568 219.819 210.016L222.838 211.615L223.707 212.082C223.97 212.253 224.385 212.345 224.595 212.891C224.63 213.03 224.628 213.178 224.589 213.316C224.551 213.453 224.478 213.576 224.379 213.668C224.207 213.816 224.007 213.918 223.795 213.964C223.425 214.04 223.05 214.071 222.674 214.056C221.162 213.983 219.86 213.398 218.652 213.148C218.087 213.019 217.509 212.985 216.936 213.049C216.404 213.121 215.908 213.299 215.435 213.404C215.061 213.535 214.665 213.572 214.277 213.512C213.889 213.452 213.517 213.296 213.188 213.056C212.732 212.654 212.709 212.253 212.727 212.259C212.744 212.266 212.849 212.588 213.31 212.917C213.628 213.107 213.978 213.219 214.336 213.249C214.695 213.278 215.055 213.224 215.394 213.088C215.85 212.963 216.34 212.766 216.918 212.667C217.526 212.577 218.142 212.594 218.745 212.72C220.012 212.937 221.32 213.523 222.715 213.589C223.05 213.596 223.385 213.561 223.713 213.483C224.023 213.417 224.25 213.207 224.18 213.036C224.11 212.865 223.813 212.661 223.521 212.503L222.657 212.016L219.679 210.325C218.839 209.838 218.156 209.437 217.689 209.147C217.44 209.019 217.206 208.855 216.994 208.66V208.66Z"
        fill="#EB996E" />
    <path
        d="M234.146 214.714C233.557 214.716 232.974 214.579 232.435 214.312C231.828 214.071 231.242 213.767 230.684 213.404C230.1 212.957 229.458 212.45 228.787 211.917L227.374 210.772L227.467 210.818C225.068 210.45 223.34 210.114 223.352 210.002C223.363 209.891 225.103 210.048 227.52 210.351H227.572L227.619 210.391L229.032 211.509L230.894 213.009C231.415 213.383 231.962 213.708 232.529 213.983C233.521 214.457 234.163 214.641 234.146 214.714Z"
        fill="#EB996E" />
    <path
        d="M150.192 262.175C150.192 262.175 124.757 270.111 123.735 270.512C122.2 271.124 122.463 277.447 124.845 277.349C125.971 277.302 144.384 278.125 146.707 277.96C149.031 277.796 155.295 275.006 155.295 275.006L150.192 262.175Z"
        fill="#FFBA49" />
    <path
        d="M139.597 273.111C139.468 273.111 139.299 271.617 138.476 270.032C137.653 268.446 136.596 267.512 136.678 267.4C136.76 267.288 137.985 268.097 138.844 269.801C139.702 271.506 139.702 273.124 139.597 273.111Z"
        fill="#263238" />
    <path
        d="M142.247 271.756C142.124 271.756 141.868 270.44 141.19 268.926C140.513 267.413 139.713 266.38 139.801 266.294C139.889 266.209 140.869 267.143 141.552 268.722C142.235 270.301 142.358 271.749 142.247 271.756Z"
        fill="#263238" />
    <path
        d="M144.734 271.005C144.605 271.005 144.705 269.564 144.15 267.978C143.596 266.393 142.679 265.399 142.767 265.294C142.854 265.189 143.934 266.07 144.547 267.801C145.16 269.531 144.839 271.045 144.734 271.005Z"
        fill="#263238" />
    <path
        d="M144.284 267.301C144.059 266.621 143.965 265.894 144.01 265.169C144.016 264.382 144.102 263.598 144.267 262.833C144.367 262.386 144.494 261.946 144.646 261.517C144.724 261.247 144.866 261.006 145.055 260.82C145.182 260.709 145.34 260.653 145.5 260.661C145.661 260.67 145.813 260.742 145.931 260.866C146.124 261.083 146.244 261.369 146.269 261.675C146.284 261.927 146.284 262.18 146.269 262.432C146.265 262.906 146.214 263.378 146.118 263.84C145.944 264.607 145.679 265.344 145.329 266.031C145.05 266.682 144.664 267.267 144.191 267.755C144.133 267.709 144.559 267.044 145.067 265.873C145.363 265.195 145.587 264.479 145.732 263.741C145.813 263.308 145.854 262.867 145.855 262.425C145.855 261.984 145.855 261.432 145.621 261.221C145.574 261.175 145.514 261.149 145.452 261.149C145.39 261.149 145.33 261.175 145.283 261.221C145.157 261.362 145.061 261.533 145.003 261.721C144.85 262.135 144.721 262.559 144.617 262.991C144.442 263.723 144.331 264.472 144.284 265.228C144.238 266.479 144.355 267.288 144.284 267.301Z"
        fill="#263238" />
    <path
        d="M144.319 267.011C144.838 266.769 145.4 266.667 145.96 266.715C146.57 266.712 147.177 266.794 147.769 266.959C148.132 267.05 148.481 267.196 148.809 267.393C149.021 267.51 149.193 267.702 149.298 267.94C149.404 268.177 149.437 268.448 149.392 268.709C149.334 268.956 149.219 269.182 149.058 269.362C148.897 269.543 148.696 269.672 148.476 269.736C148.093 269.847 147.691 269.847 147.308 269.736C146.705 269.569 146.142 269.257 145.656 268.821C145.199 268.466 144.804 268.02 144.489 267.505C144.964 267.808 145.417 268.153 145.843 268.538C146.316 268.898 146.845 269.155 147.402 269.295C147.712 269.384 148.037 269.384 148.347 269.295C148.492 269.255 148.626 269.174 148.734 269.058C148.843 268.943 148.923 268.798 148.966 268.637C148.992 268.474 148.968 268.307 148.899 268.161C148.831 268.016 148.721 267.901 148.587 267.834C148.297 267.653 147.987 267.515 147.664 267.426C147.106 267.25 146.533 267.137 145.954 267.09C144.95 266.972 144.319 267.09 144.319 267.011Z"
        fill="#263238" />
    <path
        d="M135.685 273.42C135.563 273.42 135.685 272.177 135.183 270.834C134.681 269.492 133.858 268.702 133.94 268.591C134.021 268.479 135.049 269.15 135.58 270.65C136.111 272.15 135.79 273.473 135.685 273.42Z"
        fill="#263238" />
    <path
        d="M153.438 274.743C153.128 274.957 152.797 275.131 152.452 275.263C151.529 275.667 150.583 275.999 149.62 276.256C146.434 277.048 143.174 277.402 139.912 277.309C136.1 277.263 132.662 277.066 130.175 276.954L127.256 276.776C126.893 276.778 126.531 276.736 126.176 276.651C126.535 276.589 126.899 276.57 127.262 276.592H130.181L139.912 276.802C143.151 276.898 146.39 276.602 149.574 275.921C151.985 275.335 153.409 274.677 153.438 274.743Z"
        fill="#263238" />
    <path
        d="M154.191 275.394C153.54 275.107 152.903 274.782 152.282 274.421C150.784 273.621 149.118 273.309 147.472 273.519C145.551 273.855 144.197 275.302 143.31 276.309C142.856 276.91 142.366 277.475 141.844 278C142.18 277.3 142.598 276.653 143.088 276.079C143.59 275.418 144.156 274.822 144.775 274.302C145.549 273.653 146.45 273.222 147.402 273.045C149.13 272.812 150.879 273.187 152.411 274.118C153.059 274.437 153.66 274.868 154.191 275.394V275.394Z"
        fill="#263238" />
    <path
        d="M128.668 276.651C128.628 276.612 128.844 276.237 129.042 275.566C129.311 274.701 129.375 273.771 129.227 272.87C129.08 271.969 128.726 271.127 128.201 270.427C127.804 269.887 127.478 269.617 127.513 269.565C127.849 269.693 128.15 269.92 128.382 270.223C128.987 270.927 129.394 271.818 129.55 272.782C129.707 273.748 129.603 274.745 129.252 275.644C128.995 276.335 128.703 276.651 128.668 276.651Z"
        fill="#263238" />
    <path
        d="M176.527 213.082C174.39 212.345 175.359 209.68 171.424 208.206C168.506 207.107 165.353 205.054 156.719 206.16L154.758 219.583L163.053 217.096L165.447 223.123C165.563 223.418 165.731 223.683 165.941 223.903C166.15 224.123 166.397 224.294 166.665 224.405C166.934 224.516 167.22 224.565 167.506 224.549C167.792 224.534 168.072 224.454 168.33 224.314L172.539 222.044C172.539 222.044 173.707 228.565 174.081 228.821C174.277 228.962 174.504 229.038 174.736 229.04C174.969 229.043 175.197 228.971 175.395 228.834C175.593 228.696 175.753 228.499 175.856 228.264C175.959 228.029 176.001 227.766 175.978 227.505C175.814 226.63 175.394 215.306 175.394 215.306C175.394 215.306 178.582 216.326 178.383 214.891C178.36 214.918 178.663 213.819 176.527 213.082Z"
        fill="#FFBE9D" />
    <path
        d="M167.566 224.893C167.646 224.642 167.737 224.396 167.84 224.156C168.033 223.559 168.105 222.92 168.05 222.287C167.992 221.657 167.809 221.05 167.513 220.511C167.285 220.096 167.087 219.853 167.116 219.853C167.333 219.985 167.516 220.177 167.647 220.412C167.999 220.959 168.214 221.602 168.272 222.274C168.34 222.949 168.241 223.633 167.986 224.248C167.787 224.669 167.583 224.913 167.566 224.893Z"
        fill="#EB996E" />
    <path
        d="M170.204 223.274C170.364 222.53 170.382 221.757 170.257 221.005C170.132 220.253 169.868 219.54 169.48 218.911C169.48 218.911 169.685 219.056 169.912 219.412C170.201 219.875 170.4 220.402 170.496 220.958C170.587 221.514 170.575 222.085 170.461 222.636C170.421 222.868 170.333 223.087 170.204 223.274V223.274Z"
        fill="#EB996E" />
    <path
        d="M172.055 218.089C172.055 218.089 172.213 218.241 172.353 218.563C172.531 218.989 172.63 219.451 172.644 219.922C172.659 220.393 172.587 220.862 172.434 221.3C172.312 221.636 172.189 221.807 172.166 221.794C172.315 221.187 172.399 220.561 172.417 219.932C172.366 219.303 172.244 218.684 172.055 218.089V218.089Z"
        fill="#EB996E" />
    <path
        d="M199.557 232.447L156.725 231.249C156.511 231.244 156.308 231.145 156.158 230.972C156.009 230.8 155.925 230.569 155.925 230.328C155.924 230.207 155.945 230.087 155.985 229.975C156.025 229.863 156.085 229.761 156.16 229.675C156.236 229.588 156.325 229.52 156.424 229.473C156.523 229.426 156.629 229.401 156.737 229.4L180.362 229.065L189.703 196.467C189.854 195.933 190.156 195.469 190.563 195.144C190.969 194.82 191.458 194.654 191.956 194.671L227.8 195.79C228.164 195.809 228.52 195.924 228.838 196.126C229.156 196.328 229.427 196.611 229.63 196.953C229.833 197.295 229.963 197.685 230.008 198.093C230.053 198.502 230.012 198.916 229.89 199.303L218.623 232.986L199.551 232.447"
        fill="#455A64" />
    <path
        d="M208.909 212.897C208.488 212.022 206.714 211.733 205.861 212.457C205.315 212.807 204.914 213.386 204.746 214.069C204.629 214.609 204.69 215.179 204.917 215.673C205.145 216.167 205.524 216.551 205.984 216.753C206.451 216.874 206.94 216.836 207.388 216.645C207.837 216.454 208.225 216.119 208.506 215.681C208.8 215.308 208.995 214.848 209.066 214.355C209.137 213.862 209.083 213.357 208.909 212.897V212.897Z"
        fill="white" />
    <path
        d="M174.25 114.25C174.705 113.553 175.721 114.191 176.048 114.981C176.375 115.77 176.526 116.77 177.215 117.145C178.126 117.639 179.521 116.751 180.087 117.698C180.519 118.422 179.883 119.409 180.087 120.258C180.414 121.778 182.738 121.409 183.397 122.784C183.794 123.607 183.397 124.594 183.071 125.456C182.744 126.318 182.639 127.516 183.339 128.002C184.04 128.489 185.09 127.93 185.674 128.562C186.445 129.417 185.289 130.871 185.528 132.056C185.703 132.931 186.567 133.372 187.344 133.549C188.12 133.727 188.984 133.878 189.498 134.563C190.631 136.069 188.973 138.392 189.434 140.3C189.714 141.452 190.776 142.426 190.525 143.59C190.21 145.071 188.068 145.275 187.764 146.762C187.501 148.025 188.78 149.473 188.074 150.499C187.367 151.526 185.861 150.565 184.886 151.157C183.765 151.875 183.975 154.243 182.72 154.592C182.137 154.744 181.553 154.368 181.004 154.461C179.62 154.691 179.253 157.389 177.852 157.283C177.034 157.224 176.392 156.132 175.598 156.356C174.804 156.579 174.699 157.83 174.028 158.33C172.977 159.086 171.757 157.514 170.525 157.454C169.749 157.415 168.996 157.981 168.231 157.823C167.872 157.708 167.55 157.479 167.303 157.164C167.056 156.85 166.894 156.462 166.836 156.046C166.734 155.215 166.751 154.371 166.888 153.546C167.34 148.943 166.634 144.289 164.851 140.116"
        fill="#263238" />
    <path
        d="M170.292 163.475L170.175 156.27C170.175 156.27 176.527 155.211 177.986 145.92C178.71 141.314 178.634 133.701 178.377 127.496C178.091 120.633 171.489 113.428 166.544 113.915L151.874 119.837V122.844L152.317 163.811C152.345 166.476 153.304 169.022 154.986 170.895C156.667 172.769 158.937 173.819 161.302 173.819V173.819C162.498 173.819 163.683 173.551 164.786 173.028C165.889 172.506 166.888 171.741 167.726 170.777C168.563 169.814 169.221 168.672 169.662 167.418C170.102 166.164 170.317 164.824 170.292 163.475V163.475Z"
        fill="#FFBE9D" />
    <path
        d="M175.843 133.951C175.842 134.262 175.732 134.56 175.538 134.782C175.344 135.003 175.081 135.13 174.804 135.135C174.669 135.144 174.534 135.123 174.406 135.072C174.278 135.021 174.161 134.943 174.06 134.84C173.96 134.738 173.878 134.614 173.821 134.476C173.763 134.338 173.73 134.189 173.724 134.036C173.727 133.726 173.837 133.428 174.031 133.207C174.225 132.986 174.488 132.859 174.763 132.852C174.899 132.842 175.035 132.863 175.163 132.913C175.291 132.964 175.408 133.042 175.509 133.145C175.61 133.247 175.691 133.371 175.749 133.51C175.806 133.648 175.838 133.798 175.843 133.951V133.951Z"
        fill="#263238" />
    <path
        d="M176.854 131.418C176.719 131.569 175.925 130.885 174.787 130.865C173.649 130.845 172.796 131.47 172.68 131.312C172.563 131.154 172.755 130.964 173.123 130.654C173.624 130.28 174.215 130.089 174.816 130.108C175.411 130.124 175.986 130.355 176.457 130.766C176.801 131.062 176.918 131.345 176.854 131.418Z"
        fill="#263238" />
    <path
        d="M165.335 133.615C165.334 133.927 165.224 134.225 165.03 134.446C164.836 134.668 164.573 134.794 164.296 134.8C164.161 134.809 164.026 134.789 163.898 134.738C163.77 134.688 163.653 134.609 163.553 134.507C163.453 134.404 163.372 134.28 163.315 134.142C163.258 134.003 163.227 133.853 163.222 133.701C163.224 133.389 163.333 133.091 163.527 132.87C163.722 132.648 163.985 132.522 164.261 132.516C164.396 132.507 164.532 132.528 164.659 132.578C164.787 132.628 164.905 132.707 165.005 132.809C165.105 132.912 165.186 133.036 165.243 133.175C165.299 133.313 165.331 133.463 165.335 133.615Z"
        fill="#263238" />
    <path
        d="M165.639 131.431C165.505 131.582 164.711 130.898 163.573 130.878C162.434 130.858 161.582 131.483 161.465 131.325C161.348 131.168 161.541 130.977 161.909 130.667C162.409 130.291 163 130.098 163.602 130.115C164.196 130.134 164.77 130.364 165.242 130.773C165.587 131.082 165.703 131.365 165.639 131.431Z"
        fill="#263238" />
    <path
        d="M169.626 141.051C170.229 140.846 170.853 140.731 171.483 140.708C171.775 140.708 172.066 140.623 172.107 140.399C172.135 140.059 172.072 139.718 171.926 139.419C171.664 138.623 171.395 137.78 171.103 136.905C169.965 133.319 169.148 130.378 169.276 130.325C169.404 130.273 170.444 133.141 171.57 136.721L172.358 139.254C172.538 139.662 172.584 140.128 172.487 140.57C172.443 140.685 172.377 140.788 172.293 140.87C172.209 140.952 172.109 141.011 172.002 141.044C171.84 141.089 171.673 141.111 171.506 141.11C170.88 141.178 170.248 141.158 169.626 141.051V141.051Z"
        fill="#263238" />
    <path
        d="M170.175 156.277C166.282 156.263 162.469 155.033 159.159 152.724C159.159 152.724 161.926 159.231 170.21 158.527L170.175 156.277Z"
        fill="#EB996E" />
    <path
        d="M169.095 144.137C168.882 143.825 168.603 143.58 168.284 143.424C167.964 143.267 167.615 143.205 167.268 143.242C167.016 143.262 166.77 143.339 166.545 143.469C166.32 143.599 166.121 143.779 165.96 143.998C165.802 144.207 165.705 144.467 165.684 144.741C165.663 145.014 165.719 145.289 165.843 145.525C166.023 145.759 166.261 145.928 166.526 146.01C166.791 146.092 167.071 146.083 167.332 145.986C167.874 145.781 168.374 145.457 168.803 145.031C168.935 144.932 169.048 144.805 169.136 144.656C169.179 144.587 169.202 144.504 169.202 144.42C169.202 144.335 169.179 144.252 169.136 144.183"
        fill="#FF725E" />
    <path
        d="M166.258 141.873C166.445 141.873 166.421 143.255 167.466 144.269C168.511 145.282 169.802 145.15 169.837 145.348C169.837 145.44 169.539 145.611 168.984 145.617C168.257 145.616 167.554 145.324 166.999 144.795C166.469 144.288 166.134 143.568 166.065 142.788C166.03 142.202 166.17 141.86 166.258 141.873Z"
        fill="#263238" />
    <path
        d="M166.013 126.397C165.896 126.746 164.758 126.561 163.415 126.713C162.072 126.864 160.986 127.259 160.817 126.943C160.735 126.792 160.934 126.463 161.401 126.134C161.99 125.732 162.653 125.487 163.338 125.416C164.024 125.346 164.715 125.451 165.359 125.726C165.82 125.969 166.065 126.232 166.013 126.397Z"
        fill="#263238" />
    <path
        d="M176.492 127.687C176.287 127.976 175.505 127.654 174.559 127.621C173.614 127.588 172.808 127.785 172.633 127.476C172.557 127.325 172.685 127.035 173.041 126.765C173.516 126.443 174.064 126.288 174.617 126.318C175.17 126.349 175.703 126.564 176.147 126.937C176.48 127.246 176.585 127.548 176.492 127.687Z"
        fill="#263238" />
    <path
        d="M173.864 115.685C173.864 115.79 173.584 115.882 173.234 115.882C172.884 115.882 172.598 115.79 172.598 115.685C172.598 115.579 172.878 115.487 173.234 115.487C173.59 115.487 173.864 115.579 173.864 115.685Z"
        fill="#263238" />
    <path
        d="M173.327 117.481C175.458 112.717 170.613 108.73 168.307 107.427C167.156 106.755 165.877 106.413 164.581 106.429C163.285 106.445 162.013 106.819 160.875 107.519C159.86 108.177 158.972 109.184 157.834 109.493C155.195 110.25 152.352 107.203 149.9 108.532C147.88 109.618 147.565 113.026 145.516 114.092C144.541 114.612 143.403 114.448 142.335 114.573C141.266 114.698 140.052 115.362 139.918 116.547C139.76 117.863 141.015 119.297 140.385 120.449C139.608 121.863 137.302 120.547 136.298 121.765C135.294 122.982 136.462 125.232 135.329 126.114C134.494 126.772 133.093 125.982 132.48 126.884C131.867 127.785 133.064 129.062 133.169 130.273C133.274 131.483 132.259 132.464 131.371 133.22C130.484 133.977 129.556 135.194 129.982 136.326C130.478 137.642 132.416 137.774 132.749 139.169C133.082 140.564 131.383 142.182 132.165 143.393C132.679 144.196 133.858 143.966 134.5 144.63C135.586 145.729 134.267 147.848 134.804 149.381C135.539 151.5 138.762 150.572 139.999 152.368C140.682 153.368 140.583 155 141.558 155.658C142.533 156.316 143.8 155.296 144.944 155.448C146.806 155.691 147.956 158.882 149.749 158.257C150.665 157.941 151.342 156.639 152.276 156.895C153.082 157.119 153.397 158.415 154.214 158.56C155.324 158.757 155.633 156.935 156.293 155.928C157.18 154.566 159.112 154.493 159.93 153.085C160.665 151.815 160.134 150.124 159.486 148.795C158.838 147.466 158.067 146.012 158.383 144.538C158.745 142.86 160.455 141.406 159.854 139.82C159.2 138.09 156.322 138.267 156.123 136.392C155.931 134.622 158.564 133.622 158.266 131.871C158.067 130.694 156.637 130.233 156.369 129.075C156.053 127.759 157.501 126.581 157.484 125.186C157.484 124.298 156.871 123.587 156.439 122.837C156.007 122.087 155.773 120.975 156.374 120.403C157.338 119.481 158.78 121.159 159.982 120.751C160.829 120.468 161.15 119.343 161.43 118.409C161.43 118.409 163.66 114.599 167.647 115.119C171.634 115.639 173.327 117.481 173.327 117.481Z"
        fill="#263238" />
    <path
        d="M173.386 115.764C173.571 115.999 173.703 116.281 173.772 116.586C173.84 116.891 173.843 117.21 173.781 117.516C173.718 117.823 173.591 118.108 173.41 118.348C173.23 118.588 173.002 118.776 172.744 118.896C171.751 119.291 170.7 118.587 169.825 117.929C168.949 117.271 167.857 116.613 166.906 117.073C165.155 117.929 165.633 121.554 163.829 122.337C163.088 122.66 162.271 122.337 161.494 122.146C160.718 121.955 159.743 121.988 159.323 122.739C158.739 123.745 159.527 125.371 158.739 126.173C158.418 126.515 157.91 126.581 157.618 126.956C157.145 127.555 157.519 128.529 158.038 129.082C158.558 129.634 159.241 130.062 159.498 130.812C159.906 132.01 159.013 133.253 158.103 134.03C157.192 134.806 156.1 135.576 155.902 136.846C155.586 138.879 157.828 140.847 157.069 142.729C156.807 143.233 156.392 143.614 155.901 143.801C155.41 143.988 154.875 143.97 154.396 143.748C153.444 143.262 152.677 142.411 152.23 141.347C150.157 137.155 150.741 132.036 151.43 127.318C151.879 124.226 152.405 121.028 154.01 118.468C155.616 115.908 158.324 114.145 161.051 113.072C163.114 112.165 165.336 111.807 167.542 112.026C168.642 112.144 169.706 112.53 170.661 113.157C171.615 113.784 172.438 114.638 173.071 115.658"
        fill="#263238" />
    <path
        d="M149.649 158.007C149.608 158.052 149.558 158.086 149.503 158.106C149.423 158.137 149.337 158.148 149.252 158.138C149.168 158.127 149.086 158.096 149.013 158.047C148.776 157.889 148.596 157.642 148.505 157.349C148.441 157.161 148.42 156.957 148.447 156.757C148.487 156.535 148.571 156.326 148.692 156.145C148.98 155.737 149.342 155.403 149.755 155.165C150.226 154.898 150.65 154.534 151.004 154.092C151.187 153.848 151.294 153.543 151.307 153.224C151.296 152.886 151.183 152.563 150.986 152.309C150.765 152.028 150.527 151.764 150.274 151.519C149.989 151.255 149.755 150.928 149.585 150.559C149.5 150.348 149.465 150.117 149.482 149.886C149.5 149.656 149.569 149.434 149.684 149.243C149.939 148.88 150.259 148.584 150.624 148.374C150.969 148.15 151.337 147.953 151.663 147.716C152.003 147.493 152.252 147.13 152.358 146.703C152.39 146.482 152.372 146.255 152.304 146.044C152.237 145.834 152.123 145.646 151.973 145.499C151.653 145.15 151.316 144.823 150.963 144.518C150.574 144.192 150.254 143.772 150.029 143.288C149.929 143.018 149.885 142.726 149.9 142.434C149.915 142.142 149.989 141.858 150.116 141.603C150.364 141.095 150.699 140.647 151.103 140.287C151.494 139.919 151.914 139.629 152.271 139.254C152.652 138.916 152.951 138.475 153.14 137.971C153.215 137.715 153.238 137.442 153.207 137.175C153.175 136.907 153.091 136.651 152.959 136.425C152.674 135.937 152.348 135.48 151.985 135.063C151.577 134.622 151.276 134.072 151.109 133.464C151.051 133.13 151.073 132.785 151.173 132.464C151.287 132.153 151.46 131.874 151.681 131.648C152.119 131.25 152.591 130.899 153.088 130.602C153.571 130.347 153.977 129.937 154.255 129.424C154.354 129.165 154.394 128.883 154.372 128.603C154.349 128.322 154.265 128.053 154.127 127.818C153.844 127.315 153.522 126.842 153.164 126.404C152.795 125.933 152.535 125.369 152.405 124.759C152.347 124.438 152.37 124.105 152.469 123.798C152.583 123.496 152.774 123.24 153.018 123.061C153.494 122.785 154.023 122.642 154.559 122.646C155.047 122.644 155.533 122.577 156.007 122.449C156.223 122.389 156.422 122.268 156.585 122.096C156.748 121.924 156.868 121.708 156.935 121.469C157.069 120.982 157.058 120.435 157.18 119.896C157.236 119.616 157.346 119.353 157.501 119.126C157.656 118.899 157.854 118.713 158.079 118.58C158.955 118.054 159.918 118.205 160.747 118.231C161.156 118.253 161.565 118.206 161.961 118.093C162.335 117.965 162.684 117.757 162.989 117.481C163.556 116.915 164.087 116.303 164.577 115.652C165.038 115.043 165.612 114.555 166.258 114.224C166.845 113.954 167.483 113.85 168.114 113.921C168.619 113.973 169.108 114.142 169.55 114.42C169.993 114.698 170.379 115.077 170.683 115.533C171.075 116.109 171.329 116.789 171.419 117.507C171.447 117.754 171.447 118.004 171.419 118.251C171.419 118.251 171.419 117.994 171.337 117.521C171.22 116.832 170.956 116.185 170.566 115.639C170.267 115.208 169.891 114.852 169.463 114.594C169.035 114.336 168.563 114.181 168.079 114.138C167.482 114.085 166.881 114.193 166.328 114.454C165.714 114.782 165.17 115.256 164.734 115.843C164.241 116.507 163.706 117.132 163.135 117.711C162.809 118.01 162.434 118.234 162.031 118.369C161.611 118.494 161.176 118.547 160.741 118.527C159.889 118.527 158.99 118.383 158.202 118.856C158.012 118.967 157.846 119.123 157.716 119.314C157.586 119.505 157.494 119.726 157.449 119.962C157.338 120.449 157.349 120.995 157.198 121.548C157.12 121.836 156.978 122.098 156.785 122.307C156.592 122.515 156.354 122.664 156.094 122.738C155.6 122.88 155.092 122.956 154.582 122.962C154.095 122.96 153.614 123.083 153.175 123.324C152.986 123.468 152.837 123.672 152.749 123.91C152.663 124.157 152.644 124.427 152.697 124.686C152.823 125.239 153.063 125.751 153.397 126.18C153.768 126.631 154.1 127.12 154.39 127.641C154.534 127.925 154.631 128.238 154.676 128.562C154.71 128.902 154.659 129.246 154.53 129.555C154.235 130.123 153.799 130.581 153.275 130.871C152.792 131.162 152.335 131.504 151.909 131.891C151.722 132.071 151.575 132.296 151.477 132.549C151.396 132.809 151.376 133.088 151.418 133.359C151.579 133.907 151.856 134.404 152.224 134.806C152.6 135.241 152.938 135.714 153.234 136.221C153.387 136.488 153.484 136.791 153.52 137.106C153.555 137.422 153.527 137.742 153.438 138.044C153.232 138.604 152.902 139.095 152.481 139.471C152.09 139.853 151.658 140.129 151.313 140.498C150.942 140.825 150.631 141.229 150.397 141.689C150.286 141.9 150.22 142.137 150.205 142.381C150.19 142.626 150.225 142.871 150.309 143.097C150.515 143.539 150.806 143.924 151.161 144.222C151.522 144.536 151.867 144.872 152.195 145.229C152.368 145.414 152.499 145.643 152.575 145.898C152.651 146.153 152.671 146.424 152.633 146.69C152.515 147.189 152.227 147.617 151.833 147.881C151.477 148.15 151.109 148.348 150.77 148.539C150.433 148.722 150.136 148.987 149.9 149.315C149.805 149.471 149.746 149.652 149.73 149.841C149.714 150.03 149.74 150.22 149.807 150.394C150.099 151.098 150.753 151.506 151.167 152.112C151.39 152.405 151.514 152.778 151.518 153.164C151.498 153.525 151.375 153.869 151.167 154.145C150.795 154.6 150.349 154.971 149.854 155.237C149.456 155.462 149.102 155.775 148.815 156.158C148.699 156.304 148.62 156.483 148.586 156.675C148.553 156.867 148.565 157.066 148.622 157.251C148.699 157.522 148.858 157.755 149.071 157.909C149.137 157.956 149.211 157.988 149.289 158.003C149.366 158.018 149.445 158.015 149.521 157.994C149.574 158.04 149.644 158.001 149.649 158.007Z"
        fill="#455A64" />
    <path
        d="M135.685 149.861C135.685 149.861 135.75 149.861 135.866 149.809C135.947 149.764 136.017 149.7 136.072 149.62C136.126 149.54 136.164 149.447 136.182 149.348C136.25 149.024 136.221 148.684 136.1 148.381C135.883 147.991 135.641 147.619 135.376 147.269C135.22 147.038 135.119 146.766 135.084 146.479C135.069 146.318 135.084 146.154 135.127 145.999C135.17 145.844 135.241 145.701 135.335 145.578C135.703 145.051 136.304 144.762 136.678 144.183C136.77 144.038 136.831 143.872 136.859 143.696C136.886 143.521 136.878 143.341 136.835 143.169C136.725 142.792 136.546 142.444 136.31 142.15C136.082 141.827 135.82 141.492 135.592 141.13C135.326 140.745 135.184 140.269 135.189 139.781C135.21 139.523 135.285 139.275 135.406 139.055C135.528 138.836 135.694 138.652 135.89 138.517C136.281 138.243 136.715 138.056 137.168 137.965C137.629 137.873 138.085 137.833 138.534 137.715C138.972 137.63 139.378 137.401 139.702 137.057C139.848 136.856 139.954 136.622 140.015 136.372C140.075 136.121 140.088 135.859 140.052 135.602C139.972 135.04 139.847 134.487 139.678 133.951C139.486 133.375 139.395 132.763 139.41 132.148C139.428 131.814 139.526 131.493 139.692 131.216C139.859 130.939 140.088 130.718 140.356 130.575C141.406 129.97 142.638 130.246 143.561 129.549C143.782 129.39 143.956 129.161 144.063 128.891C144.152 128.61 144.166 128.306 144.103 128.016C143.923 127.392 143.689 126.79 143.403 126.219C143.261 125.896 143.176 125.546 143.152 125.186C143.143 124.994 143.169 124.801 143.228 124.62C143.288 124.439 143.379 124.274 143.496 124.134C144.002 123.689 144.609 123.417 145.248 123.35C145.831 123.219 146.474 123.002 146.608 122.383C146.742 121.765 146.38 121.067 146.421 120.317C146.45 119.573 146.675 118.857 147.069 118.259C147.462 117.66 148.005 117.209 148.628 116.961C149.906 116.494 151.15 117.159 152.259 116.849C152.529 116.804 152.784 116.683 153.002 116.496C153.219 116.31 153.391 116.065 153.502 115.784C153.616 115.156 153.657 114.515 153.625 113.875C153.638 113.525 153.728 113.183 153.888 112.882C154.061 112.582 154.314 112.351 154.611 112.224C155.181 112.018 155.793 112.018 156.363 112.224C156.906 112.382 157.408 112.619 157.916 112.724C158.409 112.85 158.925 112.792 159.387 112.559C160.297 112.086 160.951 111.171 161.722 110.48C162.458 109.839 163.31 109.389 164.219 109.161C165.127 108.934 166.068 108.935 166.976 109.164C168.481 109.488 169.828 110.425 170.759 111.796C171.457 112.819 171.929 114.014 172.136 115.283C172.27 116.079 172.296 116.894 172.212 117.698C172.188 117.979 172.139 118.257 172.066 118.527C172.066 118.527 172.113 118.238 172.148 117.692C172.206 116.895 172.162 116.093 172.02 115.31C171.797 114.071 171.319 112.908 170.625 111.914C169.6 110.469 168.114 109.533 166.485 109.307C164.857 109.081 163.214 109.582 161.909 110.704C161.161 111.362 160.513 112.309 159.515 112.836C159.007 113.097 158.439 113.168 157.892 113.04C157.344 112.921 156.836 112.684 156.316 112.533C155.811 112.352 155.268 112.352 154.763 112.533C154.524 112.628 154.319 112.808 154.179 113.046C154.049 113.303 153.976 113.592 153.969 113.888C154.003 114.551 153.956 115.215 153.829 115.862C153.704 116.196 153.505 116.488 153.252 116.712C152.998 116.935 152.699 117.082 152.381 117.139C151.132 117.468 149.9 116.81 148.774 117.251C148.21 117.478 147.719 117.889 147.363 118.431C147.008 118.974 146.804 119.623 146.777 120.297C146.774 120.64 146.813 120.981 146.894 121.311C146.996 121.674 147.016 122.061 146.952 122.436C146.904 122.629 146.819 122.808 146.705 122.961C146.59 123.114 146.447 123.238 146.287 123.324C145.992 123.475 145.682 123.586 145.364 123.653C144.783 123.699 144.225 123.926 143.753 124.311C143.664 124.42 143.595 124.547 143.549 124.686C143.504 124.825 143.484 124.973 143.49 125.121C143.514 125.437 143.591 125.745 143.718 126.029C144.009 126.623 144.249 127.246 144.436 127.891C144.508 128.248 144.486 128.621 144.372 128.963C144.252 129.29 144.049 129.57 143.788 129.766C143.278 130.102 142.708 130.305 142.119 130.358C141.58 130.406 141.051 130.553 140.554 130.792C140.329 130.913 140.137 131.098 139.997 131.329C139.856 131.56 139.773 131.829 139.754 132.108C139.741 132.685 139.826 133.259 140.005 133.8C140.176 134.354 140.303 134.924 140.385 135.504C140.422 135.801 140.403 136.105 140.329 136.394C140.256 136.683 140.13 136.951 139.959 137.182C139.595 137.585 139.131 137.851 138.628 137.945C138.161 138.063 137.688 138.103 137.256 138.188C136.832 138.265 136.425 138.435 136.059 138.688C135.889 138.8 135.744 138.956 135.636 139.142C135.529 139.328 135.462 139.54 135.44 139.761C135.439 140.193 135.564 140.614 135.796 140.959C136.018 141.32 136.275 141.617 136.503 141.978C136.752 142.297 136.939 142.672 137.051 143.077C137.098 143.278 137.104 143.487 137.071 143.69C137.038 143.894 136.965 144.087 136.859 144.255C136.433 144.88 135.825 145.157 135.487 145.637C135.403 145.745 135.34 145.87 135.3 146.005C135.26 146.141 135.244 146.284 135.253 146.427C135.284 146.691 135.375 146.943 135.516 147.157C135.778 147.517 136.015 147.899 136.222 148.302C136.343 148.627 136.364 148.988 136.281 149.328C136.26 149.436 136.215 149.535 136.15 149.618C136.086 149.701 136.005 149.764 135.913 149.802C135.847 149.855 135.765 149.876 135.685 149.861V149.861Z"
        fill="#455A64" />
    <path
        d="M184.256 150.315C184.359 150.401 184.479 150.455 184.606 150.473C184.79 150.462 184.968 150.395 185.122 150.279C185.275 150.164 185.397 150.003 185.476 149.815C185.721 149.348 185.581 148.651 185.511 147.841C185.482 147.406 185.534 146.969 185.663 146.558C185.811 146.128 185.938 145.689 186.042 145.242C186.098 145.009 186.097 144.763 186.037 144.531C185.977 144.298 185.862 144.089 185.704 143.926C185.312 143.609 184.867 143.385 184.396 143.268C183.842 143.149 183.326 142.865 182.901 142.446C182.799 142.308 182.724 142.146 182.683 141.972C182.641 141.798 182.634 141.616 182.662 141.439C182.732 141.09 182.888 140.771 183.112 140.518C183.503 140.018 184.028 139.616 184.221 139.031C184.289 138.725 184.255 138.401 184.123 138.122C183.991 137.844 183.772 137.63 183.509 137.524C182.989 137.188 182.341 137.129 181.693 136.807C181.36 136.651 181.073 136.393 180.864 136.063C180.659 135.72 180.555 135.312 180.566 134.898C180.608 134.119 180.808 133.36 181.15 132.681C181.46 132.067 181.679 131.4 181.798 130.707C181.83 130.379 181.794 130.047 181.693 129.738C181.592 129.428 181.428 129.149 181.214 128.924C180.812 128.443 180.304 128.068 179.872 127.608C179.423 127.162 179.104 126.576 178.955 125.923C178.833 125.319 178.784 124.7 178.809 124.081C178.907 123.012 178.838 121.932 178.605 120.89C178.353 120.057 177.912 119.313 177.326 118.731C176.888 118.282 176.379 117.93 175.826 117.692C175.346 117.502 174.845 117.387 174.337 117.35C174.471 117.334 174.606 117.334 174.74 117.35C175.122 117.372 175.499 117.454 175.861 117.593C176.536 117.854 177.15 118.281 177.66 118.844C178.17 119.406 178.563 120.089 178.809 120.843C179.067 121.914 179.152 123.029 179.06 124.133C179.041 124.726 179.092 125.319 179.212 125.897C179.353 126.493 179.65 127.027 180.064 127.43C180.479 127.871 180.987 128.239 181.424 128.746C181.665 129.008 181.849 129.329 181.961 129.684C182.073 130.039 182.112 130.418 182.072 130.792C181.903 132.319 180.852 133.484 180.864 134.958C180.856 135.305 180.942 135.646 181.109 135.938C181.286 136.217 181.529 136.433 181.81 136.563C182.394 136.859 183.053 136.918 183.649 137.3C183.953 137.474 184.209 137.738 184.39 138.063C184.482 138.233 184.539 138.425 184.557 138.623C184.574 138.821 184.551 139.021 184.489 139.208C184.19 139.813 183.794 140.351 183.322 140.794C183.135 141.005 183.002 141.269 182.936 141.557C182.915 141.691 182.919 141.829 182.949 141.961C182.979 142.093 183.035 142.215 183.112 142.321C183.503 142.693 183.97 142.948 184.472 143.064C184.979 143.198 185.455 143.454 185.867 143.814C186.056 144.011 186.192 144.264 186.258 144.545C186.314 144.813 186.314 145.092 186.258 145.361C186.15 145.822 186.015 146.274 185.855 146.716C185.724 147.099 185.668 147.51 185.692 147.92C185.733 148.683 185.873 149.427 185.581 149.96C185.49 150.162 185.351 150.332 185.178 150.448C185.006 150.565 184.807 150.624 184.606 150.618C184.529 150.606 184.457 150.572 184.395 150.519C184.334 150.466 184.286 150.396 184.256 150.315V150.315Z"
        fill="#455A64" />
    <g opacity="0.3">
        <path opacity="0.3" d="M143.882 187.88V205.442L139.848 205.798L138.371 199.501L143.882 187.88Z" fill="black" />
    </g>
</svg>