<svg width="71" height="72" viewBox="0 0 71 72" fill="none" xmlns="http://www.w3.org/2000/svg">
    <path
        d="M70.131 50.2491C70.1207 53.1463 69.5576 55.8787 68.4418 58.4463C67.3586 60.9816 65.8533 63.2061 63.9259 65.1198C62.0312 67.0011 59.7961 68.4906 57.2206 69.5883C54.6777 70.6535 51.9578 71.181 49.0606 71.1707C46.4565 71.1615 43.9516 70.6969 41.546 69.7769C39.1729 68.857 37.0292 67.5148 35.1149 65.7502C33.1881 67.5012 31.0187 68.8281 28.6066 69.7311C26.1946 70.634 23.6864 71.0808 21.0823 71.0716C18.1852 71.0613 15.4527 70.5145 12.8849 69.4312C10.3498 68.3155 8.12531 66.8102 6.21143 64.9154C4.33023 62.9881 2.84074 60.753 1.74297 58.21C0.677872 55.6346 0.150452 52.8984 0.160716 50.0013L0.337849 0.00157034L14.3514 0.051216L14.1743 50.0509C14.1708 51.0275 14.3466 51.9558 14.7015 52.836C15.0566 53.6836 15.5422 54.434 16.1584 55.0873C16.8073 55.7081 17.5542 56.199 18.3993 56.5601C19.2444 56.9211 20.1552 57.1034 21.1318 57.1068C22.1083 57.1103 23.0204 56.9345 23.868 56.5794C24.7156 56.2244 25.4498 55.7387 26.0705 55.1224C26.7238 54.4736 27.231 53.7267 27.5921 52.8817C27.9533 52.004 28.1356 51.0769 28.1391 50.1004L28.3162 0.100689L42.3298 0.150334L42.1526 50.15C42.1492 51.1266 42.3249 52.0549 42.6799 52.9351C43.035 53.7827 43.5206 54.5332 44.1368 55.1864C44.7856 55.8072 45.5326 56.2981 46.3777 56.6592C47.2227 57.0202 48.1336 57.2025 49.1101 57.206C50.0867 57.2094 50.9988 57.0336 51.8464 56.6785C52.694 56.3235 53.4281 55.8378 54.0488 55.2215C54.7022 54.5728 55.2094 53.8259 55.5704 52.9808C55.9642 52.1033 56.1628 51.1762 56.1662 50.1997L56.3434 0.19998L70.3081 0.249453L70.131 50.2491Z"
        fill="url(#paint0_linear)" />
    <defs>
        <linearGradient id="paint0_linear" x1="-3.4802" y1="4.16462" x2="69.3675" y2="3.59388"
            gradientUnits="userSpaceOnUse">
            <stop stop-color="#65BFBA" />
            <stop offset="1" stop-color="#457B9D" />
        </linearGradient>
    </defs>
</svg>