<svg width="341" height="341" viewBox="0 0 316 341" fill="none" xmlns="http://www.w3.org/2000/svg">
  <path
    d="M141 154C183.526 154 218 119.526 218 77C218 34.4741 183.526 0 141 0C98.4741 0 64 34.4741 64 77C64 119.526 98.4741 154 141 154Z"
    fill="#FFBA49" fill-opacity="0.6"></path>
  <path opacity="0.2" fill-rule="evenodd" clip-rule="evenodd"
    d="M150.627 206.543C151.447 206.133 152.54 206.608 152.084 207.691C151.596 208.85 149.79 208.864 148.771 208.841C148.873 208.836 149.201 207.773 149.314 207.612C149.646 207.138 150.123 206.795 150.627 206.543ZM141.19 227.664C140.9 227.914 141.166 227.688 141.19 227.664V227.664ZM151.58 211.925C152.07 212.299 152.093 212.959 151.692 213.406C151.215 213.938 150.344 213.919 149.694 213.868C149.4 213.844 147.83 213.72 148.203 213.463C148.174 213.474 148.114 213.5 148.05 213.536C148.016 213.661 147.979 213.787 147.942 213.911C147.951 213.916 147.959 213.922 147.969 213.928C147.958 213.923 147.95 213.918 147.941 213.913C147.563 215.158 147.025 216.344 146.321 217.453C146.584 217.349 146.857 217.271 147.133 217.236C147.952 217.132 149.675 217.766 148.758 218.855C147.879 219.898 146.512 218.78 145.515 218.626C144.547 219.973 143.481 221.265 142.362 222.513C142.431 222.534 142.491 222.579 142.525 222.648C142.974 222.421 143.441 222.096 143.856 222.008C144.455 221.881 145.682 221.803 146.135 222.338C146.691 222.995 146.094 223.529 145.436 223.656C144.483 223.839 143.235 223.375 142.318 223.062C142.213 223.08 142.098 223.05 142.03 222.966C142.01 222.959 141.989 222.953 141.97 222.946C140.837 224.188 139.662 225.389 138.494 226.564C138.506 226.564 138.518 226.563 138.531 226.562C138.836 226.363 139.163 226.199 139.517 226.113C140.336 225.913 141.3 225.912 141.965 226.503C142.627 227.092 142.861 228.122 142.176 228.783C140.803 230.108 138.784 227.09 138.093 226.965C136.905 228.146 135.65 229.25 134.375 230.331C134.52 230.287 134.668 230.255 134.822 230.24C136.071 230.12 139.004 231.648 137.47 233.153C136.132 234.464 134.587 231.942 133.51 231.06C132.308 232.068 131.1 233.069 129.926 234.109C130.566 233.94 131.185 233.914 131.871 234.121C132.581 234.335 133.726 234.869 133.277 235.826C132.82 236.799 131.444 236.357 130.728 236.049C130.337 235.88 129.554 235.312 128.866 235.073C126.992 236.838 125.369 238.782 124.14 241.072C123.372 242.502 122.79 244.029 122.379 245.599C122.118 246.601 121.602 248.283 121.704 249.587C121.214 246.978 122.104 243.843 123.063 241.509C123.944 239.364 125.262 237.48 126.806 235.784C126.419 234.623 123.161 232.948 125.11 231.868C126.145 231.296 127.204 232.243 127.43 233.246C127.585 233.935 127.348 234.802 127.096 235.471C127.582 234.954 128.087 234.453 128.607 233.97C129.326 233.301 130.062 232.652 130.805 232.011C129.582 230.864 128.425 227.584 130.066 227.047C132.49 226.256 131.321 230.731 131.152 231.57C131.104 231.572 131.066 231.558 131.039 231.527C131.052 231.604 131.068 231.686 131.087 231.769C132.509 230.548 133.953 229.352 135.349 228.102C135.223 228.009 135.023 227.655 134.866 227.467C134.512 227.042 134.173 226.598 133.926 226.101C133.535 225.315 133.158 224.062 134.196 223.599C135.325 223.095 135.86 224.513 135.868 225.358C135.873 225.943 135.713 226.499 135.629 227.072C135.603 227.251 135.703 228.057 135.459 227.71C135.471 227.838 135.472 227.931 135.466 227.996C135.717 227.771 135.966 227.543 136.213 227.313C136.201 227.284 136.193 227.253 136.191 227.216C136.178 226.964 136.432 226.867 136.611 226.941C136.937 226.631 137.259 226.318 137.577 225.999C138.249 225.322 138.931 224.627 139.608 223.916C139.461 223.79 139.52 223.616 139.382 223.482C139.245 223.349 138.975 223.276 138.814 223.152C138.409 222.84 138.073 222.386 137.83 221.94C137.429 221.201 136.911 219.653 138.084 219.3C139.293 218.936 139.906 220.427 139.983 221.359C139.998 221.54 139.862 223.167 139.758 223.758C141.011 222.438 142.243 221.067 143.36 219.674C143.021 219.671 142.062 218.979 141.869 218.791C141.396 218.331 140.644 217.314 141.474 216.775C142.212 216.297 143.121 216.988 143.436 217.66C143.487 217.771 143.67 218.801 143.684 219.263C144.146 218.672 144.587 218.077 144.997 217.481C145.271 217.084 145.526 216.677 145.766 216.262C145.708 216.229 145.654 216.173 145.603 216.102C144.373 215.894 142.805 213.98 144.251 213.313C144.939 212.995 145.685 213.649 146.021 214.184C146.09 214.294 146.202 214.845 146.293 215.279C146.981 213.902 147.507 212.445 147.908 210.95C147.801 210.924 147.71 210.842 147.698 210.702C147.101 210.362 146.63 210.08 146.213 209.427C145.954 209.021 145.488 208.094 146.249 207.868C147.24 207.575 147.861 209.084 147.942 209.827C147.951 209.914 147.951 210.165 147.948 210.395C147.982 210.39 148.017 210.391 148.051 210.397C148.279 209.471 148.461 208.534 148.606 207.595C148.065 207.422 147.973 204.589 148.333 204.185C149.138 203.282 149.705 204.586 149.662 205.276C149.611 206.089 149.241 206.829 148.801 207.485C148.754 207.555 148.767 207.551 148.755 207.455C148.749 207.502 148.732 207.538 148.709 207.563C148.731 207.991 148.775 208.43 148.754 208.808C148.692 209.893 148.565 210.984 148.381 212.055C148.336 212.315 148.285 212.573 148.227 212.829C148.662 212.46 149.248 212.131 149.477 212.028C150.072 211.762 150.989 211.474 151.58 211.925ZM121.607 249.484C121.635 249.833 121.721 250.151 121.889 250.411C121.765 250.113 121.673 249.803 121.607 249.484Z"
    fill="#C1DEE2"></path>
  <g opacity="0.5">
    <path opacity="0.5" fill-rule="evenodd" clip-rule="evenodd"
      d="M143.159 242.056C144.14 240.647 145.96 237.068 147.341 236.564C148.23 236.24 147.971 239.595 147.982 240.235C148.025 242.71 147.786 245.169 147.49 247.623C146.958 252.05 145.218 255.992 142.832 259.759C141.604 261.697 140.164 263.659 138.169 264.869C137.251 265.426 136.146 265.519 135.239 265.999C134.183 266.558 134.758 266.106 134.282 267.215C133.621 268.754 133.41 270.74 133.104 272.383C131.699 279.924 128.3 319.786 128.889 327.456C128.942 328.136 128.001 328.299 127.954 327.469C127.704 323.068 129.864 292.593 130.954 282.627C132.044 272.66 133.147 263.856 134.253 260.408C135.595 256.224 138.018 251.194 140.035 247.293C140.972 245.481 141.993 243.731 143.159 242.056Z"
      fill="#69A1AC"></path>
    <path opacity="0.5" fill-rule="evenodd" clip-rule="evenodd"
      d="M150.44 290.936C152.993 289.048 155.756 292.611 153.446 294.5C152.169 295.544 150.834 295.172 150.083 294.302C149.595 294.902 149.138 295.528 148.699 296.057C147.362 297.67 146.099 299.321 144.891 301.01C142.383 304.52 140.233 308.228 137.986 311.868C135.767 315.461 133.567 319.072 131.557 322.755C129.853 325.876 127.583 329.548 127 332.969C127.885 325.713 131.242 318.738 135.24 312.341C139.205 305.997 143.756 299.068 149.896 294.061C149.271 293.135 149.253 291.813 150.44 290.936Z"
      fill="#C1DEE2"></path>
    <path opacity="0.5" fill-rule="evenodd" clip-rule="evenodd"
      d="M102.002 273.239C103.431 273.52 105.765 276.776 106.942 278.016C108.342 279.49 109.611 281.062 110.808 282.708C113.384 286.251 115.688 290.018 117.647 293.947C120.841 300.351 123.4 306.926 125.257 313.9C126.394 318.169 127.13 322.594 127.566 326.987C127.648 327.816 128.511 334.205 127.268 334.377C126.151 334.532 126.496 329.526 126.442 328.845C125.833 321.162 124.007 313.687 121.467 306.446C120.914 304.869 120.4 302.937 119.516 301.517C118.879 300.495 119.511 300.851 118.392 300.464C117.43 300.132 116.335 300.213 115.351 299.806C113.212 298.923 111.5 297.208 109.999 295.482C107.083 292.129 104.771 288.502 103.566 284.206C102.898 281.823 102.284 279.427 101.943 276.971C101.855 276.337 101.082 273.058 102.002 273.239Z"
      fill="#69A1AC"></path>
    <path opacity="0.5" fill-rule="evenodd" clip-rule="evenodd"
      d="M107.639 219.071C113.02 228.473 117.442 238.8 120.297 249.26C122.026 255.598 123.236 262.101 124.438 268.558C126.299 278.554 128.059 288.55 128.56 298.725C129.064 308.958 130.06 320.761 126.734 330.617C128.395 320.611 126.814 309.959 126.534 299.89C126.4 295.083 126.012 290.324 125.503 285.545C125.01 280.909 124.203 276.296 123.452 271.697C123.086 269.457 122.702 267.22 122.311 264.985C122.194 264.318 122.145 262.339 121.725 261.884C121.302 261.425 119.146 261.238 118.469 260.902C117.106 260.224 115.824 259.261 114.689 258.244C112.514 256.294 110.621 253.746 109.127 251.235C105.671 245.424 104.29 238.332 104.359 231.602C104.373 230.295 106.459 216.224 105.621 216.031C105.671 215.971 105.719 215.91 105.764 215.846C106.398 216.915 107.021 217.993 107.639 219.071Z"
      fill="#89C5CC"></path>
    <path opacity="0.5" fill-rule="evenodd" clip-rule="evenodd"
      d="M165.714 252.979C165.797 252.858 166.338 252.019 166.066 252.073C166.62 251.964 165.304 252.998 166.684 252.363C166.029 252.987 166.407 253.797 166.416 254.636C166.43 255.999 166.203 257.351 165.949 258.684C165.546 260.792 164.947 262.842 164.076 264.802C162.179 269.075 158.958 273.188 155.133 275.859C153.245 277.178 151.395 277.627 149.242 278.234C147.882 278.618 147.774 279.326 147.052 280.656C145.549 283.426 144.072 286.185 142.747 289.048C141.164 292.467 139.628 295.89 138.178 299.368C133.296 311.087 129.322 323.227 127.235 335.792C127.184 328.388 128.884 320.762 131.028 313.705C132.59 308.563 134.624 303.606 136.793 298.7C137.318 297.511 138.115 295.982 138.338 294.67C138.494 293.751 138.016 292.866 137.798 291.898C136.945 288.126 137.006 283.9 137.755 280.108C138.581 275.927 140.969 273.986 145.008 273.394C146.486 273.177 148.364 273.257 149.718 272.622C151.194 271.931 151.803 269.659 152.643 268.201C154.897 264.283 157.575 260.526 160.651 257.226C161.502 256.312 162.418 255.469 163.39 254.687C164.002 254.194 165.297 253.586 165.714 252.979Z"
      fill="#89C5CC"></path>
    <path opacity="0.5" fill-rule="evenodd" clip-rule="evenodd"
      d="M120.415 327.795H134.752C135.396 327.795 135.919 328.322 135.919 328.971C135.919 329.029 135.915 329.086 135.907 329.143L134.798 336.713C134.461 339.021 132.495 340.731 130.18 340.731H124.987C122.672 340.731 120.706 339.021 120.368 336.713L119.26 329.143C119.166 328.5 119.607 327.903 120.245 327.808C120.301 327.799 120.358 327.795 120.415 327.795Z"
      fill="#C1DEE2"></path>
  </g>
  <path fill-rule="evenodd" clip-rule="evenodd"
    d="M56.6166 116.357C54.7291 112.387 53.9268 107.927 55.4275 103.572C59.7513 91.0246 76.799 98.6077 78.5323 105.99C80.2656 113.372 75.4673 129.634 70.6829 129.588C68.7749 129.57 65.2748 127.424 62.0302 124.055L59.8548 141.889L45.5133 138.046L56.6166 116.357Z"
    fill="#D4A181"></path>
  <path fill-rule="evenodd" clip-rule="evenodd"
    d="M61.8211 116.788C59.128 119.725 55.9796 121.637 53.5223 120.979C48.8549 119.728 47.2084 112.598 49.0061 105.889C49.0693 105.654 49.1367 105.421 49.2082 105.191C43.3631 107.256 37.7686 112.915 31.2357 111.164C22.3479 108.783 23.6216 89.9099 36.0392 93.2372C44.4841 95.5 48.3082 97.8443 51.4002 100.624C52.6397 98.823 54.1648 97.4379 55.7945 96.622C56.2067 96.3503 56.7837 96.1393 57.4948 95.9909C57.934 95.884 58.376 95.8195 58.8177 95.8002C61.1893 95.5853 64.4665 95.8636 67.9923 96.6776C68.6507 96.8296 69.2931 96.9946 69.9158 97.1705C70.8079 93.8816 74.1935 91.9323 77.4875 92.8149C80.7877 93.6992 82.7462 97.0914 81.8619 100.392C81.0067 103.583 77.8059 105.52 74.6112 104.844C72.6604 104.917 70.2361 104.705 67.6227 104.19C67.6208 105.194 67.4709 106.295 67.1484 107.498C66.8637 108.561 66.4445 109.656 65.922 110.743C65.5425 109.932 64.9137 109.3 64.158 109.098C62.0441 108.531 60.1067 109.876 59.6119 111.722C58.9841 114.066 59.8826 116.123 61.8211 116.788Z"
    fill="#8F490F"></path>
  <path fill-rule="evenodd" clip-rule="evenodd"
    d="M27.2202 192.735L49.8815 270.824L60.5403 329.455H71.2385L60.5594 192.735H27.2202Z" fill="#BA8B72"></path>
  <path fill-rule="evenodd" clip-rule="evenodd"
    d="M17.0361 192.735C18.6174 233.302 17.9938 255.428 17.6399 259.114C17.286 262.8 15.2769 287.484 1.58618 330.692H12.7132C30.8443 289.241 37.1737 264.557 39.2532 259.114C41.3326 253.671 47.4743 231.545 56.4409 192.735H17.0361Z"
    fill="#D4A181"></path>
  <path fill-rule="evenodd" clip-rule="evenodd"
    d="M26.7336 192.735C32.6282 219.606 42.8233 262.498 57.3189 321.413H72.9662C74.1219 260.943 69.2055 221.144 60.6915 192.735H26.7336Z"
    fill="#74DCCA"></path>
  <path fill-rule="evenodd" clip-rule="evenodd"
    d="M16.9568 192.735C18.5054 233.302 14.4921 273.268 2.0603 322.044H18.7551C36.9195 281.212 49.9385 241.443 58.8361 192.735H16.9568Z"
    fill="#81F4E1"></path>
  <path fill-rule="evenodd" clip-rule="evenodd"
    d="M0 338.735L0.613953 328.836C4.20856 329.888 8.71089 329.475 14.1209 327.599C19.938 331.72 27.261 334.533 36.0898 336.04C36.7634 336.155 37.2163 336.794 37.1013 337.468C37.0939 337.511 37.0841 337.554 37.072 337.597L36.2233 340.591H14.1209H1.22791L0 338.735Z"
    fill="#191847"></path>
  <path fill-rule="evenodd" clip-rule="evenodd"
    d="M58.1523 338.735L58.7663 328.836C62.3609 329.888 66.8632 329.475 72.2733 327.599C78.0904 331.72 85.4133 334.533 94.2422 336.04C94.9158 336.155 95.3686 336.794 95.2537 337.468C95.2462 337.511 95.2365 337.554 95.2244 337.597L94.3756 340.591H72.2733H59.3803L58.1523 338.735Z"
    fill="#191847"></path>
  <path fill-rule="evenodd" clip-rule="evenodd"
    d="M71.4848 157.957L94.6737 150.104C98.9265 146.548 102.963 143.916 106.784 142.207C107.903 141.956 109.774 142.014 107.534 144.741C105.295 147.467 103.062 150.436 103.766 151.521C104.471 152.607 106.867 151.687 107.631 153.419C108.14 154.574 104.15 155.553 95.6623 156.357L77.816 167.716L71.4848 157.957ZM102.881 173.569L113.07 170.104C115.248 165.375 117.246 163.154 119.064 163.443C120.571 163.04 117.041 168.88 119.776 168.802C122.512 168.724 129.799 165.068 130.738 166.237C132.127 167.965 129.883 172.127 127.77 174.021C123.82 177.562 120.902 178.496 113.979 179.172C110.358 179.526 106.288 180.797 101.767 182.984L102.881 173.569Z"
    fill="#D4A181"></path>
  <path fill-rule="evenodd" clip-rule="evenodd"
    d="M61.6411 153.562C69.0618 154.789 79.2149 154.967 90.9334 150.135L93.4448 160.095C84.9032 166.027 73.6363 170.153 64.743 168.326C57.7345 166.886 55.637 157.732 61.6411 153.562Z"
    fill="#65B4E6"></path>
  <path fill-rule="evenodd" clip-rule="evenodd"
    d="M69.0045 170.122C76.5221 173.47 90.1163 173.482 109.787 170.16C112.703 180.467 113.632 187.613 112.572 191.597C95.2313 197.091 80.9701 198.389 69.715 196.656C68.8982 203.372 66.9722 209.56 63.2321 214.864C55.5429 225.77 24.7382 208.983 13.3456 209.209C10.399 185.601 25.3353 178.851 27.8725 164.525C30.6509 148.836 47.5084 126.906 49.3621 127.233L66.2666 130.214C65.0864 142.361 67.4523 156.396 69.0045 170.122Z"
    fill="#65B4E6"></path>
  <path fill-rule="evenodd" clip-rule="evenodd"
    d="M267.334 162.96C270.163 159.639 272.078 155.569 271.758 151.009C270.836 137.869 252.545 140.76 248.988 147.391C245.43 154.023 245.852 170.845 250.451 172.03C252.284 172.503 256.191 171.345 260.167 168.949L257.671 186.604H272.407L267.334 162.96Z"
    fill="#B28B67"></path>
  <path fill-rule="evenodd" clip-rule="evenodd"
    d="M278.183 146.635C278.659 146.163 278.918 145.49 279.143 144.851C279.376 144.187 279.603 143.516 279.757 142.825C280.067 141.444 280.07 139.856 279.085 138.783C278.294 137.923 277.109 137.538 276.015 137.454C275.286 137.398 274.537 137.5 273.838 137.73C273.145 137.958 272.548 138.412 271.875 138.694C271.85 137.205 271.595 135.648 270.84 134.377C270.113 133.155 268.955 132.469 267.636 132.287C266.282 132.101 264.945 132.418 263.733 133.073C263.429 133.237 263.129 133.409 262.841 133.604C262.6 133.767 262.349 133.963 262.067 134.03C261.752 134.104 261.595 133.922 261.391 133.692C261.151 133.422 260.88 133.185 260.594 132.974C259.328 132.044 257.667 131.661 256.2 132.219C255.525 132.476 254.868 132.912 254.409 133.514C254.001 134.05 253.709 134.9 253.145 135.274C252.906 135.432 252.737 135.222 252.519 135.067C252.191 134.834 251.879 134.576 251.548 134.349C251.083 134.03 250.579 133.792 250.039 133.667C249.25 133.484 248.158 133.527 247.932 134.562C247.847 134.95 247.912 135.366 247.94 135.757C247.977 136.295 248.017 136.832 248.063 137.369C248.099 137.777 248.144 138.17 248.22 138.571C248.262 138.784 248.39 139.182 248.298 139.395C248.184 139.662 247.656 139.511 247.431 139.52C246.986 139.538 246.539 139.616 246.127 139.807C245.808 139.954 245.472 140.171 245.338 140.537C245.255 140.761 245.277 140.992 245.316 141.223C245.363 141.5 245.309 141.648 245.274 141.927C244.676 141.633 242.604 140.979 242.343 142.05C242.256 142.407 242.454 142.811 242.605 143.112C242.869 143.639 243.216 144.122 243.571 144.582C244.31 145.542 245.193 146.37 246.143 147.078C245.03 147.573 244.74 149.032 245.703 149.902C246.129 150.286 246.701 150.371 247.237 150.346C247.434 150.337 247.717 150.262 247.872 150.296C247.955 150.315 248.044 150.385 248.159 150.393C248.917 150.445 249.772 150.262 250.512 150.094C251.831 149.795 253.08 149.17 254.1 148.218C254.362 147.974 254.578 147.833 254.93 147.837C255.239 147.84 255.542 147.924 255.85 147.932C256.666 147.953 257.402 147.554 258.159 147.289C258.205 148.312 258.497 149.439 258.916 150.36C259.257 151.111 259.97 151.22 260.67 151.286C262.911 151.496 265.159 151.261 267.402 151.264C265.23 151.755 262.987 151.957 260.835 152.535C259.862 152.796 260.605 153.452 261.021 153.906C261.706 154.654 262.215 155.582 262.568 156.559C263.63 155.174 265.508 154.262 267.171 154.687C269.009 155.157 270.303 157.642 269.127 159.429C268.445 160.466 267.213 160.867 266.188 161.312C266.988 162.144 267.181 163.372 267.663 164.406C267.9 164.917 268.233 165.493 268.764 165.671C268.961 165.737 269.191 165.743 269.346 165.903C269.538 166.101 269.584 166.323 269.829 166.493C270.807 167.173 272.335 167.121 273.202 166.233C273.986 165.43 273.782 164.16 273.127 163.346C274.17 162.912 276.069 162.353 275.655 160.729C277.913 160.579 283.398 156.916 280.366 154.239C282.03 153.298 283.558 151 282.49 148.975C281.667 147.415 279.753 146.718 278.183 146.635Z"
    fill="#191847"></path>
  <path fill-rule="evenodd" clip-rule="evenodd" d="M299.04 263.352H251.607L245.392 339.487H316L299.04 263.352Z"
    fill="#C5CFD6"></path>
  <path fill-rule="evenodd" clip-rule="evenodd" d="M299.04 263.352H284.452L275.72 339.487H316L299.04 263.352Z"
    fill="black" fill-opacity="0.1"></path>
  <path fill-rule="evenodd" clip-rule="evenodd"
    d="M197.53 250.309C192.472 247.272 183.987 251.174 183.993 255.517C184.011 268.512 195.87 329.756 196.489 333.627C197.108 337.499 203.741 338.521 204.127 333.64C204.742 325.873 205.884 298.984 204.741 286.538C204.27 281.401 203.762 276.508 203.262 272.143C209.485 283.381 219.109 299.471 232.134 320.412L239.205 317.182C233.652 298.888 229.099 285.972 225.546 278.436C219.461 265.532 213.756 254.481 211.355 250.589C207.578 244.466 201.003 246.602 197.53 250.309Z"
    fill="#B28B67"></path>
  <path fill-rule="evenodd" clip-rule="evenodd"
    d="M238.699 307.022L214.43 249.53C208.616 240.177 192.315 251.433 194.298 256.858C198.799 269.173 221.692 309.042 223.033 312.711L238.699 307.022Z"
    fill="#E5A742"></path>
  <path fill-rule="evenodd" clip-rule="evenodd"
    d="M240.047 313.556C241.559 314.801 242.542 315.817 242.997 316.606C243.551 317.565 244.199 319.056 244.942 321.08C243.829 321.722 233.833 327.494 214.951 338.395C212.685 336.268 212.331 334.618 213.892 333.443C215.452 332.268 216.74 331.277 217.755 330.47L228.107 316.208C228.306 315.934 228.69 315.873 228.964 316.072C228.969 316.076 228.974 316.079 228.978 316.083L231.129 317.739C233.102 317.567 234.575 317.2 235.546 316.639C236.336 316.183 237.242 315.235 238.265 313.794L238.265 313.794C238.658 313.241 239.425 313.11 239.978 313.503C240.001 313.52 240.025 313.538 240.047 313.556Z"
    fill="#E4E4E4"></path>
  <path fill-rule="evenodd" clip-rule="evenodd"
    d="M205.68 330.524C206.367 332.357 206.711 333.729 206.711 334.64C206.711 335.747 206.526 337.363 206.157 339.487C204.873 339.487 193.33 339.487 171.527 339.487C170.627 336.512 171.147 334.906 173.086 334.668C175.025 334.431 176.635 334.217 177.918 334.026L194.013 326.85C194.323 326.712 194.686 326.851 194.824 327.161C194.827 327.166 194.829 327.172 194.831 327.177L195.866 329.687C197.66 330.524 199.119 330.943 200.241 330.943C201.153 330.943 202.412 330.575 204.019 329.838L204.019 329.838C204.635 329.556 205.364 329.826 205.647 330.443C205.659 330.469 205.67 330.496 205.68 330.524Z"
    fill="#E4E4E4"></path>
  <path fill-rule="evenodd" clip-rule="evenodd"
    d="M182.292 259.934C182.292 276.246 190.039 314.295 190.044 317.887L206.711 317.9C204.271 283.949 203.406 266.791 204.115 266.425C205.18 265.876 247.74 270.674 260.504 270.674C278.91 270.674 286.525 259.067 287.143 237.565H250.68C243.256 238.359 204.532 246.17 190.15 248.855C183.993 250.005 182.292 255.441 182.292 259.934Z"
    fill="#FFBA49"></path>
  <path fill-rule="evenodd" clip-rule="evenodd"
    d="M245 199.314L223.689 187.642C220.145 183.433 216.653 180.165 213.213 177.836C212.162 177.398 210.324 177.132 212.043 180.183C213.762 183.234 215.433 186.52 214.557 187.46C213.682 188.4 211.498 187.087 210.453 188.648C209.757 189.69 213.487 191.334 221.645 193.582L237.13 207.761L245 199.314ZM211.623 209.162L202.261 204.019C200.948 199.021 199.378 196.507 197.551 196.475C196.148 195.823 198.592 202.138 195.931 201.59C193.271 201.043 186.778 196.214 185.659 197.194C184.004 198.645 185.48 203.099 187.219 205.314C190.469 209.455 193.16 210.871 199.81 212.726C203.288 213.695 207.048 215.639 211.089 218.556L211.623 209.162Z"
    fill="#997659"></path>
  <path fill-rule="evenodd" clip-rule="evenodd"
    d="M255.379 196.714C247.914 196.635 237.96 195.058 227.339 188.317L223.168 197.618C230.494 204.889 240.795 210.863 249.802 210.61C256.901 210.41 260.528 201.824 255.379 196.714Z"
    fill="#457B9D"></path>
  <path fill-rule="evenodd" clip-rule="evenodd"
    d="M245.328 211.631C237.403 213.607 224.114 211.277 205.461 204.639C200.834 214.211 198.695 221.035 199.044 225.112C215.046 233.47 228.761 237.197 240.06 237.443C239.701 244.148 240.517 250.527 243.259 256.357C248.895 268.341 281.896 257.242 292.992 259.427C299.941 236.86 286.506 227.689 286.495 213.249C286.483 197.436 273.786 173.097 271.918 173.097H254.882C253.942 185.173 249.211 198.482 245.328 211.631Z"
    fill="#457B9D"></path>
</svg>